<svg xmlns="http://www.w3.org/2000/svg" viewBox="0 0 4997.71 4997.71"><title>ikili dag</title><g id="Layer_2" data-name="Layer 2"><g id="Layer_1-2" data-name="Layer 1"><path d="M0,0V4997.71H4997.71V0ZM3641.27,2498.59c-.5,0-.89.48-1,1.86-.57,9.63-2.74,17.58-4.23,26.23-.65,3.74-1,7.83-1.78,11.41-1.42,6.66-3,13.16-4.18,20.09-.94,5.57-2.1,9.73-4.68,10.1-.41.06-.86.72-1.25,1.32-1,1.56-1.37,3.76-1.43,6.65-.2,9.45.48,7.95-3,11.95a19.57,19.57,0,0,0-1.38,1.74,7.3,7.3,0,0,0-1.37,3.57c-.37,3.87-.53,7.81-1.92,10.9a4.28,4.28,0,0,0-.13,1.72c1.44,3.76.06,7.61-.59,11.47a16.08,16.08,0,0,0-.13,3.53c.43,6.25-1.36,11.55-2.45,17.09a9.38,9.38,0,0,1-1.38,3.21c-2.36,3.59-3.15,8.67-3.49,14.16-.28,4.59-.87,8.57-2.79,12-2.23,4-4.54,8.08-5.91,14-.75,3.24-1.7,4.52-3,3.93s-2.81-1.94-4.07,2.74a.86.86,0,0,1-.42.56c-1.15.29-2.22,2.29-3.39,2.49-.87.15-1.42,1.5-2,3.19a50.48,50.48,0,0,0-2.5,17.33c.16,7.43-2.24,12-4.47,16.77-1.64,3.53-2.82,8.16-2.32,11.76a3.9,3.9,0,0,1-.76,3.33,12,12,0,0,0-1.33,1.69c-3.29,5.33-4.81,8.22-8.4,8-.94,0-3.65,4.12-4,6.77-.3,2.4-1.45,5-2.65,6-.71.59-.81-.11-1.57.28a1.7,1.7,0,0,0-1,1.43,5.42,5.42,0,0,1-.86,2.25,12.78,12.78,0,0,0-1.86,3c-.61,1.3-1.32,2.35-1.87,3.71-1,2.5-.68,3.07-1.89,4.08-3,2.52-5.78,6.46-8.56,10.31-.56.77-1.15.8-1.74,2.17a9.09,9.09,0,0,0-.7,6.71c.3,1-3.58,12.25-4.4,12.86-1,.8-1.69,2.29-2.53,3.56-1.2,1.82-1.06,2.67-.21,3,1.63.56,2.41,2.75,3.41,4.65.67,1.27.93,3.54,1.84,4,3,1.33,3.11,7.71,5.13,10.67a1.85,1.85,0,0,1,.12,1c-.42,3.38.11,5.91.37,8.68a28.81,28.81,0,0,1-1,9.17,61.07,61.07,0,0,0-2.09,16.42,7.3,7.3,0,0,1-1.11,4.25c-2.12,3.4-2.26,3.91-1.34,6.93.53,1.77.4,3.61-.5,6.21-1.5,4.34-3.16,8.53-4.92,12.71s-4.35,7.62-5.89,12.11a4.46,4.46,0,0,1-1.11,1.52,39.07,39.07,0,0,0-2.43,3.24c-1.89,2.39-2.32,5.9-3.89,8.4a9.38,9.38,0,0,0-1.57,6.66,39.16,39.16,0,0,1-.63,12.48,10.68,10.68,0,0,0,0,3.56c.25,2,1,3.59.37,6.48-1.13,5.25-2.45,10.53-3.61,15.7s-2.6,10.63-3.85,15.9a24,24,0,0,1-3.49,8.2c-1.72,2.53-3.59,5.26-3,8.19a2.42,2.42,0,0,1-.25,1.08c-2.4,5-2.92,9.62-3.87,14.3-1.9,9.29-5.85,17.45-12.32,23.78a23.05,23.05,0,0,0-6.06,10,18,18,0,0,1-7.83,10.45,10.64,10.64,0,0,0-4.71,6.29c-1.13,3.54-2.33,7.09-3.7,10.63-.81,2.09-2.33,4.33-.84,5.24.11.07.06.61-.08.9-2.07,4.33-3.08,8.9-6.58,12.89A20.8,20.8,0,0,0,3452,3110c-.89,3-2.08,6.12-4.74,8.64a7.62,7.62,0,0,1-5.65,2.4c-3.93-.1-7.7,3.89-11.54,7.9-1.39,1.44-2.31,2-3.51,2-1.8-.09-3-1.46-5.28-.52a5.61,5.61,0,0,1-3,.12c-3-.21-6.09-.46-9.93,1.56-3,1.57-6.11,3.69-7.94,1.73a.37.37,0,0,0-.33,0c-3.21,1.14-4.92-.69-7.31-1.17-2.75-.56-5.79.16-9.42,3.26-.59.5-.88.41-1.21.29-1.52-.53-2.89.32-4.2,3a3.9,3.9,0,0,1-2.9,2.44,18.75,18.75,0,0,0-9.1,3.71,2.33,2.33,0,0,1-1.55.63,3.22,3.22,0,0,0-2.33,1.1c-3.29,2.88-6.52,5-10,5,.9,1.46.09,3.56.8,4.64,1.32,2,1,5.35-.15,8.65s-.44,5.38-.69,8.05c-.08.91.88,1.14.63,2.22-.76,3.32-.44,6-.8,9.12-.16,1.3.32,2.32-1,4.08-.32.42-.55,1.37-.38,1.59.51.66.38.63.1,1.53-.43,1.34-2.27,2.31-2.17,3.18.28,2.23-1.42,5.3-1.25,7.46.09,1.19-.42,1.55-1.39,2.16-2.54,1.59-5,4-7.56,5.42-.2.11-.55.3-.58.39-1.36,4.14-1.7,1.17-2.45,1.16-.29,0-.56-.05-.85,0-2.58,0-5.6,1.1-8.38,2a28.37,28.37,0,0,0-15.12,11c-.27.37-.7.78-1,.59-.89-.66-2.55.29-3.69,0a5,5,0,0,0-4.82,1.19c-2.9,2.59-6.19,3.63-8.92,6.75a5.42,5.42,0,0,1-3.72,2c-2,.13-4,1.26-6,3.16a13,13,0,0,1-3.82,2.48,29.43,29.43,0,0,0-8.48,5.59,8.8,8.8,0,0,1-2.74,1.91c-4.21,1.49-8.23,5-12.28,7.54-3.85,2.41-7,4-10.09,3.67-.63-.07-1.18,0-1.88,1-3.44,4.82-6.58,9.55-8.34,14.47a21.5,21.5,0,0,1-6,9.21c-2.67,2.38-1.95,4.81-4,7.24-.13.15.1.41.06.66a3,3,0,0,1-.38,1.38c-1.95,2.64-3.24,5.66-6.22,7.75-3.92,2.74-5.21,6.07-7.6,9.18-1.47,1.91-.73,3.23-1.86,4.91a106.6,106.6,0,0,0-6.23,11.11,6,6,0,0,0-1,2.59c.25,3.3-1.06,7-3.05,11-1.47,2.91-1.07,5.34-3,8.42s-1.87,5.87-.75,7.88c.93,1.68.54,3.9-.17,6.19-.48,1.54-.71,2.77.15,3.58.39.36.75.81-.06,1.58-2.09,2-3.44,4.27-6,6.13a15.83,15.83,0,0,0-5.37,6.65c-1.36,3.37-.79,6.2-2.69,9.74a.57.57,0,0,0-.06.37c.6,2.34-1.21,5.35-2.42,8.19-1.94,4.58-4.56,9.26-6,13.71-.41,1.28-1.23,1.82-2.41,1.47a5.79,5.79,0,0,1-3.09-1.72c-.84-1.16-2.4-1.19-4.52-.61-3.34.91-6.22.83-9.39,1.4-6.73,1.21-13.17,1.81-19.68,2.51a2.81,2.81,0,0,1-1.3-.2c-3-1.12-4.87-3.13-6.69-5.22-1.47-1.68-2.57-3.74-6.32-3.62-2.41.08-5,.54-7.36.37a5.51,5.51,0,0,0-5.34,2.68,6.43,6.43,0,0,1-3.76,2.29c-1.9.33-3.44-.37-5.74,1.36-3-.63-2.39.79-2.29,1.94a3.25,3.25,0,0,1,0,.82,1.94,1.94,0,0,1-1.21,1.56c-.91.43-1.47.21-1.64-.19-.51-1.23-2.08-1.61-3.41-2.09-2.27-.82-3.44-2.63-6.78-2.57a53.73,53.73,0,0,1-9.54-1,7.59,7.59,0,0,0-5.52,1.75c-.25.23-.44.48-.7.71-2,1.68-3.88,3-6.48,2.91-3.09-.06-5.84,1.1-7.19,2.68-1.56,1.81-2.35,2.13-4.12,1.53a5.06,5.06,0,0,0-3.18,0c-5.28,1.51-8.67,4.57-11.57,8-1.24,1.47-2,3-3.26,4.46-1.57,1.72-2.13,3.17-1.83,4.59a5.62,5.62,0,0,1-.09,1.62c-.15,1.38-.9,1.85-2.7,1.68-.48,0-.9-.18-1.37-.25-1.58-.22-2.72.18-4.23,1.7-2.94,2.93-3.59,5.55-3.05,7.79s-1.91,5.23-1.5,7.51a.48.48,0,0,1-.2.34c-1.69,1.16-4.21,2.13-3.61,3.79-2.24.63-1.38,1.3-1.34,2,.06,1.17-1,2.19-2.76,3-2.09,1-2.86,2.09-2.47,3.28a2.44,2.44,0,0,1,.25,1.34c-.3,1.46,1.24,2.38.11,4a47.13,47.13,0,0,1-4.25,5.06c-2.34,2.49-4.35,5-5,7.45-.71,2.69-.41,5.11-1.07,7.82-1.49,6.07-5.59,10.44-15.5,13.27-4.66,1.33-9.36,2.32-14,4.21a21.56,21.56,0,0,1-7.24,1.58c-1.63.08-3.18-.06-4.78.07a44.2,44.2,0,0,1-11.83-.33c-4.14-.79-6.24,0-9.42,3.33a3.27,3.27,0,0,1-1.94,1.16c-2.95,0-6.39.68-8.68-.2a9.77,9.77,0,0,0-6.73-.41c-3,.89-4.23.19-5.39-.65s-2.37-.57-3.94.34a2.5,2.5,0,0,1-2.29.39c-3.85-1.28-7.4-2.82-11.53-3.88-.64-.17-1.21-.78-2.07-.26-2.24,1.33-2.61.34-3.5-.16s-1.52-1.58-3.1-.91c-2.08.88-3.13.32-4.47.23-2.7-.17-4.61-1.13-6.77-1.83-2.5-.8-4.73-.56-7.69,1.05-.51.28-.87.73-1.57.82-4.31.53-8.82,1.42-12.21.14-.42-.16-.92-.44-1.45.15-1.88,2.12-3.68,2.65-5.49,1.08-.12-.09-.46-.06-.62-.15-2.36-1.26-5.2-2.29-7.07-3.76a14.4,14.4,0,0,0-7.66-2.95,11.64,11.64,0,0,1-6.45-2.89c-.45-.33-.57-.92-1.64-.73s-1.19.85-1.51,1.34c-1.08,1.67-4.83,3.32-7.19,3.12-1-.09-1.08.37-1.24.68-1,2-2.47,3.5-6.37,3.44a4.25,4.25,0,0,0-2.6.52,1.33,1.33,0,0,1-1.85.19c-2.87-1.91-5.72-3.84-8.44-5.84a13.48,13.48,0,0,1-1.75-2c-1.21-1.31-3.16-1.18-5.23.32-2.72,2-2.73,2-4.92.63a10.45,10.45,0,0,0-.93-.57c-1.18-.56-2.32-1.4-3.88.41a1.31,1.31,0,0,1-1.13.36,2.28,2.28,0,0,0-2.48,1.29c-.55,2.16-3.18,4.15-3.85,6.27a2.37,2.37,0,0,1-1.95,1.71,2.28,2.28,0,0,0-2.06,1.33c-1.43,2.08-1.89,4.51-6.55,5.56-2.55.57-4,1.62-4.79,3.09a1.75,1.75,0,0,1-2.4.62,2.35,2.35,0,0,0-3.33.82c-.62.89-1.18.93-1.87.31-.3-.26-.64-.5-.93-.77a1.83,1.83,0,0,0-2.74.36c-.81,1.08-1.82,2.13-2.52,3.25-1.18,1.88-1.78,3.85-4.79,5.54-4,2.21-5.05,5.23-7.74,7.82-.68.65-2,1.62-2.44,1.49-2.38-.62-2.55.63-3.23,1.31-.86.86-1.44,1.78-2.23,2.65-.28.31-.73.86-1.37.7-1.9-.48-2.17.51-2.63,1.09a33.47,33.47,0,0,0-3.79,6.46,2.07,2.07,0,0,1-1.95,1.4,3.38,3.38,0,0,0-3.07,1.69c-1.74,1.88-3.16,3.78-6.49,5.23-1.36.59-2.29,1.44-4.14,1.79-1.49.29-2,1.39-3.49,2-1.14.43-2.36,0-3.29.7a4.85,4.85,0,0,1-4.09.82,2.11,2.11,0,0,0-1.86.5c-.46.28-.79.72-1.52.67a3.07,3.07,0,0,0-3.16,1.48,3.42,3.42,0,0,1-2.11,1.49,4.17,4.17,0,0,0-2.58,1.43,9.8,9.8,0,0,0-2.67,3.49c-.46,1.25-1.52,2.28-3.65,3.15-1,.42-2.45.64-3.13,1.29-1.26,1.21-4.31,1.75-4.58,3.32,0,.11-.61.33-.91.34a5.34,5.34,0,0,0-4.22,1.92,5.06,5.06,0,0,1-2.46,1.54c-2.88.49-3.58,1.82-5,2.89-.91.68-2.36,1.69-3.46,1.51-1.89-.32-2.42.39-3.7.75a16.75,16.75,0,0,0-5.51,2.86c-.86.6-2.09.39-3.12.26a7.9,7.9,0,0,0-3.25,0c-4.35,1.32-8.72,2.61-12.95,4-2.7.9-4.27,1-6.38,0a5.55,5.55,0,0,0-1.64-.42c-2.12-.27-4.3-.44-6.39-.76-1.72-.27-3.28-.64-4.31.71-.24.32-.94.37-1.5.33-2.54-.15-4.79-1.07-7.66-.38-.31.08-.83-.22-1.26-.21-1.57,0-3.2-.75-4.5-.2-2.46,1-5.53,1.67-7.23,3.25-2.42,2.22-4.14,4.68-8.12,6.4-.95.41-.76,1-.84,1.53-.75,5.1-9.25,9.67-19.13,10.1a24,24,0,0,0-5.17.82c-4.85,1.31-9.83,2.6-15.1.72-1.22-.44-2.14.08-3.08.4a94.64,94.64,0,0,1-14,4.09,4.4,4.4,0,0,0-2.43,1c-2.62,3.2-10.4,3.21-14,5.89a12,12,0,0,0-1.57,1.1c-6.6-1.72-13.52-4.36-16.39-6.49a8.7,8.7,0,0,0-4.41-1.69,30.91,30.91,0,0,1-13.39-4.68,10.33,10.33,0,0,0-4.37-1.39c-5.81-.91-11.58-1.89-17.38-2.83a16.91,16.91,0,0,1-4.88-1.5c-3.79-2-8.17-3.37-12.25-5.07-1.46-.61-2.82-1.27-4.52-.44a3.46,3.46,0,0,1-1.85.07c-3.56-.48-7.41.07-10.71-1.5a7.85,7.85,0,0,0-2.18-.24c-3.49-.29-7-.68-10.46-.88a30.44,30.44,0,0,1-8.73-2.12,24.46,24.46,0,0,0-2.39-.52c-1.45-.36-2.76.58-3.72.13a16.13,16.13,0,0,0-3.48-.87,11.67,11.67,0,0,0-5.62.44,2.48,2.48,0,0,1-2.5-.51,12.09,12.09,0,0,0-6.16-2.26c-1.76-.13-2.84-.85-3.14-1.72s-.83-1.14-2-1.2a4.86,4.86,0,0,1-2.76-1.29c-1.9-1.24-2.88-2.94-5.68-3.74-.89-.25-.65-.76-.59-1.17a15.56,15.56,0,0,1,.43-2.72c.33-1.07-.47-1.89-2-2.4s-2.45-1.14-2.79-2.2a2.58,2.58,0,0,0-2.45-1.63c-4-.12-4.91-2-5.6-3.6-.59-1.39-2.15-2.47-3-3.75-1.14-1.63-6-3.22-9.34-2.6-.59.12-1.29.29-1.71,0-2.08-1.41-3.71-.5-5.16,0s-3.32.84-4.09,2c-.53.78-2.38.36-2.93-.06a4.86,4.86,0,0,0-4.59-.63c-1.87.49-4.05.19-6.05.29a24.25,24.25,0,0,0-9.15,2.16c-2.31,1.07-4.82.42-7.18-.35a18.15,18.15,0,0,1-3.19-1.29c-3-1.72-6.45-1.82-9.71-2.55-2.07-.46-4.1-.78-5.21-2.22a1.77,1.77,0,0,0-.91-.55c-2.62-.35-3.54-1.76-4.81-2.92a21.53,21.53,0,0,0-4.63-3.44,9,9,0,0,0-4.6-1.12c-1.09.05-2.34-.2-3.16,0-2.26.38-3.5-.71-4.86-1.54a3.7,3.7,0,0,0-2.14-.73c-5.62.08-10.3-1.89-13.31-5.31-2.41-2.72-5.38-5.32-7.24-8.17a16.32,16.32,0,0,0-5.17-5.27,7.1,7.1,0,0,1-2.81-3.27c-1.46-3.42-4.62-6.48-7.66-9.58-1.91-2-3.33-4-5.53-5.95-1.24-1.08-1.47-2.4-1.95-3.63a3.61,3.61,0,0,0-2.41-2c-2.67-1.07-5.26-2.44-6.24-4.47-1.32-2.74-5.11-3.23-8-4.57a2.57,2.57,0,0,0-.85-.07c-.83,0-1.49.63-2.36.12a7.75,7.75,0,0,1-2.62-2.44,28.36,28.36,0,0,1-3.43-7.39c-.2-.72-.5-1.44-.7-2.15-.62-2.24-2.56-4.22-4.88-6a7.33,7.33,0,0,1-2.43-3.13c-.76-1.75,0-3.83-1.89-5.27a1.74,1.74,0,0,0-1.12-.36,21.58,21.58,0,0,0-3.24.87c-2.14.68-4.57,1-6.58,1.87-1.84.78-4.32.15-6.6,0a31.22,31.22,0,0,0-9.67,1.44,35.07,35.07,0,0,0-8.9,3.36,9.84,9.84,0,0,1-3.21,1,97.49,97.49,0,0,0-13,3.17,10,10,0,0,1-3.19,1c-4.74.19-8.7,1.58-14.22.67-6-1-10.64.61-15,2.29-3.24,1.24-6.24,2.48-11.12,2-4.23-.38-8.24.35-12.42.45-2,0-3.87.41-5.93.32-.11,0-.2,0-.31,0l0,0a5.86,5.86,0,0,0-4.27-2.62,1.83,1.83,0,0,1-1.48-.86,9.31,9.31,0,0,1-.86-1.52,1.88,1.88,0,0,0-1.24-1c-1.49-.6-2.93-1.3-3.61-2.52a1.14,1.14,0,0,0-.37-.35c-3.43-2.07-4.24-4.68-5.87-7.11a12.77,12.77,0,0,0-.85-1c-.25-.29-.69-.61-.73-.87-.39-2.26-3.2-4.08-4.82-6.12a9.15,9.15,0,0,1-1.87-3.31,3.88,3.88,0,0,0-2.3-2.56c-3.64-1.82-6.48-4.33-9.66-6.55-1.73-1.2-3.8-2-5.43-3.24-.23-.18-.55-.3-.79-.49-2-1.56-3.7-2.12-5.81-1.78a41,41,0,0,0-5.54.83c-1.23.38-3.2-.07-4.9-.37a17.78,17.78,0,0,1-5.27-1.24,13.77,13.77,0,0,1-5.3-4.58,23.34,23.34,0,0,0-8.35-7.62,9.72,9.72,0,0,0-3.8-1.19,8,8,0,0,1-3.13-1.16c-2.15-1.13-3.63-2.88-5.94-3.81-1-.42-1.81-1.32-3-1.85a15.45,15.45,0,0,0-7-1.44,17.17,17.17,0,0,1-4.09-.54,2.25,2.25,0,0,1-1.17-.54,4.36,4.36,0,0,0-3.57-1.2c-2.32,0-4.57.11-7-.13a18,18,0,0,1-7.58-2.28,10.92,10.92,0,0,0-2.87-1.4,3.39,3.39,0,0,1-1.9-1.4c-1-1.58-1.61-2.22-2.62-3.8a8.49,8.49,0,0,0-2.16-.48c-1.25.48-3.07-.12-4.52,0-2.86.26-5.88-1.17-9-2.52-2.14-.93-2.75-2.28-3.84-3.59-.71-.85-1.55-1.75-2.17-2.55-1.61-2.07-4-3-6-4.53-.36-.26-.88-.54-1-.81-.81-1.5-2.58-2.22-3.92-3.29s-2.51-2.35-3.92-3.43a1.06,1.06,0,0,1-.42-.51c-.11-1.55-1.68-2.76-3.19-3.71-3.87-2.45-7-5.58-10.52-8.29-6-4.57-9.91-10-13.79-15.36a14.64,14.64,0,0,0-1.81-2.18,11,11,0,0,1-3.35-4.87c-.35-1.29-1.33-2.11-2.81-3a72.86,72.86,0,0,0-8.26-3.91,17.64,17.64,0,0,1-8-6.38c-1.82-2.71-2.73-5.38-4.5-8.05-1.08-1.64-1.1-1.75-2.73-1.77a3.91,3.91,0,0,1-3.46-2,74.45,74.45,0,0,0-6.77-8.46c-.13-.13-.33-.3-.35-.41-.42-2.16-2.8-3.49-4.37-5.15a4.27,4.27,0,0,1-1.37-1.91,4.28,4.28,0,0,0-1.52-2.28,2.3,2.3,0,0,1-.86-1.1l-.59-.48a1.81,1.81,0,0,1-1.25-.55c-1.71-1.41-3.69-2.3-5.35-3.8-.69-.62-1.46-1.27-2.3-1.15a.2.2,0,0,1-.15,0c-1.85-1.52-2.91-.67-4-.47-3.11.54-6.48-.2-10.28-2.14-2.53-1.3-5.09-2.36-7.64-3.52a13.34,13.34,0,0,0-3.37-1,12.92,12.92,0,0,1-4.07-.95,7,7,0,0,0-2-.38,15.12,15.12,0,0,1-5.49-1.66,10.09,10.09,0,0,0-4.81-1.54,6.17,6.17,0,0,1-2.13-.37c-3.19-1.12-6.4-2.39-9.59-3.6-1.57-.6-3.13-.8-4.76-1.38a5.11,5.11,0,0,1-2.81-2.28,21.28,21.28,0,0,0-3.5-4.08,14.46,14.46,0,0,1-4-7.16,21.69,21.69,0,0,1-.5-3,1.45,1.45,0,0,0-1.53-1.46c-.76-.05-1.62-.4-2.25-.09s-1-.36-1.39-1c-1.94-3.32-5.73-5.28-8-4.59-.15,0-.29.19-.47.14-3.08-.87-5.45,0-8.54-.87a2.65,2.65,0,0,1-1.22-.46,9.83,9.83,0,0,0-7-2.22c-1.55,0-2.89,1-5.18-.71-.32-.25-.8-.18-1.19-.22a.8.8,0,0,1-.87-.81,1.31,1.31,0,0,0-1.29-1.2c-1.27-.11-2.77-.85-3.79-.26-.38.21-1.28-.24-1.91-.31-.24,0-.5-.1-.75-.15a4.27,4.27,0,0,1,0-1.67c.34-1.86-1-4-3.18-5.37-4.42-3-7-7.48-9.9-11.38a73,73,0,0,1-8.45-16.22c-.36-.91-.6-1.9-1.78-2.27-2.13-.66-2.51-2.36-3-4-1.09-3.47-2.05-6.93-3.19-10.42a74.72,74.72,0,0,1-3.38-15.9,63.27,63.27,0,0,0-2.3-11.72c-1-3.43-1.41-6.65-2.45-10.1-.52-1.75-1.52-3.33-2.08-5-1.91-5.66-2.61-10.89-2-15.52a5.36,5.36,0,0,0-2-5.3,2.55,2.55,0,0,1-1-2c.32-3.18-.19-7,2.13-8.68a1.84,1.84,0,0,0,1-1.36c.51-4.26,1.64-8.15.73-13.27-.1-.6.19-.76.42-1a3.08,3.08,0,0,0,.6-2.33c-.46-4.72,0-9,.09-13.41a5.07,5.07,0,0,0-1.13-3.54c-1.18-1.36-6.74-2.73-7.73-2.12-1.73,1.07-2.91,3.14-6.18,1.16-1.78-1.08-3.74-1.57-5.42-2.67a57.12,57.12,0,0,0-5.61-3c-3.63-1.88-6.74-.55-10.73-4.08-1.47-1.31-1.69-1.64-1.24-2.68a8.7,8.7,0,0,0-.19-7.75,3.26,3.26,0,0,1,.07-3c1.15-1.86.72-4.81.24-7.48-.85-4.75-.24-8.91-1.69-13.89a2.82,2.82,0,0,1,0-.87c.06-8.74,1.89-16.2,3.94-23.49a12.37,12.37,0,0,0,.42-3.54c0-4.75-.8-9.8-1.1-14.68a32.53,32.53,0,0,1,2.86-15.72,8.76,8.76,0,0,0,.71-2.15c.66-4.35,1.33-8.7,2-13.09.46-3.18-1.83-8.57-4.49-10.91s-4.83-2.35-7.34-2.68a88.33,88.33,0,0,1-8.71-1.62c-2.38-.56-4.72-1-6.74-4.74-.32-.59-.73-.89-1.1-.79-2.33.67-4.66-2.58-7-3.86a6.1,6.1,0,0,1-2.58-3.46c-1.18-4.3-3.67-8.1-5-12.28a37.29,37.29,0,0,0-5.72-11.68,14,14,0,0,1-3.1-5.89,5.65,5.65,0,0,0-2.33-3.2,8.54,8.54,0,0,0-4.88-2.23,9.75,9.75,0,0,1-3.42-1.15c-3.74-1.53-7.24-6-10.95-7.47-1.21-.5-2.41-.5-3.69-2-3.53-4.32-7.32-6.38-11.09-8.73-2.8-1.76-4,.3-6.52-4.44-.62-1.18-2.73-2-3.34-2.33-1.76-.9-2.59-2.82-3.93-4.27-2.34-2.56-3.57-4.38-6.53-4.58a.57.57,0,0,1-.21-.24c-1.43-3.21-3.61-4.58-5.3-7.11-1.49-2.24-3-3.42-4.63-3.95-3.19-1-7.55-7.59-8.59-12.93a3.49,3.49,0,0,1-.16-1.1c1.19-2.18-.23-6.2.49-8.75a7.26,7.26,0,0,0-.79-4.74,29.81,29.81,0,0,0-4-6.18,10.9,10.9,0,0,1-2.82-5.29,9,9,0,0,0-1.36-3.12c-3-4.19-4.94-9.88-6.53-15.07s-4.2-8.17-6.31-11.82c-2.61-4.52-6.15-7.23-8.9-11.61-3-4.85-5.67-10.67-8.4-16.18a9.19,9.19,0,0,1-.5-2,196.07,196.07,0,0,0-5.66-20.11c-2.81-9-7-16.43-10.33-24.91a22.48,22.48,0,0,1-1.78-8.72,48.33,48.33,0,0,0-2.77-15.92c-2.23-6.21-2.92-12.84-3.36-19.52a15.39,15.39,0,0,1,1-6.73,24.26,24.26,0,0,0,1.12-5.39,83.4,83.4,0,0,0-1-26.83c-.9-4.65-2.84-7.7-5.11-7.32-1.54.25-3,.67-4.07-3.36a3.08,3.08,0,0,0-1.88-2.31c-1.32-.36-1.81-2-2.15-4.51-.42-3.11-.67-6.75-2.81-7.33-.27-.08-.68-.88-.81-1.5-1.39-6.51-4.12-10.33-6.45-15-1.35-2.7-3-5.68-3.22-9.47-.31-6.28-2-10.93-3.46-16-2.94-10.07-6.24-19.71-8.09-31.16a112.63,112.63,0,0,0-3.31-15c-2.22-7.18-4.07-14.78-6.58-21.7-2.31-6.36-2.52-15.35-3.45-23.83v-1.93l3,0c.49,0,.88-.48,1-1.85.57-9.64,2.74-17.59,4.24-26.23.65-3.75,1-7.84,1.77-11.41,1.43-6.67,3-13.17,4.18-20.1.94-5.56,2.1-9.72,4.68-10.1.42-.06.87-.72,1.26-1.31,1-1.57,1.37-3.77,1.42-6.66.2-9.44-.47-7.94,3-11.95a19,19,0,0,0,1.38-1.73,7.25,7.25,0,0,0,1.37-3.58c.37-3.86.54-7.8,1.92-10.9a4.1,4.1,0,0,0,.14-1.72c-1.44-3.76-.06-7.61.58-11.46a16.15,16.15,0,0,0,.14-3.54c-.43-6.24,1.36-11.54,2.44-17.08a9.49,9.49,0,0,1,1.39-3.21c2.36-3.59,3.14-8.67,3.48-14.17.28-4.58.88-8.57,2.79-12,2.23-4,4.54-8.08,5.91-14,.76-3.25,1.7-4.52,3.06-3.93s2.81,1.94,4.06-2.74a.92.92,0,0,1,.42-.57c1.15-.28,2.23-2.29,3.39-2.49.88-.14,1.43-1.5,2-3.19a50.93,50.93,0,0,0,2.5-17.33c-.17-7.42,2.23-12,4.46-16.77,1.65-3.53,2.82-8.16,2.33-11.76a3.87,3.87,0,0,1,.75-3.32,10.91,10.91,0,0,0,1.33-1.7c3.3-5.32,4.81-8.21,8.41-8,.93.06,3.64-4.11,4-6.77.31-2.4,1.46-5,2.65-6,.71-.59.82.11,1.58-.28a1.71,1.71,0,0,0,1-1.43,5.47,5.47,0,0,1,.86-2.25,12.56,12.56,0,0,0,1.87-3c.61-1.31,1.31-2.36,1.87-3.72,1-2.49.67-3.07,1.89-4.08,3-2.52,5.77-6.46,8.56-10.3.56-.78,1.15-.8,1.74-2.17a9.06,9.06,0,0,0,.69-6.72c-.29-1,3.58-12.24,4.4-12.85,1-.8,1.7-2.3,2.53-3.56,1.2-1.82,1.07-2.67.22-3-1.63-.56-2.42-2.76-3.41-4.65-.67-1.27-.94-3.55-1.85-3.95-3-1.34-3.11-7.72-5.13-10.67a1.79,1.79,0,0,1-.11-1c.42-3.38-.11-5.92-.38-8.69a29.15,29.15,0,0,1,1-9.17,61.86,61.86,0,0,0,2.09-16.41,7.2,7.2,0,0,1,1.1-4.25c2.12-3.41,2.26-3.92,1.34-6.94-.53-1.77-.4-3.61.5-6.2,1.51-4.35,3.17-8.53,4.92-12.72s4.36-7.62,5.89-12.11a4.58,4.58,0,0,1,1.12-1.51,39.18,39.18,0,0,0,2.42-3.25c1.89-2.39,2.33-5.89,3.9-8.4a9.35,9.35,0,0,0,1.56-6.66,39.12,39.12,0,0,1,.64-12.47,10.72,10.72,0,0,0,0-3.57c-.24-2-1-3.58-.37-6.48,1.13-5.25,2.46-10.53,3.62-15.69s2.59-10.64,3.84-15.91a24.07,24.07,0,0,1,3.49-8.19c1.73-2.54,3.6-5.27,3-8.2a2.34,2.34,0,0,1,.26-1.08c2.4-5,2.91-9.61,3.87-14.29,1.89-9.29,5.84-17.45,12.32-23.79a23.09,23.09,0,0,0,6-10,18.07,18.07,0,0,1,7.83-10.46,10.55,10.55,0,0,0,4.71-6.28c1.14-3.54,2.33-7.1,3.7-10.63.81-2.09,2.33-4.34.85-5.25-.12-.07-.06-.61.08-.9,2.06-4.33,3.07-8.9,6.58-12.89a21,21,0,0,0,4.23-7.84c.89-3,2.07-6.13,4.74-8.64a7.62,7.62,0,0,1,5.65-2.4c3.92.1,7.69-3.9,11.53-7.9,1.39-1.45,2.32-2,3.51-1.95,1.81.09,3,1.46,5.28.51a5.61,5.61,0,0,1,3-.12c3.06.21,6.1.46,9.93-1.56,3-1.57,6.12-3.68,7.94-1.73a.34.34,0,0,0,.33,0c3.21-1.14,4.92.7,7.31,1.18,2.76.56,5.8-.16,9.42-3.26.6-.51.88-.41,1.22-.3,1.51.54,2.88-.31,4.19-3a3.91,3.91,0,0,1,2.91-2.43,18.81,18.81,0,0,0,9.1-3.72,2.28,2.28,0,0,1,1.55-.62,3.25,3.25,0,0,0,2.33-1.1c3.28-2.88,6.52-5,10-5-.89-1.45-.09-3.55-.8-4.63-1.32-2-1-5.36.16-8.66s.44-5.38.68-8.05c.09-.91-.88-1.13-.63-2.22.77-3.32.44-6,.81-9.11.15-1.31-.32-2.32,1-4.08.32-.43.55-1.37.38-1.6-.51-.66-.38-.62-.09-1.53.42-1.34,2.27-2.31,2.16-3.17-.28-2.24,1.43-5.3,1.26-7.46-.1-1.2.41-1.56,1.38-2.16,2.55-1.6,5-4,7.56-5.42a2.11,2.11,0,0,0,.59-.4c1.35-4.14,1.7-1.17,2.45-1.15.28,0,.55,0,.85,0,2.57,0,5.59-1.11,8.37-2a28.45,28.45,0,0,0,15.13-11c.26-.37.69-.79.95-.6.88.66,2.55-.29,3.69,0a5,5,0,0,0,4.82-1.18c2.89-2.6,6.18-3.63,8.92-6.76a5.44,5.44,0,0,1,3.71-2c2-.12,4-1.26,6.06-3.15a12.35,12.35,0,0,1,3.82-2.48,29.77,29.77,0,0,0,8.48-5.59,8.71,8.71,0,0,1,2.73-1.91c4.21-1.5,8.24-5,12.28-7.55,3.85-2.41,7-4,10.09-3.67.64.07,1.18,0,1.89-1,3.43-4.82,6.58-9.54,8.33-14.46a21.5,21.5,0,0,1,6-9.21c2.68-2.39,2-4.81,4-7.24.13-.16-.1-.42-.06-.67a3,3,0,0,1,.39-1.37c1.94-2.64,3.24-5.67,6.22-7.75,3.92-2.74,5.21-6.08,7.6-9.19,1.46-1.9.72-3.23,1.85-4.91a106.51,106.51,0,0,0,6.24-11.11,5.93,5.93,0,0,0,1-2.58c-.24-3.31,1.07-7,3.06-11,1.46-2.9,1.07-5.34,3-8.41,2-3.23,1.88-5.88.76-7.89-.94-1.68-.54-3.9.16-6.18.48-1.54.71-2.78-.14-3.58-.4-.37-.75-.82.06-1.59,2.09-2,3.44-4.26,6-6.13a15.81,15.81,0,0,0,5.37-6.64c1.36-3.37.8-6.21,2.7-9.75a.48.48,0,0,0,0-.36c-.59-2.34,1.21-5.36,2.42-8.19,1.94-4.58,4.57-9.26,6-13.72.4-1.27,1.22-1.82,2.4-1.46a5.69,5.69,0,0,1,3.1,1.72c.83,1.16,2.4,1.18,4.51.61,3.34-.91,6.22-.83,9.4-1.4,6.73-1.22,13.16-1.81,19.67-2.52a2.85,2.85,0,0,1,1.31.21c3,1.11,4.86,3.12,6.68,5.21,1.47,1.69,2.58,3.75,6.32,3.62,2.42-.08,5-.54,7.36-.37a5.48,5.48,0,0,0,5.34-2.67,6.42,6.42,0,0,1,3.76-2.3c1.91-.33,3.44.38,5.75-1.35,3,.62,2.38-.79,2.29-1.94a2.58,2.58,0,0,1,0-.83,1.92,1.92,0,0,1,1.2-1.55c.92-.44,1.48-.22,1.65.18.5,1.23,2.08,1.62,3.4,2.1,2.28.82,3.44,2.62,6.78,2.56a54.67,54.67,0,0,1,9.54,1,7.59,7.59,0,0,0,5.52-1.76c.25-.22.44-.48.7-.7,2-1.69,3.89-3,6.49-2.92,3.09.06,5.84-1.1,7.19-2.67,1.55-1.82,2.34-2.14,4.12-1.54a4.89,4.89,0,0,0,3.17,0c5.29-1.5,8.68-4.56,11.58-8,1.23-1.46,2-3,3.26-4.46,1.56-1.72,2.12-3.17,1.83-4.59a5.3,5.3,0,0,1,.09-1.62c.15-1.38.89-1.84,2.69-1.68.49,0,.9.18,1.38.25,1.57.22,2.72-.18,4.23-1.69,2.93-2.94,3.59-5.56,3-7.8s1.9-5.22,1.5-7.5a.45.45,0,0,1,.2-.35c1.69-1.16,4.21-2.12,3.6-3.79,2.24-.62,1.39-1.29,1.35-2-.07-1.17,1-2.18,2.75-3,2.1-1,2.87-2.08,2.47-3.27a2.57,2.57,0,0,1-.24-1.34c.29-1.46-1.24-2.39-.11-4a47.92,47.92,0,0,1,4.24-5c2.34-2.5,4.36-5,5-7.45.71-2.69.41-5.12,1.08-7.82,1.49-6.07,5.59-10.44,15.49-13.28,4.66-1.33,9.37-2.32,14-4.21a21.56,21.56,0,0,1,7.24-1.58c1.63-.08,3.17.06,4.78-.07a44.63,44.63,0,0,1,11.83.33c4.13.8,6.24,0,9.41-3.32a3.23,3.23,0,0,1,2-1.16c2.94,0,6.38-.68,8.67.19a9.73,9.73,0,0,0,6.74.41c2.94-.88,4.22-.19,5.39.65s2.36.57,3.93-.34a2.53,2.53,0,0,1,2.29-.39c3.85,1.29,7.4,2.82,11.53,3.88.65.17,1.22.78,2.08.27,2.23-1.33,2.61-.34,3.49.15s1.52,1.59,3.11.92c2.08-.88,3.12-.33,4.47-.24,2.7.17,4.6,1.14,6.76,1.83,2.5.81,4.73.56,7.69-1,.52-.28.87-.74,1.57-.82,4.31-.54,8.83-1.42,12.21-.15.42.16.93.45,1.45-.15,1.88-2.12,3.68-2.65,5.5-1.08.11.1.46.07.62.15,2.36,1.26,5.2,2.3,7.07,3.77a14.44,14.44,0,0,0,7.66,2.94,11.55,11.55,0,0,1,6.44,2.9c.45.33.58.91,1.64.73s1.2-.85,1.52-1.35c1.08-1.67,4.83-3.32,7.18-3.11,1,.08,1.09-.38,1.24-.69,1-2,2.48-3.49,6.38-3.44a4.15,4.15,0,0,0,2.59-.52,1.33,1.33,0,0,1,1.85-.18c2.87,1.91,5.72,3.84,8.44,5.84a12.44,12.44,0,0,1,1.75,2c1.21,1.32,3.17,1.19,5.24-.31,2.72-2,2.72-2,4.91-.64a8.69,8.69,0,0,0,.94.57c1.17.56,2.32,1.41,3.87-.41a1.37,1.37,0,0,1,1.13-.36,2.29,2.29,0,0,0,2.49-1.28c.55-2.17,3.18-4.15,3.85-6.27a2.35,2.35,0,0,1,2-1.72,2.27,2.27,0,0,0,2-1.32c1.44-2.09,1.9-4.52,6.55-5.56,2.56-.58,4-1.62,4.8-3.1a1.74,1.74,0,0,1,2.4-.62,2.34,2.34,0,0,0,3.32-.82c.62-.88,1.18-.93,1.87-.31.3.27.65.51.94.78a1.84,1.84,0,0,0,2.74-.37c.8-1.08,1.82-2.13,2.52-3.24,1.17-1.88,1.77-3.86,4.78-5.54,4-2.22,5.05-5.23,7.75-7.82.68-.66,2-1.62,2.44-1.5,2.37.63,2.55-.63,3.23-1.31.85-.86,1.44-1.77,2.22-2.65.28-.31.74-.86,1.38-.7,1.89.48,2.17-.5,2.63-1.09a34.23,34.23,0,0,0,3.79-6.45,2.07,2.07,0,0,1,2-1.41c2.09-.06,2.43-1,3.07-1.68,1.73-1.89,3.16-3.79,6.48-5.24,1.36-.59,2.29-1.43,4.15-1.79,1.49-.28,2-1.39,3.49-2,1.13-.43,2.35,0,3.29-.7a4.83,4.83,0,0,1,4.09-.82,2.16,2.16,0,0,0,1.85-.5c.46-.28.8-.73,1.52-.68a3,3,0,0,0,3.16-1.47,3.42,3.42,0,0,1,2.12-1.49,4.17,4.17,0,0,0,2.57-1.44,9.81,9.81,0,0,0,2.68-3.48c.45-1.25,1.52-2.28,3.64-3.15,1-.43,2.45-.65,3.14-1.3,1.26-1.2,4.31-1.75,4.57-3.31,0-.11.61-.34.91-.35a5.37,5.37,0,0,0,4.23-1.91,5,5,0,0,1,2.46-1.55c2.87-.48,3.58-1.82,5-2.89.9-.68,2.36-1.69,3.46-1.5,1.88.31,2.42-.39,3.69-.76a16.54,16.54,0,0,0,5.51-2.85c.87-.6,2.09-.39,3.13-.26a8.08,8.08,0,0,0,3.25,0c4.34-1.32,8.71-2.61,13-4,2.69-.89,4.27-1,6.37,0a5.85,5.85,0,0,0,1.65.43c2.11.26,4.3.44,6.38.76,1.72.26,3.29.64,4.31-.72.24-.31.95-.36,1.5-.33,2.54.16,4.79,1.08,7.67.38.3-.07.82.23,1.25.21,1.58,0,3.21.75,4.51.2,2.46-1,5.52-1.67,7.23-3.24,2.42-2.22,4.13-4.69,8.11-6.41.95-.4.76-1,.84-1.52.76-5.1,9.25-9.68,19.13-10.11a23.36,23.36,0,0,0,5.17-.82c4.86-1.3,9.84-2.6,15.1-.72,1.23.44,2.14-.07,3.09-.39a92.17,92.17,0,0,1,14-4.09,4.44,4.44,0,0,0,2.43-1c2.62-3.2,10.4-3.22,14-5.89a13.15,13.15,0,0,0,1.58-1.11c6.59,1.72,13.52,4.36,16.38,6.5a8.79,8.79,0,0,0,4.41,1.68,30.83,30.83,0,0,1,13.4,4.69,10.57,10.57,0,0,0,4.37,1.39c5.8.9,11.58,1.88,17.38,2.82a17,17,0,0,1,4.88,1.51c3.79,1.94,8.17,3.36,12.24,5.07,1.46.61,2.82,1.26,4.53.43a3.63,3.63,0,0,1,1.84-.07c3.56.49,7.41-.06,10.72,1.5a7.83,7.83,0,0,0,2.18.25c3.48.29,7,.67,10.45.88a30.77,30.77,0,0,1,8.73,2.11,24,24,0,0,0,2.4.52c1.44.36,2.75-.57,3.72-.13a15.48,15.48,0,0,0,3.47.87,11.8,11.8,0,0,0,5.62-.43,2.44,2.44,0,0,1,2.5.5,12.07,12.07,0,0,0,6.16,2.26c1.76.14,2.85.85,3.15,1.72s.83,1.14,2,1.21a4.77,4.77,0,0,1,2.76,1.29c1.9,1.23,2.88,2.94,5.69,3.73.89.25.64.76.58,1.17a16.51,16.51,0,0,1-.42,2.73c-.34,1.06.46,1.89,2,2.4s2.46,1.13,2.79,2.19a2.6,2.6,0,0,0,2.45,1.64c4,.11,4.91,2,5.61,3.6.58,1.39,2.14,2.47,3,3.74,1.15,1.63,6,3.22,9.34,2.6.59-.11,1.29-.29,1.71,0,2.08,1.41,3.72.5,5.16,0s3.32-.84,4.09-2c.53-.79,2.38-.37,2.94,0a4.87,4.87,0,0,0,4.58.64c1.88-.49,4.06-.19,6.05-.3a24.3,24.3,0,0,0,9.16-2.16c2.31-1.07,4.81-.42,7.18.35a18.84,18.84,0,0,1,3.18,1.3c3,1.71,6.45,1.82,9.72,2.55,2.06.46,4.09.77,5.2,2.21a1.7,1.7,0,0,0,.92.55c2.62.35,3.54,1.77,4.81,2.92a21.2,21.2,0,0,0,4.63,3.44,9,9,0,0,0,4.59,1.13c1.09-.06,2.34.19,3.17,0,2.25-.39,3.49.71,4.86,1.53a3.65,3.65,0,0,0,2.13.73c5.63-.08,10.31,1.9,13.32,5.31,2.4,2.72,5.37,5.32,7.24,8.17a16.32,16.32,0,0,0,5.17,5.27,7.18,7.18,0,0,1,2.8,3.27c1.47,3.43,4.62,6.48,7.66,9.59,1.92,2,3.34,4,5.53,6,1.24,1.07,1.48,2.4,1.95,3.62a3.62,3.62,0,0,0,2.42,2c2.67,1.07,5.25,2.44,6.23,4.46,1.32,2.75,5.11,3.24,8,4.57a2.61,2.61,0,0,0,.86.07c.82,0,1.48-.63,2.36-.11a7.61,7.61,0,0,1,2.61,2.44,27.89,27.89,0,0,1,3.43,7.39c.21.71.51,1.43.7,2.14.62,2.24,2.56,4.22,4.89,6a7.5,7.5,0,0,1,2.42,3.13c.76,1.76,0,3.84,1.89,5.27a1.71,1.71,0,0,0,1.13.36,20,20,0,0,0,3.23-.87c2.14-.67,4.57-1,6.58-1.86,1.85-.78,4.32-.16,6.61,0a30.92,30.92,0,0,0,9.67-1.43,34.86,34.86,0,0,0,8.89-3.37,10.17,10.17,0,0,1,3.21-1,96.74,96.74,0,0,0,13-3.16,10.39,10.39,0,0,1,3.19-1c4.75-.18,8.71-1.57,14.22-.67,6,1,10.64-.6,15-2.28,3.23-1.24,6.24-2.49,11.12-2.05,4.23.38,8.23-.36,12.42-.46,2-.05,3.86-.41,5.92-.32h.31l0,0a5.91,5.91,0,0,0,4.28,2.62,1.82,1.82,0,0,1,1.48.85,10.13,10.13,0,0,1,.85,1.52,1.9,1.9,0,0,0,1.24,1c1.49.61,2.94,1.3,3.61,2.52a1.16,1.16,0,0,0,.37.36c3.43,2.06,4.24,4.67,5.88,7.11a10.69,10.69,0,0,0,.85,1c.25.29.68.61.73.86.38,2.27,3.19,4.09,4.82,6.12a9.24,9.24,0,0,1,1.87,3.31A3.82,3.82,0,0,0,2990,1522c3.64,1.82,6.48,4.34,9.67,6.55,1.72,1.2,3.8,2,5.43,3.24.23.19.55.31.78.49,2,1.56,3.71,2.13,5.81,1.79a42.85,42.85,0,0,0,5.55-.83c1.23-.38,3.2.07,4.89.36a17.74,17.74,0,0,1,5.27,1.25,13.68,13.68,0,0,1,5.3,4.57A23.36,23.36,0,0,0,3041,1547a9.53,9.53,0,0,0,3.81,1.18,8.11,8.11,0,0,1,3.13,1.17c2.15,1.12,3.62,2.87,5.93,3.81,1,.41,1.82,1.31,3,1.84a15.23,15.23,0,0,0,7,1.44,17.69,17.69,0,0,1,4.08.54,2.25,2.25,0,0,1,1.17.54,4.42,4.42,0,0,0,3.57,1.21c2.32,0,4.57-.11,7,.13a17.76,17.76,0,0,1,7.58,2.27,10.67,10.67,0,0,0,2.88,1.4,3.36,3.36,0,0,1,1.89,1.4c1,1.59,1.61,2.22,2.62,3.8a8.08,8.08,0,0,0,2.16.48c1.25-.48,3.07.12,4.52,0,2.86-.26,5.89,1.18,9,2.52,2.14.93,2.76,2.28,3.85,3.6.7.84,1.54,1.74,2.17,2.54,1.61,2.07,4,3,6.05,4.53.35.26.87.54,1,.82.81,1.49,2.57,2.21,3.91,3.28s2.52,2.35,3.93,3.43c.18.14.4.38.41.52.11,1.54,1.68,2.75,3.19,3.7,3.88,2.45,7,5.59,10.53,8.29,6,4.57,9.9,10,13.79,15.36a13.51,13.51,0,0,0,1.81,2.18,11,11,0,0,1,3.34,4.88c.35,1.29,1.34,2.11,2.81,3a73.08,73.08,0,0,0,8.27,3.92,17.54,17.54,0,0,1,8,6.37c1.83,2.71,2.74,5.38,4.51,8.06,1.07,1.63,1.09,1.74,2.72,1.76a3.92,3.92,0,0,1,3.47,2,74.12,74.12,0,0,0,6.76,8.46c.13.13.34.29.36.4.41,2.16,2.79,3.49,4.37,5.15a4.29,4.29,0,0,1,1.37,1.92,4.21,4.21,0,0,0,1.51,2.27,2.29,2.29,0,0,1,.87,1.11l.58.48a1.72,1.72,0,0,1,1.25.54c1.71,1.41,3.7,2.3,5.36,3.8.68.62,1.46,1.27,2.29,1.15a.19.19,0,0,1,.15,0c1.86,1.52,2.92.67,4.05.48,3.12-.54,6.49.2,10.28,2.14,2.53,1.29,5.1,2.36,7.65,3.52a13.23,13.23,0,0,0,3.36,1,13,13,0,0,1,4.07,1,6.77,6.77,0,0,0,2,.37,15.37,15.37,0,0,1,5.5,1.66,10.07,10.07,0,0,0,4.8,1.55,5.7,5.7,0,0,1,2.13.37c3.2,1.12,6.4,2.38,9.59,3.59,1.58.6,3.14.8,4.76,1.38a5.11,5.11,0,0,1,2.82,2.29,21.9,21.9,0,0,0,3.5,4.08,14.47,14.47,0,0,1,4,7.16,20.15,20.15,0,0,1,.5,3,1.45,1.45,0,0,0,1.53,1.46c.76.06,1.62.4,2.26.09s1,.37,1.39,1c1.93,3.32,5.72,5.27,8,4.58.16-.05.29-.19.47-.13,3.08.87,5.45,0,8.54.87a2.51,2.51,0,0,1,1.23.45,9.82,9.82,0,0,0,7,2.23c1.55,0,2.89-1,5.18.7a2.29,2.29,0,0,0,1.19.22c.49,0,.79.18.87.82a1.32,1.32,0,0,0,1.29,1.19c1.27.12,2.78.85,3.8.27.38-.22,1.28.23,1.91.3.24,0,.5.11.74.15a4.53,4.53,0,0,1,0,1.68c-.35,1.85,1,3.95,3.17,5.37,4.42,2.94,7,7.47,9.91,11.38,3.74,5.09,6.23,10.73,8.44,16.22.37.9.61,1.9,1.78,2.26,2.14.66,2.52,2.37,3,4,1.08,3.47,2,6.92,3.18,10.41a74.89,74.89,0,0,1,3.39,15.9,62.46,62.46,0,0,0,2.3,11.72c1,3.43,1.4,6.66,2.44,10.11.53,1.74,1.52,3.33,2.08,5,1.91,5.66,2.62,10.89,2,15.53a5.35,5.35,0,0,0,1.94,5.29,2.57,2.57,0,0,1,1,2c-.33,3.19.19,7-2.14,8.69a1.82,1.82,0,0,0-1,1.36c-.52,4.26-1.65,8.15-.74,13.26.11.6-.19.76-.41,1a3,3,0,0,0-.6,2.33c.45,4.72,0,9-.1,13.4a5.1,5.1,0,0,0,1.14,3.55c1.17,1.36,6.74,2.72,7.73,2.11,1.72-1.07,2.91-3.13,6.17-1.16,1.78,1.09,3.75,1.57,5.43,2.67a57,57,0,0,0,5.6,3c3.63,1.88,6.75.56,10.74,4.09,1.47,1.3,1.69,1.63,1.23,2.67a8.76,8.76,0,0,0,.19,7.76,3.27,3.27,0,0,1-.06,3.05c-1.15,1.85-.73,4.8-.25,7.48.85,4.74.24,8.91,1.7,13.89a2.76,2.76,0,0,1,0,.86c-.05,8.74-1.89,16.2-3.93,23.5a12.27,12.27,0,0,0-.43,3.54c.06,4.74.8,9.8,1.1,14.67a32.54,32.54,0,0,1-2.85,15.72,8.43,8.43,0,0,0-.71,2.16q-1,6.51-2,13.08c-.46,3.19,1.84,8.57,4.5,10.91s4.82,2.35,7.33,2.68a86.28,86.28,0,0,1,8.72,1.63c2.38.56,4.71,1,6.74,4.74.32.59.72.88,1.09.78,2.34-.67,4.66,2.58,7,3.87a6.13,6.13,0,0,1,2.59,3.45c1.17,4.31,3.66,8.1,5,12.29a37.32,37.32,0,0,0,5.71,11.67,14,14,0,0,1,3.1,5.9,5.64,5.64,0,0,0,2.33,3.19c1.65,1.3,3.33,2.24,4.88,2.23a9.89,9.89,0,0,1,3.43,1.16c3.73,1.52,7.23,6,11,7.47,1.21.49,2.4.49,3.68,2.05,3.54,4.31,7.32,6.37,11.1,8.73,2.79,1.75,4-.3,6.51,4.44.62,1.17,2.73,2,3.34,2.33,1.77.9,2.6,2.81,3.93,4.27,2.34,2.56,3.57,4.37,6.53,4.58.06,0,.17.13.21.24,1.43,3.2,3.62,4.58,5.3,7.1,1.49,2.25,2.95,3.43,4.63,4,3.2,1,7.55,7.58,8.59,12.93a3.14,3.14,0,0,1,.16,1.09c-1.19,2.19.23,6.2-.49,8.76a7.35,7.35,0,0,0,.8,4.74,30.77,30.77,0,0,0,4,6.18,10.91,10.91,0,0,1,2.83,5.28,8.75,8.75,0,0,0,1.35,3.13c3,4.19,4.95,9.88,6.53,15.06s4.21,8.17,6.32,11.83c2.6,4.51,6.14,7.23,8.9,11.6,3.05,4.85,5.67,10.67,8.4,16.19a9.06,9.06,0,0,1,.49,2,194.12,194.12,0,0,0,5.67,20.1c2.81,9,7,16.43,10.32,24.92a22.27,22.27,0,0,1,1.78,8.72,48.17,48.17,0,0,0,2.78,15.92c2.23,6.21,2.91,12.83,3.35,19.52a15.35,15.35,0,0,1-1,6.72,23.78,23.78,0,0,0-1.13,5.4,83.4,83.4,0,0,0,1,26.83c.9,4.64,2.85,7.69,5.12,7.32,1.53-.25,3-.67,4.07,3.35a3,3,0,0,0,1.87,2.31c1.33.37,1.81,2,2.15,4.51.43,3.12.67,6.75,2.81,7.34.27.07.69.87.82,1.49,1.39,6.51,4.11,10.34,6.44,15,1.36,2.71,3,5.68,3.22,9.48.31,6.27,2,10.93,3.46,16,3,10.07,6.24,19.72,8.1,31.16a113.86,113.86,0,0,0,3.3,15c2.23,7.19,4.08,14.78,6.59,21.71,2.31,6.36,2.51,15.34,3.44,23.82v1.93Z"/></g></g></svg>