<svg xmlns="http://www.w3.org/2000/svg" viewBox="0 0 3508.84 3508.84"><title>mountain1</title><g id="Layer_2" data-name="Layer 2"><g id="Layer_1-2" data-name="Layer 1"><path d="M0,0V3508.84H3508.84V0ZM2754.91,1757.15c-14.86,1.92-15.64,14.75-20.5,23.06a145.17,145.17,0,0,1-12,17.94c-6.76,8.45-10.79,17.77-16.78,26.16a20.33,20.33,0,0,0-3,18.31c3,10.31-3.37,18.7-16.14,21.67a18.12,18.12,0,0,0-8.87,4.61c-7.4,7.06-13.94,14.39-21,21.29-.57.56-1.38,1.13-1.48,1.79-1.19,8-8.19,13.78-12.47,20.41-1.42,2.2-3.08,4.48-2.65,7,1,5.55-4.21,9.31-4.55,14.4-.12,1.73-2.67,2-4.73,1.3-9.9-3.21-19,0-29-2.45-4.51-1.08-8.88.35-12.47,1.85a16,16,0,0,1-10.53.85c-4.24-1-7.63-.53-9.06,2.1-1.2,2.22-4.06,3.55-6.08,5.27-6.42,5.48-9.49,12.37-15.8,17.61-1.34,1.11-2.61,2.25-4.09,3.27a21.48,21.48,0,0,0-7,8.51c-2.43,4.76-3.36,10.09-7.31,14.19a8.49,8.49,0,0,0-2.05,6,16.73,16.73,0,0,1-2.32,7.58c-2,3.78-2.82,4-10.14,1.75-4.49-1.39-8.86-3-13.5-3.32-5.31-.32-10.85-1.3-14,1.27-1,.85-3.47.81-5.79.53a11.34,11.34,0,0,0-6.3.73c-2.62,1.27-5.72.75-9.9-.37-7.07-1.88-13.35-1.41-19.35-1.12-2.44.12-4.46.58-7.42-.44-10.27-3.53-20.48-5.2-30.71-8.17-8-2.31-16-5.06-23.79-6.13a7.38,7.38,0,0,0-.74-.19c-11.42.47-25-7.46-36.73-8.25-3.06-.23-6.88-2-10.35-3.24-11.08-4-22.19-7.27-33.28-10.76-3-.94-5.33-1.27-7.24-.92-4.7.88-9.82,1.38-12.22,3.68-1.23,1.17-5,.64-7.85.64-6.59,0-13.78-.54-15.44,2.79-.12.22-.72.35-1.27.23-5.74-1.27-8.24.16-12.56,0-3.73-.14-4.14.79-1.17,3.4,3.86,3.38,5.64,6.5,8.91,9.85.39.41.9,1,.72,1.15-3.22,2.73,4,8.3,6.66,12.7.94,1.56,2.06,2.68-.72,2.67-5.79,0-4.61,6.72.77,13,1.74,2,3.79,4.11,5.47,6.15,3.38,4.07,6.33,8,7.28,11.69,1.32,5.11,3.47,10.59,2.05,14.64-.5,1.45,1.64,3.83,2.45,5.76,2.67,6.4,7.1,13.3,16,20.89,4.46,3.82,9.08,7.62,14,12.06a33.45,33.45,0,0,1-11.36-2.6c-13.86-5.26-23.83-5.87-34.11-6.7-8.36-.67-16.61-1.18-28-5.72-7.12-2.84-14.19-5.6-21.32-8.58-7.49-3.14-14.5-5.27-21.5-7.7-3.81-1.31-7.24-2.12-11.23-3.75-3.63-1.48-5.4-1-7-.54-1.77.57-3.13,1.67-2.6,3.79.41,1.59,2.72,4,4.2,6a44.27,44.27,0,0,0,9.9,10.41c4.33,3.26,6.85,6.76,10.21,10.11,6.47,6.43,14.24,13.17,18.31,19.66.41.65,1.47,1.65,1.44,2-.37,4.68,8.28,12.37,11.52,18.42,2.4,4.46,3.58,7.82-.35,8.13-.67.05-1.59,0-1.67.48-.86,5.5-7.88,5.91-9.55,10.7a8.87,8.87,0,0,0,0,3.25c.18,2.63,1.28,6-1.58,6.44-1.29.2-1,1.68-.32,3.36,1.56,4,4.57,8.44,8.57,13.07,7.23,8.35,12.23,16.19,15.14,23.64,1.73,4.42,5.09,9.27,8.62,14.12,2.11,2.89,3.51,5.32,3.72,7.51.29,2.88,1.43,6.12,4.6,10.16a7.67,7.67,0,0,1,1.36,2.31c1.66,6.63,7.89,14.51,12,21.9,2.21,4,4.6,7.91,3.93,10.71-.29,1.22.89,2.93,2.48,4.88,7.08,8.69,7.62,11.25,7.58,15.23a11.88,11.88,0,0,0,2,7.62c1.92,3.07,1.6,5,2,7.39,1.22,6.79,0,12.59,6,21.84,2.7,4.15,1.14,8.94-3,9.5-2.13.3-3.92.65-3.78,3.29.07,1.26-.7,1.71-1.87,1.7-4.66-.06-6.19,3.06-6,7.78.19,4.27-.9,7.37-3.85,8.63-3.4,1.45-4.07,5.56-5.46,8.85-2,4.79-6.61,6.53-9.53,10.19-3.64,4.56-10.17,5.28-14.81,8.45-2.63,1.79-3.56,5-3.68,9.13a252.14,252.14,0,0,1-1.66,26.19c-1.77,13.11-4.61,25.65-6.39,39.45-.79,6.09-3.45,10.24-8,12.22-2.58,1.11-4.51,3.38-6.41,5.55-5.61,6.46-10.84,13.28-13.4,23.71-1.54,6.27-4,11.85-6.42,17.44-.85,2-2.84,2.43-5.31,2-7.12-1.17-12.06,1.59-15,7.77-1.19,2.48-2.54,4.5-4.8,5.42-2.46,1-4.66,2.52-7.15,3.44-2.93,1.09-6.36,1.21-10.32-1.77-9.31-7-17.09-8-25.09-9.51-5.91-1.08-10.44-.21-13.48,4.68-1.65,2.66-1.77,6.87-2.64,10.37-.54,2.2,1.52,5.09,2.48,7.71,2.69,7.35,4.05,12.31,3.13,15.66a9.08,9.08,0,0,0,.12,4.52c1.77,5.62.07,7.25-2.29,8.7s-5,3-2.73,9.67a3.39,3.39,0,0,1-.62,3.36c-3.85,4.81-4.49,13-5.59,20.71a41.74,41.74,0,0,1-3.2,11c-.57,1.33-1.2,2.68-2.47,2.79-3.5.32-5.78,2.71-7.64,5.81a28.62,28.62,0,0,1-2.78-5.89c-3.47-3.78-6.55-10.6-10.28-12.19-2.14-.91-5-4.27-5,1,0,1.18-1.47,1.91-2.84-1.6-.77-2-1.76-2.74-2.66-3.95-1.1-1.48-2.54-2.54-3.28-4.21-2-4.48-4.4-6.32-6.58-9.39-1.15-1.62-1.92-1.86-1.86.14.05,1.67-.43,1.28-1.26.12-.66-.93-1.5-2.4-2-2.52-3.41-.86-6-7.57-8.67-11.73-3.94-6.18-7.45-11.35-11.18-12-.69-.12-1.27-1.17-1.91-1.89-4.87-5.5-9.06-14.57-13.83-20.13a11.38,11.38,0,0,1-.81-1.67c-3.93-8.16-9.39-12.3-11.45-7.2-.4,1-.94,1.71-1.91-.61-1.1-2.63-2.36-3.85-3.54-5.71-1.43-2.24-2.07-2.23-2,.48s.23,5.47.09,7.91c-.32,5.83-1.16,10.89-4.23,11.81a6.15,6.15,0,0,0-4.34,3.61c-.81,1.83-2,1.62-3.73-.19-2.32-2.41-4.62-5.87-6.83-8.09-4.48-4.51-8.91-8.84-13.3-13.58a21,21,0,0,1-3-4.35c-2.17-4.05-4.54-6.32-6.53-7.53-2.62-1.59-5-5.33-7.38-8.9-.89-1.33-1.83-3.26-2.68-3.93-1.91-1.51-3.64-4.72-5.41-7.43a27.17,27.17,0,0,0-4.37-5.49c-3.22-2.81-6.43-5.93-9.53-8.21-4.65-3.4-8.87-9.55-12.92-19.27-1.48-3.54-3-9-5-8.76,0,0-.13-.18-.19-.31-1.06-2.53-1.91-2.35-2.67-2-1.81.75-4.1-1.26-6-1-.73.1-2.24.14-3,.26-.93.16-1.42,1.65-1.52,3.78s-.76,2.35-1.41,3c-1.7,1.59-4.36.1-4.65,6.33,0,.31-.23.36-.38.48-2.87,2.43-5,7.28-7.27,11.78-1.15,2.28-2.15,1.9-3.88-1.78-1.84-3.94-1.85-3.61-3-.69-1.9,4.78-2.89,11.69-4.93,16.56-2.34,5.58-5.55,5.55-8.89,2.67-3.1-2.67-6.06-5.24-9-6.3-1.6-.56-2.68-.05-3.15,3.61-.64,4.9-2.07,7.63-3.92,9.1a9.76,9.76,0,0,0-2.11,3.36c-4.6,9.77-9.44,19.64-16.31,22-4.05,1.37-7.76,5.44-12.09,5.35-1.68,0-3.48.73-4,6a1.2,1.2,0,0,1-.53.91c-1.64.67-3.08,2.58-4.68,3.43s-3.42-.54-4.64,3.05c-.22.66-.78.5-1.2.65-2.34.86-4.88-1.06-7,2.88-.84,1.53-1.92,2.91-2.86,4.44-1.45,2.36-2.51,5.91-4.79,4.6-3.27-1.9-6.52-3.3-8.91-10.5-1.21-3.65-3-5.42-3.89-9.9-.11-.57-.34-.56-.46-.27-1.52,3.61-3.85,2-5.41,5.63-.6,1.36-1.45,2.07-2.21,1.07-1-1.33-2-1.05-3-1-2.82.08-5.19-3.51-7.28-7.81s-3.77-9.53-5.61-14.31c-.94-2.47-1.88-5-3.38-3-.4.54-.81.08-1.18-.46a25.52,25.52,0,0,1-3.39-6.54c-1.66-4.94-3.52-8.18-6-9.15-1.15-.44-2.22,1.29-3.2.73-2.2-1.27-4.27,2.25-6.48,2.09a2.74,2.74,0,0,1-2.92-2c-1-2.37-2.11-3.17-3.39-3.29-4-.38-7.32,5.4-10.68,12-2.09,4.1-4.21,7.11-6.75,6.75-1.9-.28-3.07-3.4-4.43-5.66s-3-4.36-3.49-8.21c-.73-5.35-2-9.26-3-13.93-1.07-5.36-2.52-6.46-5-4.4-.28.24-.58.08-.86.33-2,1.77-3.86.69-5.86,2-3.71,2.4-7.5,6.65-11.23,6.81-1.43.06-2.52,2.06-3.57,5.52a41.91,41.91,0,0,1-4,9.22c-2.77,4.78-6.11,6.57-8.43,14.58a6.9,6.9,0,0,1-1.24,2,23.22,23.22,0,0,0-1.44,2.23c-3.26,6.38-6.24,14.9-10.35,16.63a1.4,1.4,0,0,0-.57.7c-1.61,3.46-3.19,3.53-4.7,3.18-.69-.17-1.18.24-1.79,1.77a45.75,45.75,0,0,1-2.06,4.32c-.64,1.22-1.24,1.73-1.77.65-1.5-3.08-3.34-.55-5.3,2.49s-3.74,8.92-6.08,7.12c-.08-.06-.27.16-.4.36-1.1,1.74-1.82.8-2.5-.09-1.18-1.52-2.36-.46-3.83,2.68-1.74,3.74-3.74,8.19-5.77,7.93-2.94-.38-6.15.88-9-.15-1.33-.48-3.27,2.55-4.39.39-.05-.09-.27.22-.41.35a87.12,87.12,0,0,0-14.41,17.5c-4.2,6.5-8.31,14.26-13.06,17.4-1.38.91-2.66,2.89-4,4.63-4.52,5.9-9.06,12.39-13.9,16.21-1.94,1.53-3.88,2.83-5.82,4.27-3.52,2.59-6,1.61-7.6-2.77-1.52-4.08-3.74-5.93-7.44-2.42-1.55,1.47-3,1.78-4.24,1.27s-2.57.26-4,2.29a20.15,20.15,0,0,1-6.48,5.9,37.6,37.6,0,0,0-7.27,4.86c-2.56,2.3-4.85,3.65-7,3-1.64-.47-3.43,1.25-5.11,4.76s-3.47,5.62-5.33,6.79c-4.16-6.42-8.88-12-12.85-18.43-2.15-3.5-4.3-7.68-7.82-8.2-6.8-1-9-7.87-11.07-15-2-6.69-3.33-14-7.71-18a3.5,3.5,0,0,1-1-3.72c1.58-5.34-.68-6.77-3-7.87-3.1-1.5-5.76-3.13-4.09-9.7a4.93,4.93,0,0,0-.43-3.56c-3.08-3.64-.91-8.66,1.32-13.91,1.1-2.58,2.76-5.48,2-7.94-1.75-5.82-3.91-10.87-8.29-13.27-3.33-1.82-7.28-.68-11.11-.22-6.53.78-13.18,1.76-20.37,6.66-8.66,6-22.18,4.48-26.12-3.43-3-6-8.38-7.82-13.87-8.61-4.21-.61-7.89-.17-10.43-4.87a142.17,142.17,0,0,1-6.71-13.13c-3.84-9.4-9.48-16-15.74-21.91-3.1-2.91-6.27-5.87-10.34-7.4-3.46-1.3-5.59-4.67-6.61-8.67-3.49-13.69-7.93-26.17-11.34-39.22-2.21-8.42-3.53-17.36-4.92-26.11-.61-3.84-1.86-6.78-4.66-8.37-5.52-3.15-12.43-4.35-16.86-9.15-2.46-2.67-6.44-3.51-8.34-6.82-2.7-4.7-5-9.69-9.54-12.37-1.39-.82-2.88-1.79-2.64-4.06,1.09-10.13-8-9.72-11.21-15.41-.82-1.48-4-.47-5.06-2.3-2-3.36-4.58-6.11-5.93-10.08a10.36,10.36,0,0,0-3.84-4.73c-2-1.55-7.31.18-5.63-5.29.1-.32-.52-.61-1-.58-3.8.23-4.38-2.88-5.42-5.44-.6-1.45-1.08-3-2.54-3.56-7.38-2.62-13.46-7.32-24.88-4.08-6,1.71-10.28.29-14.11-1.42-3.58-1.6-10.74-.06-8.76-7.42.1-.39-.43-.8-.87-.79-5,0-3.3-3.31-.22-7.42a5.92,5.92,0,0,0,1.32-2.82c-.15-5.88,3-12.86,4-19.08.85-5.2,2-10.8,7.71-17.31,4.29-5,6.8-10.86,5.42-14.56-1.59-4.26-4-8.24-8.65-9.75s-5.76-5.46-7.85-8.84c-2.34-3.77,0-9.94-1.33-14.12-1.33-4-.64-8.87.87-14.11.9-3.16.39-5.7-1.21-7.67-2.81-3.46-5.21-7.25-7.71-11-.71-1.06-1.9-2-1.21-3.71,1.56-3.95.08-6.2-1.89-8-3.6-3.36-3.9-7.19,3.86-14.05,4.9-4.33,4.24-6.58-.35-7.13-4-.48-4-1.47.82-4.45a89.76,89.76,0,0,0,16.13-12.85,93.24,93.24,0,0,1,10-8.13c9.06-6.69,16.56-14,24-21.23a46.62,46.62,0,0,0,12.46-20,18.33,18.33,0,0,0,1.15-8.18c-.79-7-.25-14.57,6.3-23.81,1.58-2.22,3.66-4.46,5-6.66,4.27-7.07,7.72-13.4-2-14.15-1.25-.1-.43-.8.07-1.52,2-2.87,3-5.58,5.81-8.53,1.17-1.23,1.45-2.26,1.11-3.08-1.83-4.4,7.18-10.61,9.42-15.67.58-1.32.37-2.64-1.22-2.87-4.41-.63-8.64-1.3-15,.2-.23,0-.38-.5-.26-.85.63-1.78-1.72-1.7-3.41-1.94-4.47-.64-8.61-1.62-14.2-1.38s-6.19-3.28-10.76-3.91c-3.76-.52-5.94-2.77-12.54-.33-9,3.33-18,5.4-27.09,9.07-7.62,3.09-15.29,4.45-23.05,6.09s-15.52,4.61-23.81,5.84c-15.84,2.32-32.38,8.32-48.66,12.7-3.32.88-6.49,1.92-8.83.56a6.2,6.2,0,0,0-3.63-.23c-6.18.76-11.71-1.08-18.6,2.33-5.17-1.84-12.35-1.28-17.28-3.32a20.91,20.91,0,0,0-8.76-1.33c-5.63.07-11,1.58-16.51,3.65-4.56,1.72-7.52,1.52-8.7-1.86-2.54-7.33-4.24-15.05-8.6-21.76-3.16-4.88-3.56-10.9-8.37-15.18-2-1.74-4.34-3.16-6.09-5.09-7.21-7.95-12.58-17.08-21.2-24.74-1.66-1.48-3.44-2.94-6.05-2.16-5.9,1.77-10,.22-14.18-1.68-2.28-1-5.2-2-7.83-1.31-9.29,2.32-18.1-.76-27.37,2-2.42.72-5.09.93-5.52-1.55-.9-5.32-5.38-9.61-4.73-15.51.21-1.94-1-3.93-2-5.73-4.1-7.37-11.17-13.63-12.51-22.4-.08-.52-.66-1-1.07-1.41-6.95-7.51-13.89-15.22-20.6-23.26-1.83-2.19-4.28-3.25-7.29-4.07-12.47-3.36-18.2-12.16-15.51-23.66a20.18,20.18,0,0,0,.38-7.93c-1.81-12-9.72-21.76-16-32.2-9.69-16.15-20.33-32.47-23.59-52.07-5.28,0-12.62-1.94-15.25.56a3.07,3.07,0,0,0-.58.76v-2H750.44c.18-.9.43-1.78,3.49-1.77,14.86-1.92,15.64-14.74,20.5-23.06a145.06,145.06,0,0,1,12-17.93c6.75-8.45,10.79-17.77,16.78-26.16a20.37,20.37,0,0,0,3-18.31c-3-10.32,3.37-18.7,16.14-21.68a18.07,18.07,0,0,0,8.87-4.6c7.4-7.06,13.94-14.39,20.95-21.3.57-.56,1.38-1.12,1.48-1.78,1.19-8,8.19-13.78,12.46-20.41,1.42-2.21,3.09-4.49,2.66-7-1-5.54,4.2-9.31,4.55-14.39.11-1.73,2.66-2,4.73-1.3,9.9,3.21,19,0,29,2.45,4.5,1.08,8.88-.36,12.47-1.86a16.1,16.1,0,0,1,10.53-.84c4.24,1,7.62.53,9-2.11,1.21-2.21,4.07-3.54,6.09-5.26,6.42-5.48,9.48-12.37,15.8-17.61,1.33-1.12,2.61-2.25,4.08-3.27a21.58,21.58,0,0,0,7-8.51c2.43-4.77,3.36-10.09,7.31-14.19a8.45,8.45,0,0,0,2-6,16.89,16.89,0,0,1,2.32-7.59c2-3.77,2.83-4,10.15-1.74,4.49,1.39,8.86,3,13.5,3.32,5.31.32,10.85,1.3,14-1.27,1-.85,3.47-.82,5.79-.53a11.34,11.34,0,0,0,6.3-.74c2.62-1.26,5.71-.74,9.9.37,7.07,1.89,13.35,1.42,19.35,1.13,2.44-.13,4.45-.58,7.41.44,10.28,3.53,20.49,5.2,30.71,8.17,8,2.31,16,5,23.8,6.12a5.55,5.55,0,0,0,.74.2c11.41-.48,25,7.46,36.72,8.25,3.07.23,6.89,2,10.35,3.24,11.09,4,22.2,7.27,33.29,10.76,3,.94,5.33,1.27,7.23.91,4.7-.88,9.82-1.38,12.23-3.67,1.23-1.18,5-.64,7.85-.65,6.59,0,13.78.55,15.44-2.78.11-.22.72-.36,1.27-.23,5.73,1.27,8.23-.17,12.55,0,3.74.14,4.15-.79,1.18-3.4-3.86-3.38-5.64-6.5-8.91-9.85-.4-.41-.91-1-.72-1.15,3.22-2.74-4-8.31-6.67-12.7-.93-1.56-2.05-2.68.72-2.67,5.8,0,4.62-6.73-.76-13-1.74-2-3.79-4.11-5.48-6.15-3.38-4.08-6.32-8-7.27-11.69-1.33-5.11-3.47-10.59-2.06-14.64.51-1.46-1.63-3.84-2.44-5.76-2.67-6.4-7.11-13.31-16-20.89-4.46-3.82-9.07-7.62-14-12.06,3.51,0,7.42,1.11,11.35,2.6,13.86,5.26,23.84,5.86,34.12,6.7,8.36.67,16.61,1.18,28,5.72,7.12,2.84,14.19,5.59,21.31,8.58,7.5,3.14,14.5,5.26,21.51,7.69,3.8,1.32,7.24,2.13,11.22,3.75,3.64,1.49,5.41,1.06,7,.55,1.76-.58,3.13-1.67,2.59-3.79-.4-1.59-2.71-4-4.19-6.05a44.44,44.44,0,0,0-9.9-10.4c-4.33-3.26-6.85-6.77-10.21-10.11-6.47-6.44-14.25-13.18-18.32-19.66-.4-.65-1.46-1.66-1.43-2,.37-4.69-8.28-12.37-11.52-18.42-2.4-4.46-3.58-7.83.35-8.13.67-.05,1.59,0,1.67-.49.86-5.49,7.87-5.91,9.54-10.69a9.13,9.13,0,0,0,0-3.26c-.18-2.62-1.28-6,1.58-6.43,1.29-.2,1-1.68.32-3.36-1.56-4-4.57-8.45-8.58-13.07-7.22-8.35-12.22-16.2-15.13-23.65-1.73-4.41-5.1-9.26-8.63-14.11-2.1-2.89-3.5-5.32-3.72-7.51-.29-2.88-1.43-6.12-4.59-10.17a7.63,7.63,0,0,1-1.36-2.3c-1.67-6.63-7.89-14.51-12-21.9-2.22-4-4.6-7.91-3.93-10.72.29-1.22-.89-2.92-2.48-4.87-7.08-8.69-7.63-11.25-7.59-15.23a11.91,11.91,0,0,0-2-7.62c-1.93-3.07-1.6-5-2-7.39-1.22-6.79,0-12.59-6-21.84-2.7-4.15-1.14-9,3-9.51,2.13-.29,3.91-.64,3.78-3.28-.07-1.26.7-1.71,1.87-1.7,4.65.06,6.19-3.07,6-7.79-.18-4.27.9-7.37,3.86-8.63,3.39-1.44,4.07-5.56,5.46-8.84,2-4.79,6.6-6.53,9.52-10.19,3.65-4.56,10.18-5.29,14.82-8.45,2.63-1.79,3.55-5,3.67-9.13a254.93,254.93,0,0,1,1.66-26.19c1.77-13.11,4.61-25.65,6.4-39.45.79-6.09,3.45-10.24,8-12.22,2.59-1.12,4.52-3.38,6.42-5.56,5.61-6.45,10.84-13.27,13.4-23.7,1.54-6.27,4-11.86,6.41-17.44.86-2,2.84-2.43,5.31-2,7.13,1.17,12.06-1.59,15-7.77,1.18-2.48,2.54-4.51,4.8-5.43,2.45-1,4.66-2.51,7.15-3.44,2.93-1.08,6.36-1.21,10.32,1.78,9.3,7,17.09,8,25.09,9.5,5.9,1.09,10.44.21,13.47-4.67,1.66-2.66,1.78-6.88,2.64-10.37.55-2.2-1.51-5.09-2.47-7.71-2.69-7.35-4.06-12.31-3.14-15.66a8.86,8.86,0,0,0-.12-4.52c-1.77-5.62-.06-7.26,2.3-8.7s5-3,2.72-9.67a3.39,3.39,0,0,1,.63-3.36c3.84-4.81,4.49-13,5.59-20.72a42,42,0,0,1,3.19-10.95c.58-1.33,1.21-2.68,2.48-2.8,3.5-.31,5.78-2.7,7.64-5.81a28.57,28.57,0,0,1,2.77,5.89c3.48,3.79,6.56,10.61,10.29,12.2,2.13.91,5,4.27,5-1,0-1.18,1.47-1.91,2.83,1.6.78,2,1.77,2.74,2.67,3.95,1.1,1.48,2.54,2.54,3.28,4.21,2,4.48,4.4,6.32,6.58,9.39,1.15,1.62,1.92,1.86,1.86-.14,0-1.68.42-1.29,1.25-.12.66.93,1.51,2.39,2,2.52,3.41.86,6,7.57,8.68,11.72,3.93,6.19,7.45,11.35,11.18,12,.68.12,1.27,1.17,1.91,1.89,4.87,5.5,9.06,14.57,13.82,20.13a9.67,9.67,0,0,1,.81,1.67c3.93,8.15,9.4,12.3,11.46,7.2.4-1,.94-1.71,1.9.6,1.1,2.64,2.36,3.86,3.55,5.71,1.43,2.25,2.07,2.24,2-.47s-.22-5.47-.08-7.91c.32-5.83,1.15-10.89,4.23-11.82a6.15,6.15,0,0,0,4.34-3.61c.81-1.82,2-1.61,3.73.2,2.32,2.41,4.62,5.86,6.83,8.08,4.48,4.51,8.91,8.84,13.29,13.59a20.27,20.27,0,0,1,3,4.35c2.18,4,4.54,6.32,6.54,7.53,2.62,1.59,5,5.33,7.38,8.9.88,1.32,1.83,3.26,2.68,3.93,1.9,1.51,3.63,4.71,5.4,7.43a27.82,27.82,0,0,0,4.38,5.49c3.22,2.81,6.43,5.93,9.53,8.2,4.64,3.4,8.87,9.55,12.92,19.27,1.48,3.55,3,9.06,5,8.76,0,0,.13.18.18.31,1.07,2.54,1.92,2.36,2.67,2.05,1.82-.74,4.11,1.26,6,1,.74-.11,2.24-.14,3-.26.92-.16,1.42-1.65,1.52-3.78s.76-2.35,1.41-3c1.69-1.59,4.36-.1,4.64-6.33,0-.32.24-.36.38-.48,2.87-2.44,5-7.28,7.27-11.79,1.15-2.27,2.15-1.89,3.88,1.79,1.85,3.93,1.86,3.61,3,.69,1.91-4.78,2.9-11.7,4.94-16.56,2.34-5.58,5.55-5.55,8.89-2.67,3.09,2.67,6,5.24,9,6.29,1.61.57,2.69.06,3.16-3.6.63-4.9,2.06-7.63,3.92-9.11a9.7,9.7,0,0,0,2.1-3.35c4.61-9.78,9.45-19.65,16.32-22,4-1.37,7.76-5.45,12.09-5.35,1.68,0,3.48-.74,4-6.05a1.15,1.15,0,0,1,.53-.9c1.63-.67,3.07-2.58,4.67-3.44s3.43.55,4.64-3c.23-.65.79-.49,1.2-.65,2.35-.85,4.88,1.07,7.05-2.87.85-1.53,1.92-2.92,2.86-4.44,1.46-2.36,2.52-5.92,4.79-4.6,3.28,1.9,6.53,3.29,8.92,10.5,1.21,3.64,3,5.42,3.89,9.9.11.57.34.56.46.27,1.51-3.62,3.85-2,5.41-5.63.59-1.36,1.45-2.07,2.21-1.07,1,1.33,2,1,3,1,2.82-.08,5.19,3.51,7.29,7.8s3.77,9.53,5.6,14.32c1,2.46,1.89,5,3.39,3,.4-.53.81-.07,1.17.46a25.6,25.6,0,0,1,3.4,6.55c1.66,4.93,3.51,8.18,6,9.14,1.14.45,2.22-1.29,3.2-.72,2.2,1.27,4.27-2.26,6.48-2.1a2.76,2.76,0,0,1,2.92,2c1,2.36,2.11,3.16,3.39,3.29,4,.38,7.31-5.41,10.68-12,2.09-4.1,4.21-7.12,6.75-6.75,1.9.28,3.06,3.39,4.43,5.66s3,4.35,3.49,8.21c.73,5.34,2,9.25,2.94,13.92,1.08,5.36,2.53,6.47,5,4.41.28-.24.57-.09.85-.34,2-1.76,3.87-.69,5.87-2,3.7-2.41,7.5-6.65,11.23-6.82,1.43-.06,2.52-2,3.57-5.51a41.91,41.91,0,0,1,4-9.22c2.78-4.78,6.11-6.57,8.44-14.58a6.9,6.9,0,0,1,1.24-2,22.21,22.21,0,0,0,1.43-2.24c3.26-6.37,6.25-14.9,10.36-16.62a1.49,1.49,0,0,0,.57-.71c1.61-3.45,3.19-3.52,4.69-3.17.7.17,1.18-.24,1.8-1.78a46.74,46.74,0,0,1,2.05-4.31c.65-1.23,1.25-1.73,1.77-.65,1.51,3.08,3.35.54,5.31-2.49s3.74-8.93,6.07-7.13c.09.07.28-.15.4-.35,1.11-1.74,1.82-.8,2.51.09,1.18,1.52,2.36.45,3.82-2.69,1.75-3.74,3.74-8.19,5.78-7.92,2.94.38,6.14-.88,9,.15,1.32.47,3.26-2.55,4.39-.4,0,.1.27-.21.41-.34a87.12,87.12,0,0,0,14.41-17.5c4.2-6.5,8.31-14.27,13.06-17.4,1.38-.91,2.66-2.9,4-4.63,4.53-5.9,9.06-12.39,13.91-16.22,1.94-1.53,3.87-2.82,5.82-4.26,3.52-2.59,6-1.62,7.59,2.77,1.52,4.07,3.75,5.93,7.45,2.41,1.55-1.47,3-1.78,4.23-1.26s2.57-.27,4.06-2.29a20,20,0,0,1,6.48-5.9,37.52,37.52,0,0,0,7.27-4.87c2.56-2.29,4.84-3.64,7-3,1.63.47,3.42-1.25,5.11-4.77s3.46-5.61,5.33-6.78c4.16,6.42,8.88,12,12.84,18.42,2.15,3.51,4.31,7.69,7.82,8.21,6.81,1,9,7.87,11.08,15,2,6.69,3.33,14,7.7,18a3.51,3.51,0,0,1,1.05,3.73c-1.58,5.34.68,6.77,2.95,7.87,3.11,1.5,5.76,3.13,4.1,9.7a5,5,0,0,0,.42,3.55c3.08,3.65.92,8.67-1.31,13.92-1.1,2.58-2.76,5.48-2,7.94,1.75,5.82,3.9,10.87,8.29,13.27,3.33,1.82,7.28.68,11.1.22,6.54-.79,13.19-1.76,20.38-6.67,8.66-6,22.18-4.48,26.11,3.43,3,6,8.39,7.83,13.88,8.62,4.2.61,7.89.16,10.43,4.86a138.61,138.61,0,0,1,6.7,13.14c3.85,9.39,9.49,16,15.75,21.9,3.1,2.92,6.26,5.87,10.34,7.41,3.46,1.3,5.59,4.67,6.61,8.67,3.48,13.69,7.93,26.17,11.34,39.21,2.21,8.43,3.53,17.37,4.92,26.11.61,3.85,1.85,6.79,4.65,8.38,5.52,3.14,12.44,4.34,16.87,9.15,2.45,2.67,6.43,3.51,8.33,6.82,2.7,4.7,5,9.69,9.55,12.36,1.39.83,2.87,1.8,2.64,4.07-1.09,10.13,8,9.72,11.2,15.41.83,1.47,4,.47,5.07,2.3,2,3.36,4.58,6.11,5.92,10.07a10.42,10.42,0,0,0,3.85,4.74c2,1.55,7.31-.19,5.63,5.28-.1.33.52.62,1,.59,3.79-.24,4.38,2.88,5.42,5.44.59,1.44,1.08,3,2.54,3.56,7.38,2.62,13.45,7.32,24.88,4.07,6-1.7,10.28-.28,14.1,1.43,3.59,1.6,10.75.06,8.77,7.42-.1.38.42.79.87.79,5,0,3.3,3.31.22,7.42a5.9,5.9,0,0,0-1.32,2.81c.14,5.89-3,12.87-4,19.09-.85,5.2-2.06,10.79-7.71,17.31-4.3,5-6.8,10.85-5.42,14.56,1.58,4.26,4.05,8.23,8.65,9.75s5.75,5.46,7.85,8.84c2.33,3.77-.05,9.94,1.33,14.11,1.33,4,.63,8.88-.87,14.12-.91,3.16-.39,5.69,1.21,7.66,2.81,3.47,5.21,7.26,7.71,11,.71,1.06,1.89,2,1.21,3.71-1.56,4-.08,6.2,1.89,8,3.6,3.36,3.9,7.19-3.87,14-4.89,4.34-4.23,6.59.36,7.14,4,.48,4,1.47-.83,4.44a90.51,90.51,0,0,0-16.13,12.86,92.07,92.07,0,0,1-10,8.12c-9.06,6.69-16.57,14-24.06,21.24a46.62,46.62,0,0,0-12.45,20,18.17,18.17,0,0,0-1.15,8.18c.79,7,.24,14.57-6.31,23.81-1.57,2.22-3.66,4.45-5,6.66-4.26,7.06-7.72,13.4,2,14.14,1.25.1.43.8-.08,1.52-2,2.88-3,5.59-5.81,8.54-1.17,1.22-1.44,2.26-1.1,3.07,1.83,4.41-7.18,10.61-9.42,15.68-.58,1.32-.38,2.64,1.21,2.87,4.42.63,8.64,1.3,15-.21.22,0,.38.51.25.85-.63,1.79,1.73,1.71,3.42,1.95,4.47.64,8.61,1.61,14.19,1.38s6.2,3.27,10.77,3.9c3.76.52,5.94,2.78,12.54.34,9-3.34,18-5.41,27.09-9.07,7.61-3.1,15.29-4.45,23.05-6.09s15.52-4.61,23.81-5.84c15.84-2.32,32.38-8.32,48.66-12.7,3.31-.88,6.49-1.92,8.83-.57a6.1,6.1,0,0,0,3.63.23c6.17-.76,11.71,1.09,18.6-2.32,5.17,1.84,12.35,1.27,17.28,3.32a20.88,20.88,0,0,0,8.76,1.33c5.63-.07,11-1.59,16.5-3.65,4.56-1.72,7.52-1.52,8.71,1.86,2.54,7.32,4.23,15,8.6,21.76,3.16,4.87,3.55,10.9,8.37,15.18,1.95,1.73,4.33,3.15,6.09,5.09,7.21,8,12.58,17.08,21.2,24.74,1.66,1.47,3.44,2.94,6.05,2.16,5.89-1.77,10-.23,14.17,1.67,2.28,1,5.21,2,7.84,1.31,9.29-2.31,18.1.77,27.37-2,2.42-.73,5.09-.94,5.51,1.55.91,5.32,5.39,9.61,4.74,15.51-.21,1.93,1,3.93,2,5.73,4.1,7.37,11.17,13.63,12.51,22.4.08.52.66,1,1.07,1.4,6.95,7.51,13.89,15.22,20.6,23.27,1.82,2.19,4.27,3.25,7.29,4.07,12.46,3.36,18.2,12.15,15.51,23.66a20.38,20.38,0,0,0-.39,7.93c1.82,12,9.73,21.76,16,32.19,9.7,16.16,20.33,32.48,23.6,52.08,5.28,0,12.61,1.94,15.25-.56a3.46,3.46,0,0,0,.58-.77v2h11.4C2758.21,1756.29,2758,1757.17,2754.91,1757.15Z"/></g></g></svg>