<svg xmlns="http://www.w3.org/2000/svg" viewBox="0 0 5580.32 5580.32"><title>oldu galiba</title><g id="Layer_2" data-name="Layer 2"><g id="Layer_1-2" data-name="Layer 1"><path d="M0,0V5580.32H5580.32V0ZM4017.81,2791.2c-.42,6.91-2,12.63-3.08,18.87-.47,2.7-.71,5.65-1.25,8.24-1,4.83-2.14,9.55-2.94,14.58-.64,4.05-1.45,7.08-3.36,7.39-.31,0-.64.54-.92,1a9,9,0,0,0-1,4.86c0,6.88.47,5.77-2.06,8.76a13.7,13.7,0,0,0-1,1.29,5.26,5.26,0,0,0-1,2.63c-.21,2.83-.25,5.72-1.23,8a3,3,0,0,0-.06,1.26c1.14,2.72.19,5.57-.2,8.42a10.69,10.69,0,0,0,0,2.59c.46,4.57-.75,8.51-1.41,12.61a7,7,0,0,1-.94,2.4c-1.66,2.71-2.11,6.47-2.2,10.54-.08,3.38-.4,6.34-1.71,8.94a36.46,36.46,0,0,0-3.93,10.55c-.45,2.43-1.11,3.42-2.14,3s-2.15-1.32-2.92,2.2a.66.66,0,0,1-.29.44c-.85.26-1.57,1.79-2.43,2-.65.15-1,1.18-1.38,2.46a37.37,37.37,0,0,0-1.18,13c.42,5.52-1.17,9.05-2.61,12.73a17.21,17.21,0,0,0-1.19,8.9,2.94,2.94,0,0,1-.41,2.53,8.94,8.94,0,0,0-.91,1.34c-2.19,4.17-3.17,6.42-5.85,6.46-.69,0-2.5,3.3-2.61,5.31a8.18,8.18,0,0,1-1.66,4.69c-.49.48-.61,0-1.15.3a1.32,1.32,0,0,0-.67,1.14,4.25,4.25,0,0,1-.52,1.75,9.55,9.55,0,0,0-1.22,2.37c-.39,1-.85,1.85-1.19,2.91-.62,2-.33,2.36-1.18,3.2-2.11,2.1-3.92,5.26-5.76,8.36-.37.62-.8.68-1.16,1.76a7.07,7.07,0,0,0-.12,5.13c.28.75-1.91,9.52-2.47,10a11.53,11.53,0,0,0-1.65,2.89c-.78,1.47-.62,2.1,0,2.26,1.24.29,2,1.89,2.82,3.25.58.91.92,2.61,1.62,2.85,2.32.78,2.81,5.59,4.51,7.66a1.4,1.4,0,0,1,.15.75,27.14,27.14,0,0,0,.88,6.53,22.57,22.57,0,0,1-.06,7,46.67,46.67,0,0,0-.33,12.57,5.7,5.7,0,0,1-.5,3.31c-1.3,2.75-1.37,3.16-.46,5.35a7.49,7.49,0,0,1,.13,4.73c-.77,3.42-1.66,6.73-2.61,10.06s-2.58,6.17-3.33,9.72a3.62,3.62,0,0,1-.69,1.25,30.39,30.39,0,0,0-1.51,2.7c-1.19,2-1.21,4.69-2.14,6.75a7.33,7.33,0,0,0-.56,5.2,31.1,31.1,0,0,1,.67,9.5,8.27,8.27,0,0,0,.3,2.7c.37,1.52,1.06,2.61.88,4.86-.34,4.09-.8,8.22-1.14,12.25s-.86,8.32-1.24,12.44a19,19,0,0,1-1.72,6.59c-1,2.11-2.08,4.39-1.31,6.53a2,2,0,0,1-.08.84c-1.22,4.06-1.11,7.61-1.29,11.25-.38,7.24-2.34,13.87-6.35,19.47a18,18,0,0,0-3.26,8.34,14.23,14.23,0,0,1-4.47,8.91,8.34,8.34,0,0,0-2.68,5.38c-.39,2.82-.82,5.66-1.38,8.52-.33,1.68-1.16,3.58,0,4.06.09,0,.12.45.06.69-1,3.55-1.12,7.13-3.15,10.63a16.32,16.32,0,0,0-2.05,6.5,14.45,14.45,0,0,1-2.31,7.18,5.71,5.71,0,0,1-3.78,2.64c-2.87.5-5.07,4.06-7.31,7.66-.81,1.29-1.4,1.86-2.28,2-1.32.2-2.38-.65-3.91.41a3.92,3.92,0,0,1-2.15.54c-2.24.32-4.49.6-7,2.72-1.95,1.65-3.93,3.74-5.53,2.55a.22.22,0,0,0-.24,0c-2.17,1.36-3.67.25-5.47.26-2.08,0-4.19,1.05-6.38,4-.36.48-.58.46-.84.42-1.18-.16-2,.71-2.61,3a3.09,3.09,0,0,1-1.76,2.32,14.14,14.14,0,0,0-6.07,4.32,1.69,1.69,0,0,1-1,.73c-.53,0-1.06.57-1.53,1.23-2,2.73-4,4.9-6.5,5.5.86,1,.59,2.68,1.27,3.37,1.26,1.3,1.52,3.89,1.19,6.58s.49,4.14.72,6.2c.08.71.81.71.8,1.57,0,2.64.61,4.63.82,7,.09,1,.59,1.7-.1,3.26a1.66,1.66,0,0,0,0,1.26c.47.41.37.41.31,1.14-.09,1.08-1.27,2.14-1.06,2.77.55,1.63-.19,4.23.28,5.82.26.89-.05,1.25-.66,1.87-1.57,1.65-2.94,3.88-4.57,5.42-.12.12-.35.33-.36.4-.3,3.35-1,1.19-1.57,1.31l-.62.12a24.06,24.06,0,0,0-5.72,3,22,22,0,0,0-9.06,11c-.13.33-.37.72-.58.63-.75-.33-1.79.69-2.65.72a3.7,3.7,0,0,0-3.27,1.8c-1.65,2.49-3.83,3.89-5.27,6.76a4.14,4.14,0,0,1-2.32,2.21,7.83,7.83,0,0,0-3.81,3.54,9.86,9.86,0,0,1-2.31,2.6,22.7,22.7,0,0,0-5.11,5.86,6.92,6.92,0,0,1-1.63,2c-2.75,2-5,5.39-7.46,8.1s-4.31,4.41-6.57,4.8c-.47.07-.85.24-1.18,1.12a49.67,49.67,0,0,0-3.3,12.53,17.47,17.47,0,0,1-2.55,8.1c-1.45,2.34-.48,4-1.46,6.22-.07.15.15.29.16.49a2.41,2.41,0,0,1,0,1.1c-.88,2.37-1.22,4.89-2.94,7.07-2.26,2.86-2.53,5.61-3.62,8.42-.67,1.72.12,2.54-.35,4a84.29,84.29,0,0,0-2.22,9.55,4.74,4.74,0,0,0-.18,2.12c.84,2.39.67,5.42.06,8.75-.45,2.45.33,4.15-.37,6.83s-.11,4.72,1.1,6c1,1,1.19,2.74,1.17,4.57,0,1.23.08,2.19.85,2.59.36.19.7.44.29,1.18-1,1.92-1.52,3.87-2.91,5.78a12.23,12.23,0,0,0-2.37,6c-.23,2.76.77,4.7.2,7.7a.42.42,0,0,0,0,.28c.93,1.57.31,4.17.08,6.5-.36,3.75-1.17,7.74-1.16,11.28,0,1-.45,1.59-1.36,1.6a4.17,4.17,0,0,1-2.55-.56c-.84-.66-1.94-.33-3.29.56-2.14,1.41-4.17,2-6.26,3.13-4.44,2.4-8.8,4.3-13.2,6.3a1.82,1.82,0,0,1-1,.15,11.69,11.69,0,0,1-5.87-2.24c-1.41-.88-2.65-2.12-5.24-1.16a52.58,52.58,0,0,1-5.07,2,4.08,4.08,0,0,0-3.13,3.2,4.93,4.93,0,0,1-2.1,2.55c-1.26.68-2.5.53-3.71,2.34-2.23.25-1.48,1.13-1.15,1.94a2.28,2.28,0,0,1,.17.61,1.45,1.45,0,0,1-.48,1.4c-.53.54-1,.51-1.19.26-.64-.77-1.83-.67-2.87-.7-1.78-.05-3-1.08-5.34-.23a39.62,39.62,0,0,1-6.9,1.61,5.62,5.62,0,0,0-3.45,2.61c-.12.22-.19.46-.32.68-1,1.7-2,3.09-3.84,3.69a7,7,0,0,0-4.39,3.69c-.65,1.69-1.13,2.12-2.51,2.13a3.56,3.56,0,0,0-2.21.8,17.25,17.25,0,0,0-6.14,8.64c-.51,1.36-.62,2.65-1.18,4-.67,1.63-.71,2.81-.15,3.76a4.53,4.53,0,0,1,.34,1.18c.23,1-.17,1.55-1.46,1.88-.35.09-.68.1-1,.17a3.31,3.31,0,0,0-2.52,2.27c-1.32,2.84-1.11,4.88-.18,6.35s0,4.22.84,5.74a.38.38,0,0,1-.05.3c-.88,1.25-2.38,2.58-1.54,3.61-1.39,1-.63,1.28-.43,1.76.34.82-.15,1.81-1.14,2.86-1.19,1.25-1.45,2.21-.87,3a1.93,1.93,0,0,1,.51.9c.17,1.11,1.47,1.38,1.1,2.83a35.7,35.7,0,0,1-1.63,4.67c-1,2.36-1.72,4.63-1.52,6.56.2,2.09,1,3.73,1.29,5.82.56,4.68-1.11,8.8-7.14,13.33a91,91,0,0,0-8.44,6.55,15.22,15.22,0,0,1-4.53,3c-1.09.48-2.18.78-3.24,1.29a31.8,31.8,0,0,1-8.17,2.85c-3,.52-4.25,1.65-5.52,4.81a2.31,2.31,0,0,1-1,1.32c-2,.79-4.17,2.16-6,2.15a7,7,0,0,0-4.71,1.5c-1.76,1.4-2.83,1.26-3.85,1s-1.77.23-2.59,1.29a1.79,1.79,0,0,1-1.45.88c-3,.13-5.83,0-8.95.38-.48.06-1-.21-1.48.38-1.15,1.53-1.69.94-2.43.84s-1.48-.7-2.37.2c-1.17,1.18-2,1.07-3,1.38a18.44,18.44,0,0,1-5.13.56,6.49,6.49,0,0,0-5,2.84c-.27.34-.38.75-.83,1-2.79,1.55-5.61,3.42-8.28,3.47-.33,0-.75-.06-.94.5-.67,2-1.75,2.87-3.43,2.28-.11,0-.33.08-.47.07a38.31,38.31,0,0,1-5.9-.65,10.49,10.49,0,0,0-6.07.09,8.53,8.53,0,0,1-5.23-.19c-.4-.1-.66-.47-1.33,0s-.57.92-.64,1.36c-.25,1.47-2.32,3.67-4,4.2-.68.21-.62.57-.64.83-.09,1.66-.65,3.12-3.32,4.19-.35.14-1.31.49-1.61,1.11a1,1,0,0,1-1.2.65c-2.52-.5-5-1-7.47-1.63a9.5,9.5,0,0,1-1.8-.91c-1.21-.56-2.51.09-3.47,1.73-1.26,2.14-1.26,2.14-3.15,1.86-.27,0-.52-.11-.81-.13-1,0-2-.29-2.51,1.41a1,1,0,0,1-.66.58,1.67,1.67,0,0,0-1.31,1.61c.28,1.65-.9,3.78-.72,5.44a1.72,1.72,0,0,1-.8,1.75,1.65,1.65,0,0,0-1,1.51c-.34,1.85.09,3.66-2.74,5.73a4.74,4.74,0,0,0-2.29,3.53,1.27,1.27,0,0,1-1.43,1.13,1.69,1.69,0,0,0-2,1.53c-.14.79-.51,1-1.16.76l-.87-.25a1.32,1.32,0,0,0-1.74,1.05c-.21,1-.57,2-.69,3-.21,1.63,0,3.16-1.51,5.2-2,2.69-1.76,5.07-2.76,7.63-.25.65-.81,1.69-1.17,1.74-1.78.27-1.51,1.18-1.75,1.85-.3.84-.41,1.63-.66,2.46-.09.3-.22.81-.7.89-1.41.23-1.29,1-1.41,1.52a24.73,24.73,0,0,0-.49,5.52,1.48,1.48,0,0,1-.85,1.54,2.37,2.37,0,0,0-1.51,2,12.57,12.57,0,0,1-2.65,5.49,11.79,11.79,0,0,1-2.19,2.45c-.9.63-.88,1.53-1.69,2.36-.61.63-1.57.68-2,1.45a3.37,3.37,0,0,1-2.44,1.78,1.46,1.46,0,0,0-1.07.89c-.22.33-.3.73-.79.91a2.16,2.16,0,0,0-1.62,2,2.39,2.39,0,0,1-.92,1.64,2.92,2.92,0,0,0-1.23,1.74,7.19,7.19,0,0,0-.64,3.17,4.07,4.07,0,0,1-1.38,3.22c-.54.6-1.4,1.17-1.64,1.82-.44,1.19-2.27,2.47-1.93,3.61,0,.08-.29.41-.48.51a3.71,3.71,0,0,0-2.16,2.56,3.53,3.53,0,0,1-1.1,1.79c-1.74,1.19-1.76,2.3-2.35,3.46-.37.74-1,1.86-1.77,2.06-1.34.36-1.46,1-2.17,1.63a11.51,11.51,0,0,0-2.66,3.59,3.11,3.11,0,0,1-2,1.12,5.63,5.63,0,0,0-2.12,1c-2.4,2.2-4.83,4.4-7.11,6.64-1.46,1.43-2.45,2-4.16,2a4.25,4.25,0,0,0-1.21.22c-1.48.47-3,1-4.43,1.45-1.21.35-2.36.59-2.56,1.81,0,.28-.49.53-.87.68-1.7.68-3.49.76-5.12,2.12-.17.14-.61.1-.89.24-1,.52-2.34.5-3,1.26-1.24,1.46-3,2.84-3.58,4.42-.8,2.24-1.06,4.42-3,6.81-.47.56-.14.89,0,1.28,1.28,3.63-2.62,9.32-8.82,12.71a15.44,15.44,0,0,0-3,2.17c-2.67,2.39-5.4,4.82-9.45,5.24-.94.09-1.34.72-1.84,1.24a63.18,63.18,0,0,1-7.54,7.17,3,3,0,0,0-1.19,1.43c-.53,3-5.49,5.44-6.8,8.36a8.63,8.63,0,0,0-.6,1.23c-4.82,1-10.18,1.47-12.77,1a6.28,6.28,0,0,0-3.42.31,22.13,22.13,0,0,1-10.22,1.28,7.45,7.45,0,0,0-3.29.51c-4,1.3-8,2.56-12.06,3.85a12.13,12.13,0,0,1-3.65.63c-3.12,0-6.43.5-9.64.74-1.15.09-2.26.11-3,1.23a2.53,2.53,0,0,1-1.15.66c-2.43.87-4.66,2.52-7.33,2.6a5.65,5.65,0,0,0-1.47.58c-2.31,1-4.65,1.9-6.92,2.94a21.36,21.36,0,0,1-6.3,1.58,14.76,14.76,0,0,0-1.71.48c-1,.25-1.51,1.3-2.29,1.34a10.85,10.85,0,0,0-2.51.62,8,8,0,0,0-3.37,2.2,1.74,1.74,0,0,1-1.76.53,8.62,8.62,0,0,0-4.73.63,2.46,2.46,0,0,1-2.63,0c-.49-.42-1-.45-1.74-.08a3.55,3.55,0,0,1-2.23.12c-1.67-.15-2.94-.91-5-.46-.65.15-.69-.27-.82-.55a12.61,12.61,0,0,1-.79-1.91c-.2-.81-1-1.06-2.16-.87a2.83,2.83,0,0,1-2.6-.45,1.94,1.94,0,0,0-2.18-.2c-2.52,1.29-3.84.43-4.91-.38-.91-.69-2.31-.84-3.37-1.35-1.36-.65-5,0-6.87,1.6-.33.28-.7.64-1.08.6-1.86-.17-2.52,1-3.25,1.79s-1.74,1.71-1.77,2.72c0,.7-1.34,1.08-1.85,1a3.39,3.39,0,0,0-3.12,1.21,20.83,20.83,0,0,1-3.65,2.33,16.37,16.37,0,0,0-4.84,4.64c-1,1.51-2.82,2-4.6,2.34a13.13,13.13,0,0,1-2.49.31c-2.52,0-4.73,1.15-7,1.86-1.46.45-2.84,1-4.11.46a1.33,1.33,0,0,0-.79,0c-1.76.73-2.9.15-4.15-.12a15.8,15.8,0,0,0-4.26-.51,6.36,6.36,0,0,0-3.29.95c-.65.43-1.52.73-2,1.12-1.23,1.07-2.44.83-3.62.8a2.6,2.6,0,0,0-1.61.32,12.36,12.36,0,0,1-10.38,1.52c-2.59-.83-5.49-1.38-7.81-2.49a12.53,12.53,0,0,0-5.36-1.41,5.65,5.65,0,0,1-3.08-1c-2.32-1.62-5.53-2.36-8.7-3.18-2-.51-3.74-1.29-5.89-1.66a6.18,6.18,0,0,1-2.71-1.55,2.84,2.84,0,0,0-2.35-.37c-2.09.34-4.26.46-5.71-.44-2-1.22-4.51-.09-6.85.18a1.84,1.84,0,0,0-.56.28c-.51.31-.64,1-1.4,1a6.16,6.16,0,0,1-2.64-.52,22.83,22.83,0,0,1-5.24-3.31c-.43-.36-.92-.7-1.34-1.07a10.24,10.24,0,0,0-5.57-1.87,5.9,5.9,0,0,1-2.83-1c-1.22-.8-1.62-2.41-3.43-2.55a1.26,1.26,0,0,0-.84.21,14.19,14.19,0,0,0-1.61,1.79,48.43,48.43,0,0,0-3.24,3.72c-.8,1.2-2.58,1.77-4,2.6a21,21,0,0,0-5.29,4.67,23.24,23.24,0,0,0-3.95,5.57,6.64,6.64,0,0,1-1.53,1.86,64.21,64.21,0,0,0-6.48,7.07,6.93,6.93,0,0,1-1.49,1.88c-2.78,2-4.55,4.41-8.26,6-4.06,1.79-6.11,4.61-8,7.38A15,15,0,0,1,3052,3954c-2.67,1.46-4.73,3.52-7.16,5.28-1.16.84-2.1,1.81-3.35,2.59l-.19.12h0a4.33,4.33,0,0,0-3.68.14,1.34,1.34,0,0,1-1.25.08,7.2,7.2,0,0,1-1.18-.58,1.42,1.42,0,0,0-1.19-.13,5.06,5.06,0,0,1-3.25-.06.85.85,0,0,0-.37-.06c-2.94.14-4.58-1.11-6.63-1.92-.28-.11-.62-.16-.94-.25s-.67-.08-.81-.22c-1.24-1.22-3.71-1.16-5.57-1.72a7.27,7.27,0,0,1-2.59-1.24,3,3,0,0,0-2.5-.59,60.57,60.57,0,0,1-8.62.06c-1.55,0-3.11.4-4.64.31-.22,0-.46.05-.68,0a5,5,0,0,0-4.21,1.35,29.43,29.43,0,0,0-2.86,2.83,8.9,8.9,0,0,1-3,1.84,12.33,12.33,0,0,1-3.64,1.47,10.32,10.32,0,0,1-5.15-.49,17.6,17.6,0,0,0-8.33-1,6.89,6.89,0,0,0-2.74.92,5.69,5.69,0,0,1-2.35.65c-1.75.25-3.41-.16-5.17.28-.78.2-1.65,0-2.57.19a10.7,10.7,0,0,0-4.67,2.16,12.62,12.62,0,0,1-2.6,1.44,1.61,1.61,0,0,1-.92.19,3.12,3.12,0,0,0-2.6.83c-1.35,1-2.57,2.05-4.05,3a12.82,12.82,0,0,1-5.38,2,7.74,7.74,0,0,0-2.28.44,2.51,2.51,0,0,1-1.73,0c-1.32-.47-1.95-.59-3.25-1.07a6,6,0,0,0-1.46.66c-.48.83-1.8,1.28-2.56,2-1.49,1.41-3.88,1.91-6.24,2.48-1.64.41-2.62-.11-3.85-.39-.8-.18-1.69-.33-2.42-.52-1.88-.49-3.7,0-5.53.07a3.34,3.34,0,0,1-1,0c-1.16-.51-2.48-.13-3.74-.15s-2.52-.24-3.82-.23a.81.81,0,0,1-.48-.11c-.79-.84-2.24-.84-3.53-.71-3.33.34-6.54-.07-9.81,0-5.52.1-10.25-1.2-15-2.5a10.25,10.25,0,0,0-2-.42,8.25,8.25,0,0,1-4.19-1.23,3.82,3.82,0,0,0-3-.39,49.42,49.42,0,0,0-6.45,1.6,12.9,12.9,0,0,1-7.45.1c-2.31-.68-4.1-1.76-6.36-2.43-1.38-.41-1.45-.47-2.35.28a2.82,2.82,0,0,1-2.86.52,52.52,52.52,0,0,0-7.8-1.55c-.14,0-.33,0-.4-.06-1.27-1-3.22-.62-4.88-.79a3.22,3.22,0,0,1-1.68-.42,3.2,3.2,0,0,0-1.93-.55,1.59,1.59,0,0,1-1-.2l-.56,0c-.19.25-.63.28-.94.29-1.62,0-3.13.49-4.77.45a2.25,2.25,0,0,0-1.8.47.28.28,0,0,1-.09.06c-1.75,0-1.91,1-2.42,1.68a11.74,11.74,0,0,1-6.59,3.76c-2,.52-3.9,1.17-5.83,1.77a9.34,9.34,0,0,0-2.29,1.09,9.24,9.24,0,0,1-2.64,1.46,4.5,4.5,0,0,0-1.25.76,10.84,10.84,0,0,1-3.74,1.77,7.12,7.12,0,0,0-3.32,1.51,4,4,0,0,1-1.31.84c-2.24,1-4.56,1.84-6.84,2.76-1.13.45-2.05,1.11-3.19,1.59a3.58,3.58,0,0,1-2.6.16,15.21,15.21,0,0,0-3.85-.46,10.45,10.45,0,0,1-5.62-1.87,15.92,15.92,0,0,1-1.73-1.35,1,1,0,0,0-1.53,0c-.42.35-1,.59-1.22,1.07s-.72.32-1.22.16c-2.66-.81-5.6,0-6.44,1.56-.06.1-.06.25-.18.31-2,1.08-2.82,2.75-4.86,3.83a1.9,1.9,0,0,1-.87.38,6.89,6.89,0,0,0-4.73,2.36c-.8.79-1,2-3,2.25-.29,0-.5.31-.72.49a.57.57,0,0,1-.85,0,.94.94,0,0,0-1.26,0c-.71.59-1.84,1-2.08,1.8-.09.3-.77.52-1.13.81l-.45.3a3.34,3.34,0,0,1-.85-.87c-.73-1.15-2.48-1.55-4.28-1.2-3.72.73-7.3-.29-10.69-.84a52.12,52.12,0,0,1-12.35-4c-.63-.28-1.25-.66-2-.24-1.41.77-2.45.09-3.5-.47-2.28-1.21-4.49-2.47-6.81-3.66a53,53,0,0,1-9.67-6.29,42,42,0,0,0-7-4.69c-2.24-1.18-4.06-2.59-6.31-3.77-1.15-.59-2.44-.85-3.56-1.38a23.5,23.5,0,0,1-8.84-6.66,3.65,3.65,0,0,0-3.66-1.57,1.72,1.72,0,0,1-1.52-.42c-1.46-1.75-3.67-3.35-3.37-5.42a1.34,1.34,0,0,0-.19-1.22c-1.92-2.36-3.35-4.88-6.42-6.88-.35-.24-.29-.48-.32-.73a2.11,2.11,0,0,0-.89-1.46,73.77,73.77,0,0,1-6.84-6.56,3.44,3.44,0,0,0-2.38-1.09c-1.28,0-4.7,2.38-4.87,3.21-.29,1.47.19,3.11-2.42,3.95-1.42.46-2.63,1.3-4,1.7A41.33,41.33,0,0,0,2609,3951c-2.72,1.11-3.54,3.46-7.27,4-1.38.2-1.65.16-2-.58a5.78,5.78,0,0,0-4.06-3.55,2.18,2.18,0,0,1-1.54-1.46c-.4-1.51-2.12-2.66-3.72-3.64-2.85-1.74-4.71-4-8-5.51-.19-.09-.28-.28-.43-.42a58.79,58.79,0,0,1-10.29-13,8.22,8.22,0,0,0-1.63-1.86c-2.5-2.13-5.48-4-8.16-6a21.55,21.55,0,0,1-6.86-8.71,5.5,5.5,0,0,0-.8-1.37q-2.94-3.5-5.93-7c-1.45-1.68-5.35-2.74-7.82-2.23s-3.47,1.76-4.8,3.07c-1.5,1.48-3.16,3-4.87,4.35-1.39,1.14-2.72,2.29-5.57,1.87-.46-.07-.8,0-.91.3-.72,1.64-3.48,1.6-5.21,2.41a4.07,4.07,0,0,1-3,0c-2.78-1.15-5.88-1.31-8.66-2.3a22.61,22.61,0,0,0-8.65-1.53,9,9,0,0,1-4.46-.63,3.67,3.67,0,0,0-2.71.06,6.46,6.46,0,0,0-3.33,2,7.77,7.77,0,0,1-2.12,1.56c-2.45,1.6-6.31,1.87-8.72,3.48a5.06,5.06,0,0,1-2.68,1.37c-3.79.37-6.51,1.82-9.38,3.14-2.12,1-1.59,2.54-5.12,2.15-.88-.09-2.23.85-2.66,1.09-1.22.71-2.57.46-3.89.69-2.33.4-3.79.44-5.17,2.15a.36.36,0,0,1-.22,0c-2.26-.39-3.9.4-5.92.44a6.09,6.09,0,0,0-4,1.28c-1.89,1.56-7.1,1.68-10.27.29-.22-.1-.58-.21-.63-.32-.61-1.56-3.26-2.21-4.25-3.62a4,4,0,0,0-2.76-1.3,17.84,17.84,0,0,0-4.83.14,6.42,6.42,0,0,1-3.88-.23,5,5,0,0,0-2.16-.32c-3.38.3-7.09-.58-10.38-1.48s-5.89-.34-8.61-.34c-3.37,0-6.2,1.25-9.54,1.43-3.7.19-7.7-.2-11.59-.4a4.61,4.61,0,0,1-1.2-.38,93,93,0,0,0-12.4-3.3c-5.65-1.26-11.05-1.08-16.61-1.75a11.07,11.07,0,0,1-5.07-1.71,22.49,22.49,0,0,0-9-3.35,35.1,35.1,0,0,1-11-4,7.5,7.5,0,0,1-3-2.71,11.07,11.07,0,0,0-2.24-2.39,36.62,36.62,0,0,0-13.69-7.51c-2.65-.8-4.9-.44-5.58,1.14-.46,1.07-.81,2.13-3.21,1.65a1.94,1.94,0,0,0-1.85.54c-.69.75-1.67.59-3,.08-1.7-.63-3.58-1.52-4.68-.3a1.38,1.38,0,0,1-1,.1c-3.73-1-6.63-.27-9.79-.07-1.83.12-3.91.38-5.84-.55-3.18-1.54-6.07-1.73-9.12-2.15-6-.81-11.9-1.22-18.12-3a46.67,46.67,0,0,0-8.45-1.69c-4.28-.37-8.61-1.06-12.84-1.12-2.81,0-5.88-1.12-9-2.26.35-2.39-3-4.21-4.91-6-1.5-1.43-3-2.89-4.29-4.4-2-2.27-4.47-4.24-6.6-6.42a12.36,12.36,0,0,0-5.34-3.13c-3.29-1-5.49-3.25-5.77-5.85a4.18,4.18,0,0,0-1-2.18c-1.86-2.31-3.91-4.53-5.86-6.8a2.34,2.34,0,0,0-.51-.53c-2.56-1.42-4.17-3.53-6.23-5.32a7.8,7.8,0,0,0-2.22-1.55c-1.86-.68-3-2.19-4.67-3-.57-.29-.6-.8-.33-1.07,1.31-1.32.42-3.5,1.43-5,.46-.66.05-1.71-.42-2.62a2,2,0,0,1-.14-2.12c.41-.63.3-1.34-.63-2a14.39,14.39,0,0,1-1.82-2c-1.92-2.15-4.42-3.91-6.35-6-.41-.46-.83-.9-1.21-1.37a17,17,0,0,0-3.19-2.86,51.72,51.72,0,0,1-5.39-3.94,8.53,8.53,0,0,0-2.28-1.46,17.57,17.57,0,0,1-2.9-1.8c-1.47-1.07-1.58-1.29-.9-2.42a4.17,4.17,0,0,0,.91-2.26c0-1.06.2-2.06-.91-3.2a1.7,1.7,0,0,1-.4-1.34,2.26,2.26,0,0,0-.51-1.5,1.83,1.83,0,0,1-.23-2.08c.48-1.19,0-2.66-.36-4.05-.16-.56-.45-1.1-.16-1.56,1-1.61,1.16-3.57,1.88-5.29a10.82,10.82,0,0,0,1.3-4.18s.05-.09,0-.13c-.94-2.77,1.76-4.21,1.29-6.83-.12-.68.43-1.19.75-1.74a42.69,42.69,0,0,0,2.52-5.55,1.61,1.61,0,0,0-.18-1.57,15.62,15.62,0,0,0-3-4,4.64,4.64,0,0,1-1.14-2.19c-.71-1.71-1.23-3.47-3.19-4.81a.64.64,0,0,1-.27-.4c0-1.2-1.09-2.27-1.56-3.41a1.69,1.69,0,0,0-2-1.25,40.26,40.26,0,0,1-4.08-.21.81.81,0,0,1-.5-.1c-1.89-1.63-3.83-1.09-5.74-1.5-.68-.14-1.1-.11-1.48-.9-.8-1.63-4.17-3.08-6.58-3.15-.78,0-1.54,0-2.32,0a14.37,14.37,0,0,1-4.78-.83,35.48,35.48,0,0,1-6.9-3,7.76,7.76,0,0,0-2.42-.67c-2.69-.76-5.29-1.07-7.47-.2-1.09.43-2.14.93-3.43,1.38a4.86,4.86,0,0,1-.56-2.75c.25-2.91-1.14-5.8-2.58-8.8-1.17-2.44-2.48-4.94-2.49-7.51,0-1.61-.08-3.25-.07-4.87a30.51,30.51,0,0,0-.78-5.32,28,28,0,0,1-.65-2.93,4.37,4.37,0,0,0-1.41-2.36,7.92,7.92,0,0,0-2.7-2,6,6,0,0,0-2.17-.16c-1.17,0-2.29,0-3,.76s-1.83.66-2.72,1c-1.71.64-3.25,1.68-5.47,1.51-.23,0-.47.11-.65,0-2.35-1.27-4.06-.08-6.16-.36a4.94,4.94,0,0,1-3.87-2,2.37,2.37,0,0,0-.6-.69c-2.73-1.54-4.55-4.12-7.15-5.8a10.78,10.78,0,0,0-1.49-.73,7.53,7.53,0,0,1-3.3-2,2.66,2.66,0,0,0-1.6-.85,6,6,0,0,0-3.75.28,11.55,11.55,0,0,1-6.67.55,9,9,0,0,0-4,.29,3.36,3.36,0,0,1-2.26-.12,4.29,4.29,0,0,0-3.11-.27,1,1,0,0,1-.62,0c-2.3-.62-4.06.14-6,.28a5.08,5.08,0,0,1-3.31-.47,1.24,1.24,0,0,0-1.34,0,3.87,3.87,0,0,1-4.16.12,3.94,3.94,0,0,0-2.41-.52,4.91,4.91,0,0,1-2.31-.45c-2.24-.62-4.6-1.88-6.68-1.22-.93.3-2.94-.89-4-2.34a4.12,4.12,0,0,0-1.95-1.72,2,2,0,0,1-1-.87,7.51,7.51,0,0,0-4-3.1,9.11,9.11,0,0,1-3.82-2.47,18.87,18.87,0,0,0-4.21-3c-2.07-1.31-3.65-3.11-5.53-4.58-2.34-1.83-4-4.2-6.14-6.22a10.93,10.93,0,0,0-3.84-2.38c-2.95-1.13-5.89-2.23-8.83-3.54-4.56-2-9.1-4.29-13.68-6.21a15.28,15.28,0,0,1-5.46-3.92,26.15,26.15,0,0,0-3.09-2.75,53.15,53.15,0,0,0-9.92-6.66c-2.14-1-4.27-2.3-6.38-3.55a4.94,4.94,0,0,1-1.77-2,15.27,15.27,0,0,0-5.58-5.87,11,11,0,0,1-2.59-2c-.84-1-1.76-1.83-2.58-2.78a7,7,0,0,1-1.94-3.63c-.32-3-1.93-5.81-3.49-8.71a14.36,14.36,0,0,0-4.54-5.3,18.24,18.24,0,0,0-3.34-1.51c-.7-.3-.93.33-1.37.57-1.23.67-2.16,1-3.22.48a1.68,1.68,0,0,0-1.12-.15c-1,.42-1.8-.26-2.72-1.18s-1.93-1.94-3-1.35c-.25.13-.66-.1-1-.34a17.66,17.66,0,0,0-6.32-2.67,17,17,0,0,1-3.35-1.43,3.32,3.32,0,0,1-1.23-1,10.42,10.42,0,0,0-3.12-2.87,2,2,0,0,1,.73-.88c.08-1.18,1-2.15.44-3.49-.29-.76-.18-1.73-1.42-1.87a.59.59,0,0,1-.3-1c.28-.25.21-.6.28-.91s0-.89.19-1.13c.56-.65.41-1.52.59-2.28.09-.4,0-.68-.49-.7s-.4-.18-.34-.47.19-.52.1-.71c-.64-1.27.27-2.14.57-3.07a4.73,4.73,0,0,0,0-4.09,1.1,1.1,0,0,1,0-.71c0-1.8,1-3.29,1.07-5.08,0-.11.11-.2.17-.3a3.31,3.31,0,0,0-1.39-4.5c-.34-.18-.65-.41-.38-.76a3.2,3.2,0,0,0,.36-1.35c.13-.55-.06-.82-.65-.82a12,12,0,0,1-1.79-.09,5.65,5.65,0,0,1-3.81-1.88,7,7,0,0,0-2-1.8,1.76,1.76,0,0,1-1-1.51c-.08-.93.06-1.85-.05-2.74-.22-1.82-.48-3.64-.65-5.46a2.85,2.85,0,0,1,.12-1.24,4.42,4.42,0,0,0-.19-2.74,7.07,7.07,0,0,1-.16-3.15,3.46,3.46,0,0,0,.08-1.15,6.38,6.38,0,0,1,0-2.35,6,6,0,0,0-.09-1.93c-.34-1.42-.63-2.86-1.07-4.25a8.12,8.12,0,0,1,.21-5.93c.3-.69,1-1.4.3-2.37,0,0,0-.06,0-.08.21-.51-.1-.91-.4-1.27-.73-.85-1-1.94-1.68-2.84l-1-1.42a1.71,1.71,0,0,0-1.27-.69c-.49,0-.73-.33-1.06-.64-.85-.78-1.39-2.06-2.75-2.11-.07,0-.15-.11-.21-.17a26.29,26.29,0,0,0-4.62-3.2,1.47,1.47,0,0,1-.84-1.85c.2-1,.13-1-.8-1.44-1.53-.78-3.17-1.06-4.72-1.86a6.21,6.21,0,0,1-3.2-4,26.34,26.34,0,0,0-1.57-4.44,2,2,0,0,0-1.63-1.34,4.61,4.61,0,0,1-2.85-1.44,5.68,5.68,0,0,0-1.24-.82c-3.15-1.69-6.3-3.38-8.71-6.36-1.42-1.77-3.2-3.21-4.44-5.17a2.34,2.34,0,0,0-2.17-1.42.44.44,0,0,1-.3-.18c-.59-.69-1.32-1.21-1.92-1.87s-.89-1.59-1.83-1.88c-.17-.05-.3-.32-.45-.49-.81-1-1.23-2.28-2.48-2.95-.48-.27-1-.64-1.52-1-.79-.47-1.65-.66-2.08-1.77-.63-1.61-1.33-3.17-.9-4.85.22-.85,0-1.82.4-2.6a.17.17,0,0,0-.09-.24c-1-.38-1.42-1.58-2.42-2a1.24,1.24,0,0,1-.79-.91,3.89,3.89,0,0,0-.72-1.47,7.07,7.07,0,0,1-1-4.06c0-1.34.3-2.65.46-4,.08-.68.17-1.38-.56-1.88a.85.85,0,0,1-.28-.6,7.55,7.55,0,0,1-.07-2.27,6.23,6.23,0,0,0-.49-3.8c-.28-.59-.85-.93-1.06-1.45-.49-1.2-1.6-1.81-2.23-2.88a3,3,0,0,1-.6-1.63,3.68,3.68,0,0,0-.58-2,9.2,9.2,0,0,0-4.77-3.7,5.5,5.5,0,0,1-2.86-2.38,6.86,6.86,0,0,1-.57-2.81,5.59,5.59,0,0,1,0-2.73,23.14,23.14,0,0,0,.86-3.27,2.72,2.72,0,0,0-1-3c-.11-.11-.18-.27-.3-.38-.81-.74-1.25-1.8-2-2.6-1.41-1.48-3-2.72-4.16-4.51a1.83,1.83,0,0,0-1.7-.92,5.26,5.26,0,0,1-2.24-.56c-1.36-.61-2.53-1.92-4.11-1.8-.17,0-.38-.18-.57-.28a5.94,5.94,0,0,0-.67-.33c-1.65-.55-3.44-.61-4.78-2.22a.51.51,0,0,0-.24-.15,2.66,2.66,0,0,1-1.65-1.64.81.81,0,0,0-.7-.53,5.81,5.81,0,0,1-1-.25.7.7,0,0,1-.56-.69c-.07-1.18-.85-1.6-1.72-2s-2-.23-2.42-1.56a.26.26,0,0,0-.15-.12c-.48-.21-.57-.68-.66-1.13a1.43,1.43,0,0,0-1.32-1.25,3,3,0,0,1-2.39-1.23c-.74-1.36-1.73-2.55-2.38-4-.3-.67-1.12-1-1.2-1.86,0,0-.1-.08-.14-.12a20.85,20.85,0,0,0-5.56-3.16c-1.74-.64-3.57-1-5.09-2.42a5.24,5.24,0,0,0-1.47-.83,23.4,23.4,0,0,1-5.08-2.79c-.63-.51-1.24-1.06-1.86-1.59a4.38,4.38,0,0,1-1.61-3.6,3.83,3.83,0,0,0-1.61-3.49,3.35,3.35,0,0,1-1.16-1.48,2,2,0,0,0-1.21-1.2,6,6,0,0,1-2.12-1.45,16.78,16.78,0,0,0-2.21-1.95,5.44,5.44,0,0,1-2-2.19,1.66,1.66,0,0,0-1.65-1.06,2.49,2.49,0,0,1-1.88-.74c-.41-2.91-1-5.9-1.45-8.82a14.07,14.07,0,0,0-1.17-4.83,13.83,13.83,0,0,1-1.44-7.68,21.94,21.94,0,0,0-.45-7.19c-.14-.51-.22-1.09,0-1.28.79-.6.35-1.86-.13-3.05-.64-1.62-1.17-3.09-.29-4a1.33,1.33,0,0,0,.16-1c-.5-2.15.39-2.49,1.31-2.84.45-.18,1.07-.19,1-1.11a19.18,19.18,0,0,0-1.17-6.86,23.63,23.63,0,0,0-2.75-4.77,29.73,29.73,0,0,0-5.44-6.77c-2.49-2-5.63-7.88-6.11-11.67a24.94,24.94,0,0,0-2.84-8.07,16.24,16.24,0,0,1-2.23-5.63c-.31-2.16-.7-4.48-.91-6.58a78.68,78.68,0,0,0-2.69-13.11,55.67,55.67,0,0,0-2.13-6.56,16.42,16.42,0,0,1-1.2-5.48c-.26-5.89-.84-11.94-1.21-17.92-.24-3.87-.28-7.63-.36-11.42a15.58,15.58,0,0,0-.88-5.05c-1.22-3.48-2.82-6.77-3.73-10.42-.52-2-1.42-4-1.79-6a57.77,57.77,0,0,0-1.94-8.74,6.51,6.51,0,0,1-.53-2.69c.44-3.66-1.66-7.17-2.3-10.78-.16-.94-.9-1.78-1.11-3-.4-2.18-1-4.36-1.19-6.57a21.85,21.85,0,0,0-.8-3.52c-.43-1.44-1.65-2.76-1.2-4.46a1.5,1.5,0,0,0-.21-.63,10.8,10.8,0,0,1-1.15-4.46,10.25,10.25,0,0,0-.52-2.53c-1.61-4-2.9-8.35-5.43-11.11a18.25,18.25,0,0,1-3-5.75c-.75-2-2.3-3.83-1.8-6.42a1.29,1.29,0,0,0-.18-.66c-1.06-1.74-.66-2.64,0-3.42a1.33,1.33,0,0,0,.31-.82c0-2.73.75-4.83,1-7.38.22-2.14.5-4.36,1.74-5.47.93-.85,1.49-2.82,1.19-5.14a32,32,0,0,0-1.83-7.9,34.14,34.14,0,0,1-1.66-7.15c-.49-2.69,0-5-.29-7.61a28.46,28.46,0,0,1,.15-7,13.1,13.1,0,0,0-.28-4.43c-.59-2.77-1.1-5.56-1.63-8.36a7.17,7.17,0,0,1-.27-2.38,11.49,11.49,0,0,0-.42-4.92c-.76-3-.83-5.12.7-6.41,1-.82.81-2.29-.12-4.06-.81-1.52-.82-2.06.13-2.21a5.06,5.06,0,0,0,3.16-2.11,5.64,5.64,0,0,1,1.95-1.45c1.77-.92,3.21-2.77,4.64-4.64s1.88-4.93,2.21-8.17a28.53,28.53,0,0,0,.08-4.83c-.3-4.74-.34-9.46.79-13.44.27-1,.64-1.77.86-2.81.71-3.34,1.24-6.64-.72-10.24a1.11,1.11,0,0,1,0-1,31.36,31.36,0,0,1,1-4.06,3.51,3.51,0,0,0,.15-1.8c-.47-3.64,1.17-5.23,1.48-8.19a5,5,0,0,0-.31-2.44c-.89-1.8-1.73-3.53-2.94-4.32a2.22,2.22,0,0,1-.07-.68,4,4,0,0,0-.7-2.35,29.89,29.89,0,0,0-2.77-4.89c-1-1.32-1.25-3.91-2.13-5.52-.72-1.33-1.17-3.41-2.38-3.39-1.64,0-3.31-.77-5-.51-1.38.22-2.8-.68-4.22-1.38s-2.84-.56-4.36-1.57c-2.9-1.94-5.9-1.71-8.86-2.38a1.72,1.72,0,0,1-1.61-1.36,1.42,1.42,0,0,0-.66-.82c-1.12-.73-2.13-2.76-3.37-2.11-.94-1.95-2.24-2.89-3.13-4.84a5.93,5.93,0,0,0-1.58-2.19,3.13,3.13,0,0,0-3-.76c-.82.18-1.35-.4-1.56-2.36-.46-4.23-.76-8.54-1.53-12.68-.56-3-.63-6.2-1.48-9.06-.34-1.16-.76-2.2-1.07-3.43-1.27-5-2.2-10.35-3.71-15.17-.29-.93-.59-1.86-1.05-1.73-1,.28-1.75-.93-2.48-2.29-.4-.74-.91-1.49-1.37-1.42-1.62.23-3.15-2.11-4.78-1.63-.42.13-.89,0-1-1.24-.15-2.64-.92-5.07-.79-7.82a13.8,13.8,0,0,0-.34-2.89c-.69-3.84-1.9-7.3-2.11-11.5a3.74,3.74,0,0,0-.19-.73c-1.18-4-2.37-8-3.51-12a4.69,4.69,0,0,0-1.25-2.23c-2.14-2.17-3.11-6.33-2.62-11.36a24.32,24.32,0,0,0,.08-3.53c-.3-5.43-1.65-10-2.71-14.67-1.65-7.27-3.47-14.34-4-22.58a9.6,9.6,0,0,1-1.41-.26,3.8,3.8,0,0,0,.11-.71c.42-6.91,2-12.63,3.08-18.87.47-2.7.71-5.65,1.25-8.24,1-4.83,2.14-9.55,2.94-14.58.64-4,1.45-7.08,3.36-7.39.31-.05.64-.54.92-1a9,9,0,0,0,1-4.86c0-6.88-.47-5.77,2.06-8.76a13.7,13.7,0,0,0,1-1.29,5.26,5.26,0,0,0,1-2.63c.2-2.83.25-5.72,1.23-8a3,3,0,0,0,.06-1.26c-1.14-2.72-.19-5.56.2-8.41a11.81,11.81,0,0,0,0-2.59c-.46-4.57.75-8.51,1.41-12.61a7,7,0,0,1,.94-2.4c1.66-2.71,2.11-6.48,2.2-10.54.08-3.39.4-6.34,1.71-9a36.28,36.28,0,0,0,3.93-10.54c.45-2.43,1.11-3.42,2.14-3s2.15,1.32,2.92-2.2a.66.66,0,0,1,.29-.44c.85-.26,1.57-1.79,2.43-2,.65-.15,1-1.18,1.38-2.46a37.37,37.37,0,0,0,1.18-13c-.42-5.52,1.17-9.05,2.61-12.73a17.21,17.21,0,0,0,1.19-8.9,2.94,2.94,0,0,1,.41-2.53,7.92,7.92,0,0,0,.9-1.35c2.2-4.16,3.18-6.41,5.85-6.45.7,0,2.51-3.3,2.62-5.32a8.17,8.17,0,0,1,1.66-4.68c.49-.48.61,0,1.15-.3a1.33,1.33,0,0,0,.67-1.14,4.2,4.2,0,0,1,.52-1.75,9.76,9.76,0,0,0,1.22-2.37c.39-1,.85-1.85,1.19-2.91.62-1.95.33-2.36,1.18-3.2,2.11-2.1,3.92-5.26,5.76-8.36.37-.62.8-.68,1.16-1.76a7.07,7.07,0,0,0,.12-5.13c-.28-.76,1.91-9.52,2.47-10.05a11.53,11.53,0,0,0,1.65-2.89c.78-1.47.62-2.1,0-2.26-1.24-.29-2-1.9-2.82-3.25-.58-.91-.92-2.61-1.62-2.85-2.32-.78-2.81-5.59-4.51-7.66a1.4,1.4,0,0,1-.15-.75,27.14,27.14,0,0,0-.88-6.53,22.57,22.57,0,0,1,.06-7,46.68,46.68,0,0,0,.33-12.57,5.7,5.7,0,0,1,.5-3.31c1.3-2.75,1.37-3.16.45-5.35a7.57,7.57,0,0,1-.12-4.73c.77-3.42,1.66-6.73,2.61-10.06s2.58-6.17,3.33-9.72a3.76,3.76,0,0,1,.69-1.26,28.86,28.86,0,0,0,1.51-2.69c1.19-2,1.21-4.69,2.14-6.75a7.33,7.33,0,0,0,.56-5.2,31.1,31.1,0,0,1-.67-9.5,8.27,8.27,0,0,0-.3-2.7c-.37-1.52-1.07-2.61-.88-4.86.33-4.09.8-8.22,1.14-12.25s.86-8.32,1.24-12.44a19,19,0,0,1,1.72-6.59c1-2.11,2.08-4.39,1.31-6.53a1.83,1.83,0,0,1,.08-.84c1.22-4.07,1.11-7.61,1.29-11.25.38-7.24,2.34-13.87,6.35-19.47a18.06,18.06,0,0,0,3.26-8.34,14.18,14.18,0,0,1,4.47-8.91,8.29,8.29,0,0,0,2.67-5.38c.4-2.82.83-5.66,1.39-8.52.33-1.68,1.15-3.58,0-4.06-.09,0-.12-.46-.06-.69,1-3.55,1.12-7.13,3.15-10.63a16.37,16.37,0,0,0,2.05-6.5,14.6,14.6,0,0,1,2.3-7.19,5.76,5.76,0,0,1,3.79-2.63c2.87-.5,5.07-4.07,7.31-7.66.81-1.29,1.4-1.86,2.28-2,1.32-.2,2.38.65,3.9-.41a4.08,4.08,0,0,1,2.16-.55c2.24-.31,4.49-.59,7-2.71,2-1.65,3.93-3.74,5.53-2.55,0,0,.15,0,.24,0,2.17-1.36,3.67-.25,5.47-.26,2.08,0,4.19-1,6.38-4,.36-.48.58-.46.84-.42,1.18.15,2.05-.71,2.61-3a3.09,3.09,0,0,1,1.76-2.32,14.23,14.23,0,0,0,6.07-4.32,1.75,1.75,0,0,1,1-.74c.53,0,1.06-.56,1.53-1.22,2-2.74,4-4.9,6.5-5.5-.86-.95-.59-2.68-1.27-3.38-1.26-1.29-1.52-3.88-1.19-6.57s-.49-4.14-.72-6.2c-.08-.71-.81-.71-.8-1.57.05-2.64-.61-4.63-.82-7-.09-1-.59-1.69.1-3.25a1.71,1.71,0,0,0,0-1.26c-.47-.41-.37-.41-.31-1.14.09-1.08,1.27-2.14,1.06-2.77-.55-1.63.19-4.23-.28-5.83-.26-.88,0-1.24.66-1.87,1.57-1.64,2.94-3.88,4.57-5.41.12-.12.35-.33.36-.4.3-3.35,1-1.19,1.57-1.31l.62-.12a24.06,24.06,0,0,0,5.72-3,22,22,0,0,0,9.06-11c.13-.33.37-.72.58-.63.75.33,1.79-.69,2.65-.72a3.72,3.72,0,0,0,3.27-1.8c1.65-2.49,3.83-3.89,5.27-6.76a4.14,4.14,0,0,1,2.32-2.21,7.83,7.83,0,0,0,3.81-3.54,9.86,9.86,0,0,1,2.31-2.6,22.86,22.86,0,0,0,5.11-5.86,6.78,6.78,0,0,1,1.63-2c2.75-1.95,5-5.4,7.46-8.1s4.31-4.41,6.57-4.8c.47-.08.85-.24,1.18-1.12a49.67,49.67,0,0,0,3.3-12.53,17.53,17.53,0,0,1,2.54-8.1c1.46-2.34.49-4,1.47-6.22.07-.15-.15-.29-.16-.49a2.41,2.41,0,0,1,0-1.1c.88-2.37,1.22-4.89,2.94-7.07,2.26-2.86,2.53-5.61,3.62-8.42.67-1.72-.12-2.55.35-4a82.09,82.09,0,0,0,2.21-9.55,4.63,4.63,0,0,0,.19-2.12c-.84-2.39-.67-5.42-.06-8.75.45-2.45-.34-4.15.37-6.83s.11-4.72-1.1-5.95c-1-1-1.19-2.75-1.17-4.57,0-1.23-.08-2.19-.85-2.59-.36-.19-.7-.44-.29-1.18,1-1.92,1.52-3.87,2.91-5.78a12.23,12.23,0,0,0,2.37-6c.23-2.76-.77-4.7-.2-7.7a.42.42,0,0,0,0-.28c-.93-1.57-.31-4.17-.09-6.5.37-3.76,1.18-7.74,1.17-11.28,0-1,.45-1.59,1.36-1.6a4.17,4.17,0,0,1,2.55.56c.84.66,1.94.33,3.29-.56,2.14-1.41,4.17-2,6.26-3.13,4.44-2.4,8.8-4.3,13.2-6.3a1.82,1.82,0,0,1,1-.15,11.7,11.7,0,0,1,5.86,2.23c1.42.89,2.66,2.13,5.25,1.16,1.68-.62,3.41-1.56,5.07-2a4.08,4.08,0,0,0,3.13-3.2,4.93,4.93,0,0,1,2.1-2.55c1.26-.68,2.5-.54,3.71-2.34,2.23-.25,1.48-1.13,1.15-1.94a2.72,2.72,0,0,1-.18-.61,1.51,1.51,0,0,1,.49-1.41c.53-.53,1-.5,1.19-.25.64.77,1.83.67,2.86.7,1.79,0,3,1.08,5.35.23a38.84,38.84,0,0,1,6.89-1.61,5.61,5.61,0,0,0,3.46-2.61c.12-.23.19-.46.32-.68,1-1.7,2-3.09,3.84-3.69a7,7,0,0,0,4.39-3.69c.65-1.7,1.13-2.12,2.51-2.13a3.56,3.56,0,0,0,2.21-.8,17.29,17.29,0,0,0,6.14-8.64c.51-1.36.62-2.66,1.18-4,.67-1.63.71-2.81.15-3.76a4.64,4.64,0,0,1-.34-1.18c-.23-1,.17-1.55,1.46-1.88.35-.09.68-.1,1-.17a3.31,3.31,0,0,0,2.52-2.27c1.31-2.84,1.11-4.88.18-6.35s0-4.22-.84-5.74a.38.38,0,0,1,0-.3c.88-1.26,2.38-2.58,1.54-3.61,1.39-1,.63-1.28.43-1.76-.34-.82.15-1.82,1.14-2.86,1.19-1.25,1.45-2.21.87-3a1.93,1.93,0,0,1-.51-.9c-.17-1.11-1.47-1.38-1.1-2.83a35.7,35.7,0,0,1,1.63-4.67c1-2.36,1.71-4.63,1.52-6.56-.21-2.09-1-3.73-1.29-5.82-.56-4.68,1.11-8.8,7.14-13.33a89.43,89.43,0,0,0,8.44-6.56,15.41,15.41,0,0,1,4.53-3c1.09-.47,2.18-.77,3.24-1.28a31.8,31.8,0,0,1,8.17-2.85c3-.52,4.25-1.65,5.52-4.81a2.31,2.31,0,0,1,1-1.32c2-.79,4.16-2.16,6-2.15a7,7,0,0,0,4.71-1.5c1.76-1.4,2.83-1.26,3.85-1s1.77-.23,2.59-1.29a1.79,1.79,0,0,1,1.45-.88c3-.13,5.83,0,8.94-.38.49-.06,1.05.21,1.49-.38,1.15-1.53,1.68-.94,2.43-.84s1.48.7,2.37-.2c1.17-1.18,2-1.07,3-1.38a18.44,18.44,0,0,1,5.13-.56,6.49,6.49,0,0,0,5-2.84c.27-.34.38-.75.83-1,2.79-1.55,5.61-3.42,8.28-3.47.33,0,.75.06.94-.5.67-2,1.74-2.87,3.43-2.28.11,0,.33-.08.47-.07a38.31,38.31,0,0,1,5.9.65,10.49,10.49,0,0,0,6.07-.1,8.53,8.53,0,0,1,5.23.2c.4.1.66.47,1.33,0s.57-.92.64-1.36c.25-1.47,2.32-3.67,4-4.2.67-.21.62-.57.64-.83.09-1.66.65-3.12,3.32-4.19.35-.14,1.31-.49,1.61-1.11a1,1,0,0,1,1.2-.65c2.52.5,5,1,7.47,1.63a9.5,9.5,0,0,1,1.8.91c1.21.56,2.51-.09,3.47-1.73,1.26-2.14,1.26-2.14,3.15-1.86a6.86,6.86,0,0,0,.81.12c1,.05,2,.3,2.51-1.4a1,1,0,0,1,.66-.58,1.66,1.66,0,0,0,1.3-1.61c-.28-1.65.91-3.78.73-5.44a1.72,1.72,0,0,1,.8-1.75,1.65,1.65,0,0,0,1-1.51c.34-1.85-.09-3.66,2.74-5.74a4.75,4.75,0,0,0,2.29-3.52,1.26,1.26,0,0,1,1.43-1.13,1.7,1.7,0,0,0,2-1.53c.14-.8.5-1,1.16-.77.28.1.59.16.87.26a1.32,1.32,0,0,0,1.74-1.05c.21-1,.57-2,.69-3,.21-1.63,0-3.16,1.51-5.2,2-2.69,1.76-5.07,2.76-7.63.25-.65.81-1.69,1.16-1.74,1.79-.28,1.52-1.18,1.76-1.85.3-.84.41-1.64.66-2.46.08-.3.22-.81.69-.89,1.42-.23,1.3-1,1.42-1.52a24.78,24.78,0,0,0,.49-5.52,1.48,1.48,0,0,1,.85-1.54,2.38,2.38,0,0,0,1.51-2,12.57,12.57,0,0,1,2.65-5.49,11.79,11.79,0,0,1,2.19-2.45c.89-.63.88-1.53,1.69-2.36.61-.63,1.57-.68,1.95-1.46a3.42,3.42,0,0,1,2.45-1.77,1.49,1.49,0,0,0,1.07-.89c.22-.33.3-.73.79-.91a2.16,2.16,0,0,0,1.62-2,2.39,2.39,0,0,1,.92-1.64,2.91,2.91,0,0,0,1.23-1.75,7.12,7.12,0,0,0,.64-3.16,4.06,4.06,0,0,1,1.38-3.22c.54-.6,1.4-1.18,1.64-1.82.44-1.19,2.27-2.48,1.93-3.62,0-.07.29-.4.48-.5a3.69,3.69,0,0,0,2.15-2.57,3.63,3.63,0,0,1,1.11-1.78c1.73-1.19,1.76-2.3,2.35-3.47.37-.73,1-1.85,1.77-2.05,1.34-.36,1.46-1,2.17-1.63a11.51,11.51,0,0,0,2.66-3.59,3.11,3.11,0,0,1,2-1.12,5.7,5.7,0,0,0,2.12-1c2.4-2.21,4.83-4.4,7.11-6.64,1.46-1.43,2.45-2,4.16-2a4.25,4.25,0,0,0,1.21-.22c1.48-.47,3-1,4.43-1.45,1.21-.36,2.36-.59,2.56-1.81.05-.28.49-.53.87-.68,1.7-.68,3.48-.76,5.12-2.12.17-.14.61-.1.89-.24,1-.53,2.34-.5,3-1.27,1.24-1.45,3-2.83,3.58-4.41.8-2.24,1.06-4.42,3.05-6.81.47-.56.14-.89,0-1.28-1.28-3.64,2.62-9.33,8.82-12.71a15.86,15.86,0,0,0,3-2.17c2.66-2.39,5.4-4.82,9.45-5.24.94-.09,1.34-.72,1.84-1.24a63.18,63.18,0,0,1,7.54-7.17,3,3,0,0,0,1.19-1.43c.53-3,5.49-5.45,6.8-8.36a8.63,8.63,0,0,0,.6-1.23c4.82-1,10.18-1.47,12.77-1a6.28,6.28,0,0,0,3.42-.31,22.12,22.12,0,0,1,10.22-1.28,7.39,7.39,0,0,0,3.28-.51c4-1.3,8-2.56,12.07-3.85a11.83,11.83,0,0,1,3.65-.63c3.12,0,6.43-.5,9.64-.74,1.15-.09,2.26-.11,3-1.23a2.55,2.55,0,0,1,1.14-.66c2.44-.87,4.67-2.52,7.34-2.6a5.65,5.65,0,0,0,1.47-.58c2.31-1,4.65-1.9,6.92-2.94a21.36,21.36,0,0,1,6.3-1.58,14.76,14.76,0,0,0,1.71-.48c1-.25,1.51-1.31,2.29-1.34a10.85,10.85,0,0,0,2.51-.62,8,8,0,0,0,3.37-2.2,1.74,1.74,0,0,1,1.76-.53,8.54,8.54,0,0,0,4.73-.64,2.43,2.43,0,0,1,2.63,0c.49.42,1,.45,1.74.08a3.55,3.55,0,0,1,2.23-.12c1.67.15,2.94.91,5,.46.65-.15.69.27.82.55a12.2,12.2,0,0,1,.79,1.91c.2.81,1,1.06,2.16.87a2.83,2.83,0,0,1,2.6.45,1.94,1.94,0,0,0,2.18.2c2.52-1.29,3.84-.43,4.91.38.91.69,2.31.84,3.37,1.35,1.36.65,5,0,6.87-1.6.33-.28.7-.64,1.08-.6,1.85.17,2.52-1,3.25-1.79s1.74-1.71,1.77-2.73c0-.69,1.34-1.07,1.85-1a3.39,3.39,0,0,0,3.12-1.21,21.47,21.47,0,0,1,3.65-2.34,16.12,16.12,0,0,0,4.84-4.64c1-1.5,2.82-2,4.6-2.33a13.13,13.13,0,0,1,2.49-.31c2.52,0,4.73-1.15,7-1.86,1.46-.45,2.84-1,4.11-.47a1.25,1.25,0,0,0,.79,0c1.76-.73,2.9-.16,4.15.12a15.77,15.77,0,0,0,4.25.51,6.28,6.28,0,0,0,3.3-1c.65-.43,1.52-.72,2-1.11,1.23-1.07,2.44-.83,3.62-.81a2.52,2.52,0,0,0,1.61-.31,12.36,12.36,0,0,1,10.38-1.52c2.59.83,5.49,1.38,7.81,2.49a12.67,12.67,0,0,0,5.36,1.41,5.65,5.65,0,0,1,3.08,1c2.32,1.62,5.53,2.36,8.7,3.18,2,.51,3.74,1.29,5.89,1.66a6.18,6.18,0,0,1,2.71,1.55,2.84,2.84,0,0,0,2.35.37c2.09-.34,4.26-.46,5.71.44,2,1.22,4.51.09,6.85-.18a1.69,1.69,0,0,0,.55-.28c.52-.31.65-1,1.41-1a6.16,6.16,0,0,1,2.64.52,22.83,22.83,0,0,1,5.24,3.31c.43.36.92.7,1.34,1.07a10.24,10.24,0,0,0,5.57,1.87,5.9,5.9,0,0,1,2.83,1c1.22.8,1.62,2.41,3.42,2.55a1.28,1.28,0,0,0,.85-.21,14.19,14.19,0,0,0,1.61-1.79c1-1.26,2.38-2.41,3.24-3.72s2.58-1.78,4-2.6a21.15,21.15,0,0,0,5.29-4.67,23.24,23.24,0,0,0,4-5.57,6.81,6.81,0,0,1,1.53-1.87,63.25,63.25,0,0,0,6.48-7.06,6.93,6.93,0,0,1,1.49-1.88c2.78-2,4.55-4.41,8.26-6,4.06-1.79,6.11-4.61,8-7.38a15,15,0,0,1,5.71-5.72c2.68-1.46,4.74-3.53,7.16-5.28,1.17-.84,2.11-1.81,3.36-2.59l.19-.13,0,0a4.33,4.33,0,0,0,3.68-.14,1.34,1.34,0,0,1,1.25-.08,6.48,6.48,0,0,1,1.18.58,1.42,1.42,0,0,0,1.19.12,5.2,5.2,0,0,1,3.25.06.72.72,0,0,0,.37.07c2.94-.15,4.58,1.11,6.63,1.92.28.11.62.16.94.25s.67.08.81.22c1.24,1.22,3.71,1.16,5.57,1.72a7.27,7.27,0,0,1,2.59,1.24,3,3,0,0,0,2.5.59,60.57,60.57,0,0,1,8.62-.06c1.55,0,3.11-.4,4.64-.31.22,0,.46,0,.68,0a5,5,0,0,0,4.21-1.35,29.43,29.43,0,0,0,2.86-2.83,8.74,8.74,0,0,1,3-1.84,12.38,12.38,0,0,1,3.63-1.47,10.35,10.35,0,0,1,5.16.49,17.48,17.48,0,0,0,8.33,1,6.59,6.59,0,0,0,2.74-.92,5.84,5.84,0,0,1,2.35-.64c1.75-.25,3.41.16,5.17-.28.78-.2,1.65,0,2.57-.19a10.7,10.7,0,0,0,4.67-2.16,12.17,12.17,0,0,1,2.6-1.44,1.54,1.54,0,0,1,.92-.19,3.15,3.15,0,0,0,2.6-.83c1.35-1,2.57-2.06,4-3a12.69,12.69,0,0,1,5.37-2,7.75,7.75,0,0,0,2.29-.44,2.51,2.51,0,0,1,1.73,0c1.32.47,1.95.59,3.25,1.07a5.65,5.65,0,0,0,1.46-.67c.48-.82,1.8-1.28,2.56-2,1.49-1.41,3.88-1.91,6.24-2.49,1.64-.4,2.62.12,3.85.4.8.18,1.69.33,2.42.52,1.88.49,3.7,0,5.53-.07a3.34,3.34,0,0,1,1,0c1.16.51,2.48.13,3.74.15s2.52.23,3.82.23a.7.7,0,0,1,.47.11c.8.84,2.25.83,3.54.7,3.33-.33,6.54.08,9.81,0,5.52-.1,10.25,1.2,15,2.5a9.58,9.58,0,0,0,2,.41,8.35,8.35,0,0,1,4.19,1.24,3.82,3.82,0,0,0,3,.39,49.42,49.42,0,0,0,6.45-1.6,12.9,12.9,0,0,1,7.45-.1c2.31.68,4.1,1.76,6.36,2.43,1.38.41,1.44.47,2.35-.29a2.82,2.82,0,0,1,2.86-.51,52.52,52.52,0,0,0,7.8,1.55c.14,0,.33,0,.39.06,1.28,1,3.23.62,4.89.79a3.22,3.22,0,0,1,1.68.42,3.2,3.2,0,0,0,1.93.55,1.59,1.59,0,0,1,1,.2l.56,0c.19-.25.63-.28.94-.29,1.62,0,3.13-.49,4.76-.45a2.26,2.26,0,0,0,1.81-.47s.06-.06.09-.06c1.75,0,1.91-1,2.42-1.68,1.42-1.79,3.6-3,6.59-3.77,2-.51,3.9-1.16,5.83-1.76a9.34,9.34,0,0,0,2.29-1.09,9.24,9.24,0,0,1,2.64-1.46,4.65,4.65,0,0,0,1.25-.76,10.84,10.84,0,0,1,3.74-1.77,7.12,7.12,0,0,0,3.32-1.51,4,4,0,0,1,1.31-.84c2.24-1,4.56-1.84,6.84-2.76,1.13-.45,2-1.11,3.19-1.59a3.57,3.57,0,0,1,2.6-.16,15.21,15.21,0,0,0,3.85.46,10.45,10.45,0,0,1,5.62,1.87,15.92,15.92,0,0,1,1.73,1.35,1,1,0,0,0,1.53,0c.42-.35,1-.59,1.22-1.08s.71-.31,1.22-.15c2.66.8,5.6-.06,6.44-1.56.06-.11.06-.25.18-.31,2-1.08,2.81-2.75,4.86-3.83a1.9,1.9,0,0,1,.87-.38,6.93,6.93,0,0,0,4.73-2.37c.79-.78,1-2,3-2.24.29,0,.5-.31.72-.49a.57.57,0,0,1,.85,0,.91.91,0,0,0,1.25,0c.71-.58,1.85-1,2.09-1.79.09-.3.77-.52,1.13-.81l.45-.3a3.2,3.2,0,0,1,.85.87c.73,1.15,2.48,1.54,4.28,1.19,3.72-.72,7.3.3,10.69.85a52.12,52.12,0,0,1,12.35,4c.63.28,1.25.66,2,.24,1.41-.77,2.45-.09,3.5.47,2.28,1.21,4.49,2.47,6.81,3.66a53.36,53.36,0,0,1,9.67,6.29,42,42,0,0,0,7,4.69c2.24,1.18,4.06,2.59,6.31,3.76,1.15.6,2.44.86,3.56,1.39a23.5,23.5,0,0,1,8.84,6.66,3.63,3.63,0,0,0,3.66,1.56,1.72,1.72,0,0,1,1.52.43c1.46,1.75,3.67,3.35,3.37,5.42a1.34,1.34,0,0,0,.19,1.22c1.92,2.36,3.35,4.88,6.42,6.88.35.24.29.48.31.73a2.17,2.17,0,0,0,.9,1.46,73.77,73.77,0,0,1,6.84,6.56,3.49,3.49,0,0,0,2.38,1.09c1.28,0,4.7-2.38,4.87-3.21.29-1.47-.19-3.11,2.42-4,1.42-.46,2.63-1.3,4-1.7a41.33,41.33,0,0,0,4.25-1.66c2.72-1.11,3.54-3.46,7.27-4,1.38-.2,1.65-.16,2,.58a5.75,5.75,0,0,0,4.06,3.54,2.21,2.21,0,0,1,1.54,1.47c.4,1.51,2.12,2.66,3.72,3.64,2.85,1.74,4.71,4,8,5.51.19.09.28.28.43.41a59.07,59.07,0,0,1,10.29,13,8.18,8.18,0,0,0,1.63,1.85c2.5,2.14,5.48,4,8.16,6a21.55,21.55,0,0,1,6.86,8.71,5.5,5.5,0,0,0,.8,1.37q2.94,3.49,5.93,7c1.45,1.69,5.35,2.75,7.82,2.24s3.47-1.76,4.8-3.07c1.5-1.48,3.16-3,4.87-4.35,1.39-1.14,2.72-2.29,5.57-1.87.46.07.8,0,.91-.3.72-1.65,3.48-1.6,5.21-2.41a4.07,4.07,0,0,1,3,0c2.77,1.15,5.88,1.31,8.66,2.3a22.61,22.61,0,0,0,8.65,1.53,8.84,8.84,0,0,1,4.46.63,3.67,3.67,0,0,0,2.71-.06,6.5,6.5,0,0,0,3.33-2,7.57,7.57,0,0,1,2.12-1.56c2.45-1.6,6.31-1.87,8.72-3.48a5.06,5.06,0,0,1,2.68-1.37c3.79-.37,6.51-1.82,9.38-3.14,2.12-1,1.59-2.54,5.12-2.15.88.09,2.23-.85,2.66-1.09,1.22-.71,2.57-.46,3.89-.69,2.33-.41,3.79-.44,5.17-2.15,0,0,.15,0,.22,0,2.26.39,3.9-.4,5.92-.44a6.06,6.06,0,0,0,4-1.29c1.89-1.55,7.1-1.68,10.27-.28.22.1.58.21.62.32.62,1.56,3.27,2.21,4.26,3.62a4,4,0,0,0,2.76,1.3,17.84,17.84,0,0,0,4.83-.14,6.42,6.42,0,0,1,3.88.23,5.19,5.19,0,0,0,2.16.32c3.38-.3,7.09.58,10.38,1.48s5.89.34,8.61.34c3.37,0,6.2-1.25,9.54-1.43,3.7-.19,7.7.2,11.59.4a4.61,4.61,0,0,1,1.2.38,93,93,0,0,0,12.4,3.3c5.65,1.26,11.05,1.08,16.61,1.75A11.07,11.07,0,0,1,3246,1667a22.49,22.49,0,0,0,9,3.35,34.86,34.86,0,0,1,11,4,7.5,7.5,0,0,1,3,2.71,11.31,11.31,0,0,0,2.24,2.39,36.62,36.62,0,0,0,13.69,7.51c2.65.8,4.9.44,5.58-1.14.46-1.07.81-2.14,3.21-1.65a1.94,1.94,0,0,0,1.85-.54c.69-.75,1.67-.59,3-.08,1.7.63,3.58,1.52,4.68.3a1.38,1.38,0,0,1,1-.1c3.73,1,6.63.27,9.79.07,1.83-.13,3.91-.38,5.84.55,3.18,1.54,6.07,1.73,9.12,2.14,6,.82,11.9,1.23,18.12,3a46.7,46.7,0,0,0,8.45,1.7c4.28.37,8.6,1.06,12.83,1.12,2.82,0,5.89,1.12,9,2.25-.35,2.4,3,4.22,4.91,6.06,1.5,1.43,3,2.89,4.29,4.4,2,2.27,4.47,4.24,6.6,6.42a12.25,12.25,0,0,0,5.34,3.12c3.29,1,5.49,3.26,5.77,5.86a4.18,4.18,0,0,0,1,2.18c1.86,2.3,3.91,4.53,5.86,6.8a2.14,2.14,0,0,0,.51.53c2.55,1.42,4.17,3.53,6.23,5.32a7.58,7.58,0,0,0,2.22,1.54c1.86.68,3,2.2,4.67,3,.57.29.6.8.33,1.07-1.31,1.32-.42,3.5-1.43,5-.46.66-.05,1.71.42,2.62a2,2,0,0,1,.14,2.12c-.41.63-.3,1.34.62,2a13.88,13.88,0,0,1,1.83,2c1.92,2.15,4.42,3.91,6.34,6,.42.46.84.9,1.22,1.37a16.67,16.67,0,0,0,3.19,2.86,51.72,51.72,0,0,1,5.39,3.94,8.53,8.53,0,0,0,2.28,1.46,17.57,17.57,0,0,1,2.9,1.8c1.47,1.07,1.58,1.28.9,2.42a4.17,4.17,0,0,0-.91,2.26c0,1.06-.2,2.06.91,3.2a1.7,1.7,0,0,1,.4,1.34,2.26,2.26,0,0,0,.51,1.5,1.83,1.83,0,0,1,.23,2.08c-.48,1.19,0,2.66.36,4,.16.56.45,1.1.16,1.56-1,1.6-1.17,3.57-1.88,5.29a10.82,10.82,0,0,0-1.3,4.18c0,.05-.05.09,0,.13.94,2.77-1.76,4.21-1.29,6.83.12.68-.43,1.19-.75,1.74a42.09,42.09,0,0,0-2.52,5.55,1.61,1.61,0,0,0,.18,1.57,15.35,15.35,0,0,0,3,4,4.71,4.71,0,0,1,1.14,2.2c.7,1.71,1.23,3.47,3.19,4.8a.66.66,0,0,1,.27.41c0,1.2,1.09,2.27,1.56,3.41a1.69,1.69,0,0,0,2,1.25c1.31-.14,2.74.21,4.08.2a.88.88,0,0,1,.5.11c1.89,1.63,3.83,1.09,5.74,1.49.68.15,1.1.12,1.48.9.8,1.64,4.17,3.09,6.58,3.16.78,0,1.54,0,2.32,0a14.12,14.12,0,0,1,4.78.83,35.48,35.48,0,0,1,6.9,3,7.76,7.76,0,0,0,2.42.67c2.69.75,5.29,1.07,7.47.2,1.09-.43,2.14-.93,3.43-1.38a4.85,4.85,0,0,1,.56,2.75c-.25,2.91,1.14,5.79,2.58,8.8,1.17,2.44,2.48,4.94,2.49,7.51,0,1.61.08,3.25.07,4.87a30.65,30.65,0,0,0,.78,5.32,28,28,0,0,1,.65,2.93,4.44,4.44,0,0,0,1.41,2.36,8.11,8.11,0,0,0,2.69,2,6,6,0,0,0,2.18.16c1.17,0,2.29,0,3-.76s1.83-.67,2.72-1c1.71-.64,3.25-1.68,5.47-1.51.23,0,.47-.11.65,0,2.35,1.28,4.05.09,6.16.36a5,5,0,0,1,3.87,2,2.29,2.29,0,0,0,.6.7c2.73,1.54,4.55,4.12,7.15,5.8a10.78,10.78,0,0,0,1.49.73,7.53,7.53,0,0,1,3.3,2,2.66,2.66,0,0,0,1.6.85,6.07,6.07,0,0,0,3.75-.28,11.63,11.63,0,0,1,6.67-.56,8.85,8.85,0,0,0,3.95-.28,3.41,3.41,0,0,1,2.26.11,4.3,4.3,0,0,0,3.11.28,1,1,0,0,1,.62,0c2.3.62,4.06-.14,6.05-.28a5.13,5.13,0,0,1,3.31.46,1.22,1.22,0,0,0,1.34,0,3.87,3.87,0,0,1,4.16-.12,3.94,3.94,0,0,0,2.41.52,4.79,4.79,0,0,1,2.31.45c2.24.62,4.6,1.88,6.68,1.22.93-.3,2.94.88,4,2.33a4.09,4.09,0,0,0,2,1.73,2,2,0,0,1,1,.87,7.51,7.51,0,0,0,4,3.1,9.11,9.11,0,0,1,3.82,2.47,18.64,18.64,0,0,0,4.21,3c2.07,1.31,3.65,3.11,5.53,4.58,2.34,1.83,4,4.2,6.14,6.22a10.93,10.93,0,0,0,3.84,2.38c2.95,1.13,5.89,2.22,8.83,3.53,4.56,2,9.09,4.3,13.67,6.22a15.23,15.23,0,0,1,5.47,3.92,26.15,26.15,0,0,0,3.09,2.75,53.15,53.15,0,0,0,9.92,6.66c2.14,1,4.27,2.3,6.38,3.55a5,5,0,0,1,1.77,2,15.18,15.18,0,0,0,5.58,5.86,11.35,11.35,0,0,1,2.59,2.06c.84,1,1.76,1.83,2.58,2.78a7.09,7.09,0,0,1,1.94,3.63c.32,3,1.93,5.81,3.49,8.71a14.36,14.36,0,0,0,4.54,5.3,17.53,17.53,0,0,0,3.34,1.5c.7.31.93-.33,1.37-.56,1.22-.67,2.16-1,3.22-.48a1.68,1.68,0,0,0,1.12.15c1-.42,1.8.26,2.72,1.18s1.93,1.94,3,1.35c.25-.14.66.1,1,.34a17.63,17.63,0,0,0,6.32,2.66,17.72,17.72,0,0,1,3.35,1.44,3.22,3.22,0,0,1,1.23,1,10.42,10.42,0,0,0,3.12,2.87,2,2,0,0,1-.73.88c-.08,1.18-1,2.15-.44,3.49.29.76.18,1.73,1.42,1.86a.6.6,0,0,1,.3,1c-.28.24-.21.59-.28.91s0,.89-.19,1.13c-.56.65-.41,1.51-.59,2.27-.09.41,0,.69.49.71s.4.18.34.47-.19.52-.1.71c.64,1.27-.27,2.14-.57,3.07a4.73,4.73,0,0,0,0,4.09,1.1,1.1,0,0,1,.05.71c0,1.8-1,3.28-1.07,5.08,0,.11-.11.2-.17.3a3.3,3.3,0,0,0,1.39,4.49c.34.18.65.42.38.77a3.2,3.2,0,0,0-.36,1.35c-.13.55,0,.82.65.82a12,12,0,0,1,1.79.09,5.67,5.67,0,0,1,3.81,1.88,7,7,0,0,0,2,1.8,1.73,1.73,0,0,1,.95,1.51c.09.93,0,1.85.06,2.74.22,1.82.48,3.64.65,5.46a2.85,2.85,0,0,1-.12,1.24,4.43,4.43,0,0,0,.19,2.74,7.07,7.07,0,0,1,.16,3.15,3.46,3.46,0,0,0-.08,1.15,6.38,6.38,0,0,1-.05,2.35,5.91,5.91,0,0,0,.09,1.92c.34,1.43.63,2.86,1.07,4.26a8.12,8.12,0,0,1-.21,5.93c-.3.69-1,1.4-.3,2.37,0,0,0,.06,0,.08-.21.51.1.91.4,1.27.73.85,1,1.94,1.68,2.84.25.35.74,1.07,1,1.41a1.72,1.72,0,0,0,1.27.7c.49,0,.73.33,1.06.63.85.79,1.39,2.07,2.75,2.12.07,0,.15.1.21.17a26.29,26.29,0,0,0,4.62,3.2,1.47,1.47,0,0,1,.84,1.85c-.2,1-.13,1,.8,1.44,1.53.78,3.17,1.05,4.72,1.85a6.25,6.25,0,0,1,3.2,4,26.34,26.34,0,0,0,1.57,4.44c.39.77.81,1.26,1.63,1.33a4.71,4.71,0,0,1,2.85,1.45,5.68,5.68,0,0,0,1.24.82c3.15,1.69,6.3,3.38,8.71,6.36,1.42,1.76,3.2,3.2,4.44,5.17a2.34,2.34,0,0,0,2.17,1.42.44.44,0,0,1,.3.18c.59.69,1.32,1.21,1.92,1.87s.89,1.59,1.83,1.88c.17.05.3.32.45.49.81,1,1.23,2.27,2.48,2.95.48.27,1,.64,1.52.95.79.47,1.65.66,2.08,1.77.63,1.61,1.33,3.17.9,4.85-.22.85,0,1.82-.4,2.6a.16.16,0,0,0,.09.23c1,.38,1.42,1.58,2.42,2a1.24,1.24,0,0,1,.79.91,3.89,3.89,0,0,0,.72,1.47,7,7,0,0,1,.95,4.06c0,1.34-.3,2.65-.46,4-.08.69-.17,1.38.56,1.89a.85.85,0,0,1,.28.6,7.88,7.88,0,0,1,.07,2.27,6.23,6.23,0,0,0,.49,3.8c.28.59.85.92,1.06,1.45.49,1.2,1.6,1.81,2.23,2.88a3,3,0,0,1,.6,1.63,3.68,3.68,0,0,0,.58,2,9.2,9.2,0,0,0,4.77,3.7,5.5,5.5,0,0,1,2.86,2.38,6.86,6.86,0,0,1,.57,2.81,5.59,5.59,0,0,1,0,2.73,22.06,22.06,0,0,0-.86,3.26,2.74,2.74,0,0,0,1,3c.11.11.18.27.3.38.81.74,1.25,1.8,2,2.6,1.41,1.48,3,2.72,4.16,4.51a1.83,1.83,0,0,0,1.7.92,5.26,5.26,0,0,1,2.24.56c1.36.61,2.53,1.92,4.11,1.8.17,0,.38.18.57.28a5.94,5.94,0,0,0,.67.33c1.65.55,3.44.6,4.78,2.21a.47.47,0,0,0,.24.16,2.66,2.66,0,0,1,1.65,1.64.81.81,0,0,0,.7.53,5.81,5.81,0,0,1,1,.25.69.69,0,0,1,.55.69c.08,1.17.86,1.6,1.73,2s2,.23,2.42,1.56a.26.26,0,0,0,.15.12c.48.21.57.68.66,1.13a1.43,1.43,0,0,0,1.32,1.25,3,3,0,0,1,2.39,1.23c.74,1.35,1.72,2.55,2.37,4,.31.67,1.13,1,1.21,1.86,0,0,.09.08.14.12a20.55,20.55,0,0,0,5.56,3.15c1.74.65,3.57,1,5.09,2.43a5.24,5.24,0,0,0,1.47.83,23.64,23.64,0,0,1,5.08,2.79c.63.51,1.24,1.06,1.86,1.59a4.36,4.36,0,0,1,1.61,3.6,3.81,3.81,0,0,0,1.61,3.49,3.38,3.38,0,0,1,1.16,1.47,2,2,0,0,0,1.21,1.2,6.21,6.21,0,0,1,2.12,1.46,16.78,16.78,0,0,0,2.21,1.95,5.28,5.28,0,0,1,2,2.19,1.68,1.68,0,0,0,1.66,1.06,2.49,2.49,0,0,1,1.88.74c.41,2.91,1.05,5.9,1.44,8.81a14.31,14.31,0,0,0,1.18,4.84,13.83,13.83,0,0,1,1.44,7.68,21.86,21.86,0,0,0,.45,7.18c.14.52.22,1.1,0,1.29-.79.6-.35,1.86.13,3.05.64,1.62,1.17,3.09.28,4a1.38,1.38,0,0,0-.15,1c.5,2.15-.39,2.49-1.31,2.84-.45.17-1.07.19-1.05,1.11a19.18,19.18,0,0,0,1.17,6.86,23.91,23.91,0,0,0,2.75,4.77,29.73,29.73,0,0,0,5.44,6.77c2.49,2,5.63,7.88,6.11,11.67a24.57,24.57,0,0,0,2.84,8.06c1,1.89,1.87,3.24,2.22,5.63.32,2.17.71,4.49.92,6.59a78.68,78.68,0,0,0,2.69,13.11,55.67,55.67,0,0,0,2.13,6.56,16.16,16.16,0,0,1,1.19,5.48c.26,5.89.85,11.94,1.22,17.92.24,3.87.28,7.63.36,11.42a15.58,15.58,0,0,0,.88,5c1.22,3.48,2.82,6.77,3.73,10.42.52,2,1.42,4,1.79,6a57.77,57.77,0,0,0,1.94,8.74,6.51,6.51,0,0,1,.53,2.69c-.44,3.66,1.66,7.17,2.3,10.78.16.94.9,1.78,1.11,3,.4,2.18.95,4.36,1.19,6.56a21.72,21.72,0,0,0,.8,3.53c.43,1.44,1.65,2.75,1.2,4.46a1.41,1.41,0,0,0,.21.63,10.8,10.8,0,0,1,1.15,4.45,10.24,10.24,0,0,0,.52,2.54c1.61,4,2.9,8.35,5.43,11.11a18.25,18.25,0,0,1,3,5.75c.75,2,2.3,3.83,1.8,6.42a1.44,1.44,0,0,0,.17.66c1.07,1.74.67,2.64,0,3.42a1.33,1.33,0,0,0-.31.82c0,2.73-.75,4.83-1,7.38-.22,2.14-.5,4.36-1.74,5.47-.93.85-1.49,2.81-1.19,5.14a31.86,31.86,0,0,0,1.83,7.89,34.37,34.37,0,0,1,1.66,7.16c.49,2.69,0,5,.28,7.61a28,28,0,0,1-.14,7,13,13,0,0,0,.27,4.42c.6,2.77,1.11,5.57,1.64,8.37a7.14,7.14,0,0,1,.27,2.37,11.52,11.52,0,0,0,.42,4.93c.75,3,.83,5.12-.7,6.41-1,.82-.81,2.29.12,4.06.81,1.52.81,2.06-.13,2.21a5.06,5.06,0,0,0-3.16,2.11,5.64,5.64,0,0,1-1.95,1.45c-1.77.92-3.21,2.77-4.64,4.64s-1.89,4.93-2.21,8.17a28.53,28.53,0,0,0-.08,4.83c.3,4.74.34,9.45-.79,13.44-.27,1-.64,1.77-.86,2.81-.71,3.34-1.24,6.64.72,10.24a1.11,1.11,0,0,1,0,1,31.36,31.36,0,0,1-1,4.06,3.51,3.51,0,0,0-.15,1.8c.47,3.64-1.17,5.22-1.48,8.19a5,5,0,0,0,.31,2.44c.88,1.8,1.73,3.53,2.94,4.32a2.17,2.17,0,0,1,.07.68,4,4,0,0,0,.7,2.35,30.75,30.75,0,0,0,2.77,4.89c1,1.32,1.25,3.91,2.13,5.52.72,1.33,1.17,3.41,2.38,3.39,1.64,0,3.31.77,5,.51,1.38-.22,2.8.68,4.22,1.38s2.84.56,4.36,1.57c2.9,1.93,5.9,1.71,8.86,2.38a1.72,1.72,0,0,1,1.61,1.36,1.36,1.36,0,0,0,.66.81c1.12.74,2.13,2.77,3.37,2.12.94,1.95,2.24,2.89,3.13,4.84a5.82,5.82,0,0,0,1.58,2.19,3.09,3.09,0,0,0,3,.75c.82-.17,1.35.41,1.56,2.37.45,4.23.76,8.54,1.53,12.68.56,3,.63,6.2,1.48,9.06.34,1.16.76,2.2,1.07,3.43,1.27,5,2.2,10.35,3.7,15.17.29.93.6,1.86,1.06,1.73,1-.28,1.75.92,2.48,2.29.4.74.9,1.49,1.37,1.42,1.62-.23,3.15,2.11,4.78,1.63.42-.13.89,0,.95,1.24.15,2.64.92,5.07.79,7.82a13.8,13.8,0,0,0,.34,2.89c.69,3.84,1.9,7.3,2.11,11.5a4.58,4.58,0,0,0,.18.73c1.19,4,2.37,8,3.52,12a4.69,4.69,0,0,0,1.25,2.23c2.14,2.17,3.11,6.33,2.62,11.36a24.29,24.29,0,0,0-.08,3.53c.3,5.42,1.64,10,2.71,14.67,1.65,7.27,3.47,14.34,4,22.58a9.6,9.6,0,0,1,1.41.26A3.8,3.8,0,0,0,4017.81,2791.2Z"/></g></g></svg>