<svg xmlns="http://www.w3.org/2000/svg" viewBox="0 0 4997.71 4997.71"><title>tek dag</title><g id="Layer_2" data-name="Layer 2"><g id="Layer_1-2" data-name="Layer 1"><path d="M0,0V4997.71H4997.71V0ZM3624.14,2501.31c-1.08,18.86-5.26,34.27-8.33,50.89-1.34,7.2-2.18,15.05-3.79,21.87-3,12.7-6.33,25-9,38-2.18,10.48-4.71,18.2-9.49,18.62-.76.08-1.66,1.27-2.43,2.35-2,2.82-2.88,6.91-3.29,12.32-1.37,17.64,0,14.92-6.87,21.92a39.15,39.15,0,0,0-2.75,3,13.56,13.56,0,0,0-2.95,6.44c-1.17,7.1-2,14.36-5,19.84a7.86,7.86,0,0,0-.49,3.14c2.1,7.16-1,14-2.82,21a30,30,0,0,0-.81,6.45c-.24,11.51-4.47,20.84-7.49,30.66a16.61,16.61,0,0,1-3.14,5.53c-5,6-7.45,15-9.22,24.77-1.48,8.19-3.45,15.19-7.73,20.83-5,6.54-10.14,13.22-14.07,23.27-2.18,5.53-4.23,7.5-6.55,6.06s-4.64-4.24-8.09,3.63a1.59,1.59,0,0,1-.91.87c-2.18.16-4.64,3.35-6.82,3.34-1.63,0-3,2.19-4.49,5a88.33,88.33,0,0,0-9.26,29.39c-1.81,13-7.55,20-13.05,27.47-4.06,5.48-7.63,13-7.9,19.36-.09,2.19-.65,4.22-2.44,5.43a18.88,18.88,0,0,0-3,2.38c-7.71,7.81-11.44,12.1-17.84,10.23-1.67-.48-8,5.47-9.51,9.81-1.38,3.93-4.38,7.89-6.88,9-1.48.68-1.42-.54-2.93-.22a2.89,2.89,0,0,0-2.31,2c-.43.93-1.31,2.73-2.36,3.39a21.14,21.14,0,0,0-4.43,4.19c-1.57,1.91-3.21,3.35-4.71,5.37-2.76,3.71-2.35,4.83-4.91,6-6.38,2.81-12.77,8.06-19.23,13.09-1.31,1-2.37.77-4,2.74-3.18,3.95-4.1,6.91-3.88,10.75.15,1.87-11.32,18.37-13.05,18.93-2.13.78-4,2.88-6,4.52-2.89,2.35-3,3.8-1.63,4.73,2.66,1.78,3.13,5.79,4.08,9.43.64,2.44.11,6.32,1.55,7.47,4.78,3.82,2.11,14.36,4.34,20.33a2.89,2.89,0,0,1-.26,1.72c-2.28,5.34-2.52,9.8-3.36,14.52s-3.2,9.84-6.06,14.56c-5.32,8.77-9.53,17.24-11.83,25.76a11.48,11.48,0,0,1-4.13,6.31c-5.48,4.31-6,5.05-6,10.55,0,3.22-1.19,6.16-4.16,9.85-5,6.18-10.15,12-15.54,17.67s-11.85,9.61-17.08,15.89a7.57,7.57,0,0,1-2.81,1.72c-2,.85-4.08,2.54-6.08,3.66-4.67,2.61-7.46,8-11.66,10.95s-5.88,6-6.67,9.67c-1.35,6.28-4.35,12.9-8.7,19.64a17.08,17.08,0,0,0-2.28,5.71c-.85,3.45-.53,6.46-3.45,10.68-5.28,7.65-11,15.18-16.39,22.62-5.56,7.65-11.55,15.15-17.3,22.64a39.45,39.45,0,0,1-11.63,10.47c-4.71,2.75-9.81,5.65-10.83,10.8a3.9,3.9,0,0,1-1.21,1.52c-7.65,6.12-11.86,13-16.93,19.72-10,13.27-23,23.06-38.74,27.74a41,41,0,0,0-18,10.77c-7,7.23-14.55,9.19-21.41,9.79a19,19,0,0,0-12.92,5.8c-4.77,4.54-9.68,9-14.9,13.35-3.07,2.54-7.47,4.7-5.78,7.41.13.21-.42,1-.89,1.33-7.07,4.91-12.65,11.12-21.86,14.18a37.72,37.72,0,0,0-13.78,8.33c-4.12,3.88-8.8,7.58-15.4,9-5.4,1.19-8.94,0-11.36-1.48-6.29-3.76-16-1.12-25.82,1.39-3.55.91-5.57.91-7.44-.31-2.82-1.84-3.51-5.05-8-5.76-2.36-.38-3.44-1.65-4.9-2.64-4.7-3.21-9.33-6.47-17.27-7.09-6.18-.48-13.08-.32-14.19-5,0-.16-.26-.29-.5-.35-6.11-1.38-7.13-5.8-10.46-8.84-3.83-3.51-9.25-5.39-17.75-4.32-1.39.17-1.75-.25-2.16-.76-1.88-2.28-4.79-2.36-9.32.39-2.61,1.59-4.94,1.58-6.76.75a35.55,35.55,0,0,0-17.52-3.56,4.33,4.33,0,0,1-3-.64c-1-.88-2.73-1-4.6-.72-7.73,1-14.69.82-20-2.69,0,3.06-3.22,5.33-3.17,7.65.1,4.31-3.59,8.91-8.53,12.58s-5.89,7.46-8.88,11.13c-1,1.25.22,2.58-1.23,3.92-4.44,4.08-6.65,8.4-10.29,12.55-1.54,1.76-1.84,3.74-5.66,4.93-.92.28-2.22,1.43-2.19,1.94.1,1.49-.06,1.31-1.41,2.33-2,1.53-5.8,1-6.52,2.4-1.86,3.56-7.6,6.25-9.58,9.59-1.09,1.84-2.24,1.83-4.34,1.69-5.5-.35-11.68.55-17.05-.11a3.92,3.92,0,0,0-1.29-.05c-6.4,4.57-3.79-.11-4.9-.94-.42-.31-.78-.65-1.23-1-3.9-2.68-9.52-4.4-14.57-6.13a53.22,53.22,0,0,0-34.06-.59c-.78.24-1.86.37-2-.18-.58-1.92-4-2.38-5.44-4a9.33,9.33,0,0,0-8.3-3.62c-7,.52-12.89-1.65-20.26-.24a9.88,9.88,0,0,1-7.52-1.31c-3-2-7.16-2.72-12.15-2.31a22.66,22.66,0,0,1-8.19-.79,54.24,54.24,0,0,0-18.26-1.72,15.52,15.52,0,0,1-6-.43c-7.6-2.69-17.22-2.38-25.73-3.5-8.1-1.07-14.3-2.54-18.16-6.57-.79-.83-1.62-1.37-3.73-.81-10.27,2.69-20.08,5.53-28.3,10.23a38.41,38.41,0,0,1-19.1,5.58c-6.48.1-8.44,4.26-14.14,5.15-.37.06-.37.68-.74,1a5.41,5.41,0,0,1-2.19,1.42c-5.84,1.27-11.31,3.83-17.89,3.07-8.64-1-14.51,1.94-21.6,3.22-4.34.79-5,3.46-8.65,4.34-8.09,1.93-15.15,4.67-22.44,7.22-1.77.62-3.76,1.16-4.65,2.22-3.93,4.69-10.51,8-18.29,10.74-5.74,2-8.42,5.71-15,7.39-6.9,1.75-10.29,5.35-11.49,9.37-1,3.37-4.5,5.77-8.52,7.86-2.7,1.4-4.69,2.71-4.63,4.83,0,1-.11,2-2.23,2-5.49,0-10.36,1.19-16.26.39a32.28,32.28,0,0,0-16.21,1.72c-6.43,2.58-9.62,6.93-17.05,9a1.15,1.15,0,0,0-.59.39c-2.48,3.75-9.08,5.26-14.66,7.28-9,3.28-19.09,5.76-27.3,9.5-2.35,1.07-4.21.67-5.25-1.32s-2-4.27-1.58-6.18c.57-2.54-1.43-4.61-5-6.66-5.64-3.25-9.24-7.14-14.14-10.61-10.38-7.36-19.41-15.16-28.61-23a5,5,0,0,1-1.33-2c-2.16-5.38-1.53-10.28-.77-15.24.62-4,2.22-8-2.56-12.81-3.08-3.12-6.94-6.06-9.52-9.38a10.31,10.31,0,0,0-10.37-3.94c-2.33.44-6.12-.92-7.88-2.3-2.77-2.17-3.58-5.08-8.88-6.13-2.63-4.77-4-2.29-5.57-.8a6.06,6.06,0,0,1-1.24,1,3.83,3.83,0,0,1-3.72.2c-1.74-.73-2.08-1.75-1.69-2.45,1.21-2.14-.09-4.73-1-7.09-1.48-4.06-.2-7.77-4.2-12.23s-6.82-9.38-9.67-14.11a13.44,13.44,0,0,0-8.94-5.5c-.62-.09-1.22,0-1.85-.15-4.76-.74-8.85-1.89-11.73-5.53-3.41-4.32-8.24-6.79-12.12-6.86-4.47-.08-5.84-.82-6.93-4a8.41,8.41,0,0,0-3.59-4.37c-8.14-5.64-16.49-6.93-24.91-7.17-3.58-.11-6.74.61-10.38.36-4.35-.3-7.18.49-9,2.48a10.81,10.81,0,0,1-2.6,1.65c-2.28,1.3-3.82.76-5.52-2-.47-.74-.71-1.48-1.13-2.23-1.37-2.48-3.23-3.67-7.21-4.18-7.72-1-12.5.88-15.41,4.06-3,3.34-10.22,2.87-13.35,5.88a.91.91,0,0,1-.76.08c-3.66-1.2-7.89-3.84-9.86-1.19-3.4-2.6-3.54-.65-4.59.14-1.78,1.33-4.54.83-7.76-.83-3.86-2-6.38-2-7.84-.18a4.86,4.86,0,0,1-1.87,1.75c-2.63,1.08-2.44,4.31-6.26,4.33a89.67,89.67,0,0,1-12.64-1c-6.51-.9-12.64-1.37-17.33.17-5.08,1.66-8.68,4.56-13.77,6.29-11.41,3.86-23,2-38.09-10.35-7.09-5.84-13.62-12.13-21.51-17.48a40,40,0,0,1-10-9.74c-1.8-2.46-3.14-5-5-7.38-4.92-6.36-8.89-12.57-11.31-18.84-2.79-7.23-6.21-9.76-14.83-11.79-1.35-.32-3.14-.93-3.83-2-2.9-4.65-7.34-9.54-8.08-14a17.76,17.76,0,0,0-5.73-11.12c-4.28-3.93-4.32-6.6-4-9.21.3-2.42-1.26-4.29-4.26-6-1.79-1-2.51-1.93-2.78-3.35-1.41-7.31-2.06-14.35-4-21.94-.31-1.18.21-2.62-1.43-3.57-4.27-2.49-2.92-3.94-2.88-5.8s1.33-3.79-1.22-5.8c-3.33-2.63-3.31-4.8-4.36-7.06-2.08-4.54-2.1-8.45-2.8-12.55-.79-4.73-3.13-8.17-8.39-11.72-.92-.61-2-.82-2.74-1.91-4.59-6.64-9.89-13.41-10.52-20-.07-.82,0-1.88-1.45-2.28-5.19-1.45-7.59-4.05-6.37-8.28.07-.27-.26-.83-.25-1.15.24-4.91-.28-10.45.75-14.69a26,26,0,0,0-1-15c-1.91-5.57-.9-9.15,0-13,.23-1,1.13-1.65,0-3.29-1.24-1.81-2.38-1.36-3.49-1.53-3.71-.56-9.42-5.67-10.84-9.81-.57-1.69-1.47-1.56-2.12-1.6-4.2-.24-7.93-1.66-10.73-8.36-.36-.87-1.26-3.3-2.82-4.06-1.94-.94-1.85-2.15-1.68-3,1.22-6.26,2.52-12.49,4.06-18.54.45-1.74,1.59-2.9,2.32-4.42,1.43-3-.17-6.23-4.24-8.76-5.33-3.33-5.34-3.35-4.52-8a19.79,19.79,0,0,0,.35-2c.17-2.41.86-4.94-3.38-6.42a2.49,2.49,0,0,1-1.39-1.71c-.84-2.73-2.94-3.59-3.94-3.48-4.17.48-9.42-2.83-13.6-2.65a4.5,4.5,0,0,1-4.32-2.32c-1.37-2.5-2.35-2.43-3.7-2.78-4.62-1.22-9.23-.5-14.13-8.16-2.68-4.21-5.46-6.16-8.59-6.7a3.4,3.4,0,0,1-2.64-4c.36-3.18-1.13-4.77-3.58-5.51-2-.6-2.4-1.59-1.73-3.21.28-.69.49-1.46.78-2.15a3.59,3.59,0,0,0-2.36-4.76c-2.42-.82-4.91-2.07-7.34-2.71-4.06-1.07-8-1-12.8-5.65-6.38-6.08-12.41-6.44-18.65-10.08-1.58-.92-4.08-2.81-4.14-3.78-.29-4.8-2.63-4.46-4.26-5.39-2-1.15-4-1.79-6-2.82-.72-.36-2-.95-2.06-2.24-.24-3.85-2.17-3.87-3.48-4.44a66.91,66.91,0,0,0-13.77-4,4.21,4.21,0,0,1-3.64-3.06c-1.3-4-3.17-4.22-4.77-5.12-4.36-2.45-8.58-4.3-13-10.13-1.81-2.39-3.84-3.82-5.49-7.32-1.32-2.81-3.59-3.31-5.4-6-1.38-2.06-1.21-4.69-3-6.22a10.89,10.89,0,0,1-3.62-7.79,4.83,4.83,0,0,0-1.86-3.5c-.74-.8-1.72-1.28-2-2.75-.78-4.15-2.56-4.71-4.29-5.72-1.3-.77-2.85-1.48-3.76-3.65a9.11,9.11,0,0,0-3.88-4.62c-2.62-2-5.18-3.61-7.63-4s-4.88-2.18-7.49-6.21c-1.27-2-2.35-4.8-3.86-6-2.78-2.14-5.2-8.25-8.17-8.22a3.91,3.91,0,0,1-1-1.76c-1.19-4.67-3.13-6.48-5.42-8.12a11.22,11.22,0,0,1-3.92-4.61c-2.17-5.87-4.9-6.89-7.49-9.57-1.63-1.68-4.11-4.43-4.24-6.83-.23-4.13-1.74-5-2.94-7.63a41,41,0,0,0-7.49-10.91c-1.45-1.68-1.57-4.39-1.74-6.68a21,21,0,0,0-1.34-7c-4.11-9-8.11-18.23-12.22-27.18-2.61-5.7-3.35-9.19-2.27-14.14a14.93,14.93,0,0,0,.21-3.76c-.23-4.79-.64-9.72-.73-14.46-.07-3.93.12-7.53-2.68-9.51-.65-.46-1-2-1.08-3.3-.5-5.77.52-11.07-1.59-17.45-.23-.68.17-1.93,0-2.9-.54-3.58.46-7.48-.89-10.33-2.58-5.4-4.56-12.32-7.87-16-4.7-5.15-9.65-8.66-13.74-17.7-1-2.15-2-1.6-3-1.7-9.54-.84-19.95-20.15-22.52-44.07a77.66,77.66,0,0,0-2.39-12.46c-3.21-11.67-6.32-23.81-3.5-37.08.66-3.08-.39-5.3-1.09-7.63-3.31-11.12-6.77-22-8.82-35-.41-2.61-1.07-5.12-2-6.12-6.09-6.48-6.47-26.5-11.44-35.74-1-1.81-1.67-4.34-2.9-4.73.06-.39.12-.81.15-1.32,1.07-18.86,5.25-34.27,8.33-50.89,1.33-7.2,2.18-15,3.78-21.86,3-12.7,6.33-25,9-38,2.17-10.47,4.7-18.2,9.48-18.62.77-.07,1.66-1.27,2.43-2.34,2-2.83,2.89-6.92,3.29-12.32,1.38-17.64,0-14.93,6.87-21.92a37.41,37.41,0,0,0,2.75-3,13.52,13.52,0,0,0,3-6.43c1.17-7.1,2-14.36,5-19.84a7.69,7.69,0,0,0,.49-3.14c-2.1-7.17,1-14,2.82-21a30.16,30.16,0,0,0,.82-6.46c.23-11.51,4.46-20.83,7.48-30.66a16.84,16.84,0,0,1,3.14-5.52c5-6,7.45-15,9.23-24.78,1.48-8.18,3.44-15.19,7.73-20.83,5-6.53,10.13-13.21,14.07-23.26,2.17-5.53,4.22-7.51,6.54-6.07s4.64,4.24,8.1-3.63a1.57,1.57,0,0,1,.91-.87c2.17-.15,4.64-3.34,6.81-3.33,1.64,0,3-2.2,4.5-5a88.43,88.43,0,0,0,9.25-29.4c1.82-13,7.56-20,13.06-27.46,4.06-5.49,7.63-13,7.89-19.37.09-2.18.65-4.21,2.45-5.42a18.36,18.36,0,0,0,3-2.39c7.71-7.81,11.44-12.09,17.85-10.22,1.67.47,8-5.48,9.5-9.82,1.38-3.93,4.38-7.88,6.88-9,1.49-.68,1.43.54,2.93.22a2.87,2.87,0,0,0,2.32-2c.43-.94,1.3-2.73,2.36-3.4a20.78,20.78,0,0,0,4.42-4.18c1.57-1.92,3.21-3.35,4.72-5.38,2.75-3.71,2.35-4.82,4.9-5.95,6.39-2.81,12.78-8.07,19.24-13.09,1.3-1,2.36-.77,4-2.75,3.19-4,4.1-6.91,3.88-10.74-.15-1.88,11.33-18.38,13-18.93,2.14-.79,4-2.88,6-4.52,2.9-2.35,3-3.81,1.63-4.74-2.66-1.77-3.12-5.78-4.07-9.43-.64-2.44-.12-6.31-1.56-7.47-4.78-3.81-2.11-14.36-4.33-20.33a2.88,2.88,0,0,1,.25-1.72c2.29-5.34,2.53-9.8,3.36-14.52s3.2-9.84,6.07-14.56c5.32-8.76,9.53-17.24,11.82-25.75A11.59,11.59,0,0,1,1655,1858c5.48-4.3,6-5,6-10.55,0-3.21,1.2-6.15,4.16-9.84,5-6.19,10.15-12,15.54-17.68s11.85-9.61,17.09-15.88a7.56,7.56,0,0,1,2.8-1.73c2-.84,4.08-2.54,6.08-3.66,4.67-2.6,7.47-8,11.67-11s5.87-6,6.66-9.66c1.35-6.28,4.36-12.9,8.7-19.64a17.28,17.28,0,0,0,2.29-5.71c.85-3.46.53-6.47,3.44-10.69,5.29-7.64,11-15.18,16.39-22.62,5.56-7.65,11.55-15.15,17.3-22.64a39.45,39.45,0,0,1,11.63-10.47c4.71-2.74,9.82-5.65,10.84-10.79a3.88,3.88,0,0,1,1.2-1.53c7.65-6.12,11.87-13,16.93-19.72,10-13.27,23-23.06,38.75-27.74a40.84,40.84,0,0,0,18-10.77c7-7.23,14.55-9.19,21.41-9.79a19.05,19.05,0,0,0,12.92-5.79c4.77-4.55,9.68-9.05,14.9-13.35,3.08-2.55,7.47-4.71,5.79-7.42-.13-.2.42-1,.88-1.32,7.07-4.92,12.65-11.12,21.87-14.18a37.7,37.7,0,0,0,13.77-8.34c4.13-3.88,8.8-7.57,15.41-9,5.4-1.18,8.93,0,11.36,1.49,6.28,3.76,16,1.12,25.81-1.4,3.56-.91,5.57-.9,7.45.32,2.81,1.83,3.5,5,8,5.76,2.36.37,3.44,1.65,4.9,2.64,4.71,3.21,9.33,6.46,17.27,7.08,6.18.48,13.09.32,14.19,5,0,.16.27.29.5.34,6.12,1.39,7.14,5.81,10.47,8.85,3.82,3.51,9.24,5.39,17.74,4.32,1.39-.18,1.75.24,2.17.75,1.88,2.28,4.78,2.37,9.31-.39,2.62-1.58,4.94-1.58,6.76-.75a35.44,35.44,0,0,0,17.52,3.57,4.26,4.26,0,0,1,3,.63c1,.89,2.73,1,4.61.72,7.73-1,14.69-.81,20,2.69,0-3,3.22-5.33,3.16-7.64-.1-4.31,3.59-8.91,8.53-12.58s5.89-7.46,8.89-11.14c1-1.25-.23-2.58,1.22-3.92,4.44-4.08,6.65-8.4,10.29-12.55,1.55-1.75,1.85-3.74,5.67-4.92.92-.29,2.22-1.44,2.18-1.94-.1-1.5.07-1.31,1.42-2.34,2-1.53,5.79-1,6.51-2.39,1.86-3.57,7.6-6.26,9.58-9.59,1.09-1.85,2.24-1.84,4.35-1.7,5.5.36,11.67-.55,17,.12a4,4,0,0,0,1.3.05c6.39-4.58,3.78.11,4.89.93.42.32.79.66,1.23,1,3.91,2.69,9.53,4.4,14.58,6.14a53.13,53.13,0,0,0,34.05.58c.79-.24,1.87-.37,2,.18.58,1.92,4,2.39,5.44,4a9.35,9.35,0,0,0,8.3,3.61c7-.51,12.9,1.65,20.26.25a9.83,9.83,0,0,1,7.53,1.31c3,2,7.16,2.71,12.14,2.3a22.93,22.93,0,0,1,8.2.8,54.44,54.44,0,0,0,18.25,1.72,15.58,15.58,0,0,1,6,.42c7.6,2.7,17.21,2.38,25.73,3.51,8.1,1.07,14.3,2.54,18.15,6.56.79.83,1.62,1.37,3.73.82,10.27-2.7,20.09-5.53,28.3-10.24a38.54,38.54,0,0,1,19.1-5.57c6.49-.1,8.45-4.27,14.15-5.16.36,0,.37-.68.73-1a5.62,5.62,0,0,1,2.19-1.42c5.85-1.26,11.31-3.82,17.9-3.07,8.63,1,14.5-1.93,21.6-3.22,4.34-.78,5-3.46,8.65-4.33,8.09-1.94,15.14-4.67,22.43-7.22,1.77-.63,3.76-1.16,4.65-2.22,3.94-4.69,10.51-8,18.29-10.75,5.74-2,8.42-5.7,15-7.38,6.9-1.75,10.28-5.35,11.49-9.38,1-3.36,4.5-5.77,8.52-7.85,2.7-1.4,4.69-2.72,4.63-4.84,0-1,.1-2,2.23-2,5.48,0,10.35-1.2,16.25-.4a32.29,32.29,0,0,0,16.21-1.71c6.44-2.59,9.63-6.94,17.06-9a1,1,0,0,0,.58-.39c2.48-3.74,9.08-5.25,14.66-7.28,9-3.28,19.1-5.75,27.3-9.49,2.36-1.07,4.21-.67,5.26,1.31s2,4.27,1.57,6.19c-.57,2.53,1.44,4.61,5,6.66,5.65,3.24,9.24,7.13,14.14,10.6,10.39,7.36,19.41,15.16,28.61,23a4.75,4.75,0,0,1,1.33,2c2.16,5.37,1.53,10.28.78,15.23-.63,4-2.23,8,2.56,12.82,3.08,3.12,6.94,6.06,9.52,9.37a10.28,10.28,0,0,0,10.36,3.94c2.33-.44,6.13.93,7.89,2.31,2.77,2.17,3.57,5.07,8.87,6.13,2.64,4.76,4,2.28,5.57.8a5.49,5.49,0,0,1,1.25-1,3.82,3.82,0,0,1,3.72-.21c1.74.73,2.07,1.75,1.68,2.46-1.2,2.13.09,4.72,1,7.08,1.48,4.07.2,7.77,4.2,12.24s6.82,9.37,9.67,14.1a13.49,13.49,0,0,0,8.94,5.51c.63.08,1.23,0,1.85.14,4.76.75,8.86,1.89,11.73,5.53,3.42,4.33,8.24,6.79,12.13,6.86,4.47.09,5.83.82,6.92,4a8.51,8.51,0,0,0,3.59,4.38c8.14,5.63,16.49,6.93,24.91,7.17,3.59.1,6.75-.62,10.38-.37,4.35.3,7.19-.49,9.05-2.48a11.05,11.05,0,0,1,2.59-1.65c2.28-1.3,3.82-.75,5.53,2,.46.75.71,1.49,1.12,2.23,1.37,2.48,3.24,3.67,7.22,4.18,7.72,1,12.5-.88,15.41-4.06s10.21-2.87,13.35-5.88a1,1,0,0,1,.75-.08c3.66,1.21,7.9,3.84,9.86,1.2,3.41,2.59,3.55.65,4.59-.15,1.78-1.33,4.54-.83,7.76.83,3.86,2,6.39,2,7.84.19a5,5,0,0,1,1.87-1.76c2.64-1.08,2.45-4.3,6.27-4.33a91,91,0,0,1,12.63,1c6.51.9,12.64,1.36,17.33-.17,5.09-1.67,8.69-4.57,13.78-6.3,11.4-3.86,23-2,38.08,10.36,7.1,5.84,13.63,12.13,21.51,17.48a39.78,39.78,0,0,1,10,9.74c1.8,2.46,3.14,5,5,7.38,4.92,6.35,8.9,12.56,11.32,18.83,2.78,7.23,6.21,9.76,14.82,11.8,1.35.32,3.15.93,3.84,2,2.9,4.65,7.34,9.54,8.07,14a17.74,17.74,0,0,0,5.73,11.11c4.28,3.94,4.32,6.61,4,9.21-.31,2.43,1.26,4.29,4.25,6,1.79,1,2.52,1.94,2.79,3.35,1.4,7.32,2.05,14.36,4,21.94.3,1.18-.22,2.62,1.43,3.58,4.26,2.49,2.91,3.93,2.87,5.79s-1.32,3.79,1.22,5.8c3.34,2.64,3.32,4.8,4.36,7.07,2.08,4.53,2.11,8.45,2.8,12.54.8,4.74,3.13,8.18,8.4,11.72.92.62,2,.83,2.74,1.91,4.58,6.65,9.88,13.42,10.51,20,.08.82,0,1.88,1.46,2.29,5.18,1.45,7.58,4,6.37,8.28-.08.26.26.82.24,1.15-.23,4.91.28,10.44-.75,14.69a26.09,26.09,0,0,0,1,15c1.92,5.58.91,9.15,0,13-.23,1-1.14,1.65,0,3.3s2.37,1.36,3.48,1.53c3.71.56,9.43,5.66,10.84,9.8.58,1.69,1.47,1.56,2.12,1.6,4.2.24,7.93,1.66,10.73,8.36.36.88,1.26,3.3,2.83,4.06,1.94.94,1.85,2.15,1.67,3-1.21,6.27-2.51,12.5-4.06,18.54-.44,1.74-1.59,2.91-2.31,4.43-1.44,3,.17,6.22,4.23,8.75,5.34,3.33,5.34,3.36,4.53,8a18.13,18.13,0,0,0-.35,2c-.17,2.41-.87,4.94,3.37,6.43a2.45,2.45,0,0,1,1.4,1.71c.83,2.73,2.94,3.58,3.94,3.47,4.16-.48,9.41,2.83,13.6,2.65a4.51,4.51,0,0,1,4.32,2.33c1.37,2.49,2.35,2.42,3.7,2.78,4.62,1.22,9.22.49,14.12,8.15,2.69,4.21,5.47,6.16,8.59,6.71a3.4,3.4,0,0,1,2.64,4c-.36,3.18,1.14,4.77,3.58,5.52,2,.59,2.4,1.58,1.74,3.2-.29.69-.5,1.46-.79,2.15a3.6,3.6,0,0,0,2.36,4.76c2.43.83,4.92,2.07,7.34,2.71,4.07,1.08,7.95,1,12.81,5.65,6.37,6.08,12.4,6.45,18.65,10.08,1.58.92,4.07,2.82,4.13,3.78.3,4.8,2.63,4.47,4.26,5.39,2,1.16,4,1.79,6,2.82.72.37,2,1,2.06,2.25.24,3.84,2.16,3.86,3.48,4.43a66.12,66.12,0,0,0,13.77,4,4.21,4.21,0,0,1,3.63,3.07c1.31,4,3.17,4.22,4.77,5.11,4.36,2.45,8.59,4.3,13,10.14,1.82,2.39,3.85,3.81,5.5,7.32,1.31,2.8,3.58,3.3,5.4,6,1.38,2.06,1.21,4.68,3,6.22a10.88,10.88,0,0,1,3.62,7.79,4.84,4.84,0,0,0,1.86,3.49c.75.8,1.73,1.28,2,2.75.77,4.16,2.55,4.72,4.28,5.73,1.3.76,2.86,1.47,3.76,3.65a9.2,9.2,0,0,0,3.88,4.62c2.62,2,5.18,3.6,7.64,4s4.88,2.19,7.48,6.21c1.27,2,2.35,4.8,3.86,6,2.79,2.13,5.21,8.25,8.17,8.22.21,0,.9,1.14,1,1.75,1.19,4.68,3.14,6.49,5.42,8.12a11.31,11.31,0,0,1,3.93,4.61c2.17,5.88,4.89,6.9,7.48,9.57,1.64,1.69,4.11,4.43,4.24,6.84.23,4.13,1.75,5,2.94,7.63,2.35,5.11,4.84,7.84,7.5,10.91,1.45,1.67,1.56,4.39,1.74,6.67a21.34,21.34,0,0,0,1.33,7c4.11,9,8.12,18.22,12.22,27.18,2.61,5.7,3.36,9.18,2.27,14.13a15.5,15.5,0,0,0-.21,3.77c.24,4.79.64,9.71.73,14.46.08,3.92-.11,7.53,2.69,9.5.65.46,1,2,1.07,3.31.5,5.76-.51,11.07,1.6,17.45.23.68-.18,1.92,0,2.89.55,3.58-.46,7.48.9,10.33,2.57,5.4,4.55,12.33,7.87,16,4.69,5.16,9.65,8.67,13.74,17.7,1,2.15,2,1.61,3,1.7,9.53.84,19.94,20.15,22.51,44.08a77.53,77.53,0,0,0,2.4,12.45c3.2,11.68,6.31,23.82,3.49,37.08-.66,3.08.4,5.3,1.09,7.64,3.32,11.11,6.77,22,8.82,35,.41,2.61,1.08,5.12,2,6.13,6.09,6.47,6.47,26.5,11.44,35.74,1,1.81,1.67,4.34,2.91,4.73A11.06,11.06,0,0,0,3624.14,2501.31Z"/></g></g></svg>